<?xml version="1.0" encoding="UTF-8"?>
<svg id="Layer_2" data-name="Layer 2" xmlns="http://www.w3.org/2000/svg" xmlns:xlink="http://www.w3.org/1999/xlink" viewBox="0 0 1020.52 808.9">
  <defs>
    <style>
      .cls-1, .cls-2, .cls-3, .cls-4, .cls-5 {
        fill: none;
      }

      .cls-2 {
        stroke-width: 4.68px;
      }

      .cls-2, .cls-3 {
        stroke: #58595b;
        stroke-linecap: round;
      }

      .cls-2, .cls-3, .cls-5 {
        stroke-miterlimit: 10;
      }

      .cls-6 {
        fill: #f1be5b;
      }

      .cls-7 {
        fill: #fff;
      }

      .cls-8 {
        fill: #f1f2d6;
      }

      .cls-9 {
        fill: #fbf5e0;
      }

      .cls-10 {
        fill: #b5b2aa;
      }

      .cls-11 {
        fill: #918db7;
      }

      .cls-12 {
        fill: #909a86;
      }

      .cls-13 {
        fill: #65637c;
      }

      .cls-14 {
        fill: #ba8e9e;
      }

      .cls-15 {
        fill: #cb8029;
      }

      .cls-16 {
        fill: #c56f4b;
      }

      .cls-17 {
        fill: #da7440;
      }

      .cls-18 {
        fill: #231f20;
      }

      .cls-19 {
        fill: #9b6c39;
      }

      .cls-20 {
        fill: #646469;
      }

      .cls-21 {
        fill: #5769b1;
      }

      .cls-22 {
        fill: #846471;
      }

      .cls-23 {
        fill: #4c4c4d;
      }

      .cls-24 {
        fill: #787878;
      }

      .cls-3, .cls-5 {
        stroke-width: 7px;
      }

      .cls-25 {
        fill: url(#USGS_22_Gravel_Beach);
        opacity: .55;
      }

      .cls-4 {
        stroke: #707071;
      }

      .cls-5 {
        stroke: #4c4c4d;
      }
    </style>
    <pattern id="USGS_22_Gravel_Beach" data-name="USGS 22 Gravel Beach" x="0" y="0" width="72" height="72" patternTransform="translate(-2097.13 -2924.81)" patternUnits="userSpaceOnUse" viewBox="0 0 72 72">
      <g>
        <rect class="cls-1" x="0" width="72" height="72"/>
        <g>
          <path class="cls-18" d="m21,3.1c-.09,0-.18-.04-.25-.1-.06-.07-.1-.16-.1-.25s.04-.18.1-.25c.14-.13.36-.13.49,0,.07.07.11.16.11.25s-.04.18-.1.25c-.07.06-.16.1-.25.1Z"/>
          <path class="cls-18" d="m20,8.35c-.09,0-.18-.04-.25-.1-.06-.07-.1-.16-.1-.25,0-.1.04-.19.11-.25.11-.12.35-.13.49,0,.06.06.1.15.1.25,0,.09-.04.18-.1.25-.07.06-.15.1-.25.1Z"/>
          <path class="cls-18" d="m20.25,10.6c-.09,0-.18-.04-.25-.1-.06-.07-.1-.16-.1-.25s.04-.18.1-.25c.13-.13.36-.13.5,0,.06.07.1.16.1.25s-.04.18-.1.25c-.07.06-.16.1-.25.1Z"/>
          <path class="cls-18" d="m15.25,10.6c-.09,0-.18-.04-.25-.1-.06-.07-.1-.16-.1-.25,0-.1.04-.18.1-.25.12-.12.36-.13.5,0,.06.07.1.16.1.25s-.04.18-.1.25c-.07.06-.16.1-.25.1Z"/>
          <path class="cls-18" d="m22.75,20.1c-.09,0-.18-.04-.25-.1-.06-.07-.1-.16-.1-.25s.04-.18.1-.25c.14-.13.36-.13.49,0,.07.07.11.16.11.25s-.04.18-.1.25c-.07.06-.16.1-.25.1Z"/>
          <path class="cls-18" d="m15.25,23.1c-.09,0-.18-.04-.25-.1-.06-.07-.1-.16-.1-.25,0-.1.04-.19.11-.25.11-.12.35-.13.49,0,.06.06.1.15.1.25,0,.09-.04.18-.1.25-.07.06-.16.1-.25.1Z"/>
          <path class="cls-18" d="m14,24.1c-.09,0-.18-.04-.25-.1-.06-.07-.1-.16-.1-.25s.04-.18.1-.25c.14-.13.36-.13.49,0,.07.07.11.16.11.25s-.04.18-.1.25c-.07.06-.15.1-.25.1Z"/>
          <path class="cls-18" d="m24,27.1c-.09,0-.18-.04-.25-.1-.06-.07-.1-.16-.1-.25,0-.1.04-.19.11-.25.11-.12.36-.13.49,0,.06.07.1.16.1.25s-.04.18-.1.24c-.07.07-.16.11-.25.11Z"/>
          <path class="cls-18" d="m30.75,25.85c-.09,0-.18-.04-.25-.1-.06-.07-.1-.16-.1-.25s.04-.18.1-.25c.14-.13.36-.13.49,0,.07.07.11.16.11.25s-.04.18-.1.25c-.07.06-.16.1-.25.1Z"/>
          <path class="cls-18" d="m31.25,23.35c-.09,0-.18-.04-.25-.1-.06-.07-.1-.16-.1-.25,0-.1.04-.19.11-.25.12-.13.35-.13.49,0,.06.06.1.15.1.25,0,.09-.04.18-.1.25-.07.06-.15.1-.25.1Z"/>
          <path class="cls-18" d="m29.25,18.35c-.09,0-.18-.04-.25-.1-.06-.07-.1-.16-.1-.25s.04-.18.1-.25c.14-.13.36-.13.49,0,.07.07.11.16.11.25s-.04.18-.1.25c-.07.06-.16.1-.25.1Z"/>
          <path class="cls-18" d="m34,19.85c-.09,0-.18-.04-.25-.1-.06-.07-.1-.16-.1-.25s.04-.18.1-.25c.14-.13.36-.13.49,0,.07.07.11.16.11.25s-.04.18-.1.25c-.07.06-.16.1-.25.1Z"/>
          <path class="cls-18" d="m31.5,14.85c-.09,0-.18-.04-.25-.1-.06-.07-.1-.16-.1-.25s.04-.18.1-.25c.14-.13.36-.13.49,0,.07.07.11.16.11.25s-.04.18-.1.25c-.07.06-.16.1-.25.1Z"/>
          <path class="cls-18" d="m31.75,11.85c-.09,0-.18-.04-.25-.1-.06-.07-.1-.16-.1-.25s.04-.18.1-.25c.14-.13.36-.13.5,0,.06.07.1.16.1.25s-.04.18-.1.25c-.07.06-.16.1-.25.1Z"/>
          <path class="cls-18" d="m32.25,7.1c-.09,0-.18-.04-.25-.1-.06-.07-.1-.16-.1-.25s.04-.18.1-.25c.14-.13.36-.13.49,0,.07.07.11.16.11.25s-.04.18-.1.25c-.07.06-.16.1-.25.1Z"/>
          <path class="cls-18" d="m32,3.1c-.09,0-.18-.04-.25-.1-.06-.07-.1-.16-.1-.25,0-.1.04-.19.11-.25.12-.13.35-.13.49,0,.06.06.1.15.1.25,0,.09-.04.18-.1.25-.07.06-.16.1-.25.1Z"/>
          <path class="cls-18" d="m34,1.35c-.09,0-.18-.04-.25-.11-.06-.05-.1-.15-.1-.24,0-.1.04-.19.11-.25.12-.13.36-.13.49,0,.06.06.1.15.1.25,0,.09-.04.19-.11.25-.06.06-.15.1-.24.1Z"/>
          <path class="cls-18" d="m41.5,7.1c-.09,0-.18-.04-.25-.1-.07-.07-.1-.16-.1-.25s.04-.18.1-.25c.15-.14.36-.13.49,0,.07.07.11.16.11.25s-.04.18-.1.25c-.07.06-.16.1-.25.1Z"/>
          <path class="cls-18" d="m45.5,6.85c-.09,0-.18-.04-.25-.1-.06-.07-.1-.15-.1-.25s.04-.18.1-.25c.14-.13.36-.13.49,0,.07.07.11.16.11.25s-.04.18-.1.25c-.07.06-.16.1-.25.1Z"/>
          <path class="cls-18" d="m42.5,13.6c-.09,0-.18-.04-.25-.1-.06-.07-.1-.16-.1-.25,0-.1.04-.19.11-.25.12-.13.35-.13.49,0,.06.06.1.15.1.25,0,.09-.04.18-.1.25-.07.06-.16.1-.25.1Z"/>
          <path class="cls-18" d="m47,14.35c-.09,0-.18-.04-.25-.1-.06-.07-.1-.16-.1-.25,0-.1.04-.19.11-.25.12-.13.35-.13.49,0,.06.07.1.16.1.25s-.03.17-.1.24c-.07.07-.16.11-.25.11Z"/>
          <path class="cls-18" d="m47,16.35c-.09,0-.18-.04-.25-.1-.06-.07-.1-.16-.1-.25,0-.1.04-.19.11-.25.12-.13.36-.13.49,0,.06.07.1.16.1.25s-.04.17-.1.24c-.07.07-.16.11-.25.11Z"/>
          <path class="cls-18" d="m39,20.85c-.09,0-.18-.04-.25-.1-.06-.07-.1-.16-.1-.25s.04-.18.1-.25c.14-.13.36-.13.49,0,.07.06.11.16.11.25s-.04.18-.1.25c-.07.06-.16.1-.25.1Z"/>
          <path class="cls-18" d="m50.25,13.6c-.09,0-.18-.04-.25-.1-.07-.07-.1-.16-.1-.25s.03-.18.1-.25c.14-.13.37-.13.5,0,.06.07.1.16.1.25s-.04.18-.1.25c-.07.06-.16.1-.25.1Z"/>
          <path class="cls-18" d="m52.25,12.1c-.09,0-.18-.04-.25-.11-.06-.06-.1-.15-.1-.24,0-.1.04-.19.11-.25.12-.12.35-.13.49,0,.06.06.1.15.1.25,0,.09-.04.18-.1.25-.07.06-.16.1-.25.1Z"/>
          <path class="cls-18" d="m54.75,11.1c-.09,0-.18-.04-.25-.11-.06-.06-.1-.15-.1-.24,0-.1.04-.19.11-.25.12-.13.35-.13.49,0,.06.06.1.15.1.25,0,.09-.04.18-.1.25-.07.06-.16.1-.25.1Z"/>
          <path class="cls-18" d="m56.5.85c-.09,0-.18-.04-.25-.1-.06-.07-.1-.16-.1-.25s.04-.18.1-.25c.12-.13.37-.13.5,0,.06.06.1.15.1.24s-.04.18-.1.25c-.07.06-.16.1-.25.1Z"/>
          <path class="cls-18" d="m68,3.1c-.09,0-.18-.04-.25-.1-.06-.07-.1-.16-.1-.25,0-.1.04-.19.11-.25.11-.12.35-.13.49,0,.06.06.1.15.1.25,0,.09-.04.18-.1.25-.07.06-.15.1-.25.1Z"/>
          <path class="cls-18" d="m68,10.35c-.09,0-.18-.04-.25-.11-.06-.06-.1-.15-.1-.24s.04-.18.1-.25c.13-.13.36-.13.5,0,.06.07.1.16.1.25,0,.1-.04.18-.11.25-.06.06-.15.1-.24.1Z"/>
          <path class="cls-18" d="m64.25,12.35c-.09,0-.18-.04-.25-.1-.06-.07-.1-.16-.1-.25s.04-.18.1-.25c.13-.13.36-.13.49,0,.07.07.11.16.11.25s-.04.18-.1.25c-.07.06-.16.1-.25.1Z"/>
          <path class="cls-18" d="m65.25,15.85c-.09,0-.18-.04-.25-.1-.06-.07-.1-.16-.1-.25,0-.1.04-.18.1-.25.12-.12.37-.13.5,0,.06.07.1.16.1.25s-.04.18-.1.25c-.07.06-.16.1-.25.1Z"/>
          <path class="cls-18" d="m64,19.85c-.09,0-.18-.04-.25-.11-.06-.06-.1-.15-.1-.24s.04-.18.1-.25c.13-.13.37-.13.5,0,.06.07.1.16.1.25,0,.1-.04.18-.11.25-.06.06-.15.1-.24.1Z"/>
          <path class="cls-18" d="m66.25,19.85c-.09,0-.18-.04-.25-.1-.06-.07-.1-.16-.1-.25,0-.1.04-.19.11-.25.11-.12.35-.13.49,0,.06.06.1.15.1.25,0,.09-.04.18-.1.25-.07.06-.16.1-.25.1Z"/>
          <path class="cls-18" d="m68,21.35c-.09,0-.18-.04-.25-.1-.06-.07-.1-.16-.1-.25s.04-.18.1-.25c.13-.13.36-.13.5,0,.06.07.1.16.1.25s-.04.18-.1.25c-.07.06-.16.1-.25.1Z"/>
          <path class="cls-18" d="m7,52.35c-.09,0-.18-.04-.25-.1-.06-.07-.1-.16-.1-.25s.04-.18.1-.25c.12-.12.36-.13.5,0,.06.07.1.16.1.25s-.04.18-.1.25c-.07.06-.16.1-.25.1Z"/>
          <path class="cls-18" d="m7.25,54.6c-.09,0-.18-.04-.25-.1-.06-.07-.1-.16-.1-.25s.04-.18.1-.25c.12-.13.36-.13.5,0,.06.07.1.16.1.25s-.04.18-.1.25c-.07.06-.16.1-.25.1Z"/>
          <path class="cls-18" d="m2.25,54.6c-.09,0-.18-.04-.25-.1-.06-.07-.1-.16-.1-.25s.04-.18.1-.25c.12-.12.36-.13.5,0,.06.07.1.16.1.25s-.04.18-.1.25c-.07.06-.16.1-.25.1Z"/>
          <path class="cls-18" d="m9.75,64.1c-.09,0-.18-.04-.25-.1-.06-.07-.1-.16-.1-.25s.04-.18.1-.25c.13-.13.36-.13.49,0,.07.07.11.16.11.25s-.04.18-.1.25c-.07.06-.16.1-.25.1Z"/>
          <path class="cls-18" d="m1,68.1c-.09,0-.18-.04-.25-.1-.06-.07-.1-.16-.1-.25s.04-.18.1-.25c.12-.12.36-.13.5,0,.06.07.1.16.1.25s-.04.18-.1.25c-.07.06-.16.1-.25.1Z"/>
          <path class="cls-18" d="m11,71.1c-.09,0-.18-.04-.25-.1-.06-.07-.1-.16-.1-.25s.04-.18.1-.25c.12-.12.37-.13.5,0,.06.07.1.16.1.25s-.04.18-.1.25c-.07.06-.16.1-.25.1Z"/>
          <path class="cls-18" d="m18.25,67.35c-.09,0-.18-.04-.25-.1-.06-.07-.1-.16-.1-.25s.04-.19.1-.25c.12-.12.36-.13.49,0,.07.07.11.16.11.25s-.04.18-.1.25c-.07.06-.16.1-.25.1Z"/>
          <path class="cls-18" d="m16.25,62.35c-.09,0-.18-.04-.25-.1-.06-.07-.1-.16-.1-.25s.04-.18.1-.25c.12-.13.36-.13.5,0,.06.07.1.16.1.25s-.04.18-.1.25c-.07.06-.16.1-.25.1Z"/>
          <path class="cls-18" d="m19.5,57.85c-.09,0-.18-.04-.25-.1-.06-.07-.1-.16-.1-.25,0-.1.04-.19.11-.25.12-.12.36-.13.49,0,.06.06.1.15.1.25,0,.09-.04.18-.1.25-.07.06-.16.1-.25.1Z"/>
          <path class="cls-18" d="m18.75,55.85c-.09,0-.18-.04-.25-.1-.06-.07-.1-.16-.1-.25,0-.1.04-.19.11-.25.11-.12.35-.13.49,0,.06.06.1.15.1.25,0,.09-.04.18-.1.25-.07.06-.16.1-.25.1Z"/>
          <path class="cls-18" d="m16.25,54.85c-.09,0-.18-.04-.25-.1-.06-.07-.1-.16-.1-.25,0-.1.04-.19.11-.25.11-.12.35-.13.49,0,.06.06.1.15.1.25,0,.09-.04.18-.1.25-.07.06-.16.1-.25.1Z"/>
          <path class="cls-18" d="m19.25,51.1c-.09,0-.18-.04-.25-.1-.06-.07-.1-.16-.1-.25,0-.1.04-.19.11-.25.12-.12.36-.13.49,0,.06.06.1.15.1.25,0,.09-.04.18-.1.25-.07.06-.16.1-.25.1Z"/>
          <path class="cls-18" d="m19,47.1c-.09,0-.18-.04-.25-.1-.06-.07-.1-.16-.1-.25s.04-.18.1-.25c.12-.12.36-.13.5,0,.06.07.1.16.1.25s-.04.18-.1.25c-.07.06-.16.1-.25.1Z"/>
          <path class="cls-18" d="m16.25,47.35c-.09,0-.18-.04-.25-.1-.06-.07-.1-.16-.1-.25s.04-.18.1-.25c.12-.13.36-.13.5,0,.06.07.1.16.1.25s-.04.18-.1.25c-.07.06-.16.1-.25.1Z"/>
          <path class="cls-18" d="m32.5,50.85c-.09,0-.18-.04-.25-.1-.06-.07-.1-.16-.1-.25,0-.1.04-.19.11-.25.12-.13.35-.13.49,0,.06.06.1.15.1.25,0,.09-.04.18-.1.25-.07.06-.16.1-.25.1Z"/>
          <path class="cls-18" d="m27.25,54.35c-.09,0-.18-.04-.25-.1-.06-.07-.1-.16-.1-.25s.04-.18.1-.25c.13-.13.36-.13.5,0,.06.07.1.16.1.25s-.04.18-.1.25c-.07.06-.16.1-.25.1Z"/>
          <path class="cls-18" d="m32,55.85c-.09,0-.18-.04-.25-.1-.06-.07-.1-.16-.1-.25s.04-.18.1-.25c.13-.13.36-.13.5,0,.06.07.1.16.1.25s-.04.18-.1.25c-.07.06-.16.1-.25.1Z"/>
          <path class="cls-18" d="m32,57.6c-.09,0-.18-.04-.24-.1-.07-.07-.11-.16-.11-.25,0-.1.04-.19.1-.25.13-.13.36-.13.5,0,.06.06.1.15.1.25,0,.09-.04.18-.1.25-.07.06-.16.1-.25.1Z"/>
          <path class="cls-18" d="m34,58.35c-.09,0-.18-.04-.25-.1-.06-.07-.1-.16-.1-.25s.04-.18.1-.25c.13-.13.37-.13.5,0,.06.07.1.16.1.25s-.04.18-.1.25c-.07.06-.16.1-.25.1Z"/>
          <path class="cls-18" d="m26,64.85c-.09,0-.18-.04-.25-.1-.06-.07-.1-.16-.1-.25s.04-.18.1-.25c.14-.13.36-.13.49,0,.07.07.11.16.11.25s-.04.18-.1.25c-.07.06-.16.1-.25.1Z"/>
          <path class="cls-18" d="m36,56.35c-.09,0-.18-.04-.25-.1-.06-.07-.1-.16-.1-.25s.04-.18.1-.25c.15-.13.36-.13.49,0,.07.07.11.16.11.25s-.04.18-.1.25c-.07.06-.16.1-.25.1Z"/>
          <path class="cls-18" d="m39.25,56.1c-.09,0-.18-.04-.24-.1-.07-.07-.11-.16-.11-.25s.04-.18.1-.25c.14-.13.36-.13.5,0,.06.07.1.16.1.25s-.04.18-.1.25c-.07.06-.16.1-.25.1Z"/>
          <path class="cls-18" d="m41.75,50.85c-.09,0-.18-.04-.25-.1-.06-.07-.1-.16-.1-.25s.04-.18.1-.25c.14-.13.36-.13.5,0,.06.07.1.16.1.25s-.04.18-.1.25c-.07.06-.16.1-.25.1Z"/>
          <path class="cls-18" d="m43.5,44.85c-.09,0-.18-.04-.25-.11-.06-.06-.1-.15-.1-.24s.04-.18.1-.25c.13-.13.36-.13.5,0,.06.07.1.16.1.25s-.04.18-.1.25c-.07.06-.16.1-.25.1Z"/>
          <path class="cls-18" d="m51,50.6c-.09,0-.18-.04-.25-.1-.07-.08-.1-.16-.1-.25s.04-.18.1-.25c.14-.14.36-.13.5,0,.06.07.1.16.1.25s-.04.18-.1.25c-.07.06-.16.1-.25.1Z"/>
          <path class="cls-18" d="m52,46.6c-.09,0-.18-.04-.25-.11-.06-.06-.1-.15-.1-.24,0-.1.04-.19.11-.25.11-.12.35-.13.49,0,.06.06.1.15.1.25,0,.09-.04.18-.1.25-.07.06-.16.1-.25.1Z"/>
          <path class="cls-18" d="m55,47.1c-.1,0-.19-.04-.25-.11-.06-.06-.1-.15-.1-.24s.04-.19.1-.25c.13-.13.36-.13.49,0,.07.07.11.15.11.25,0,.09-.04.18-.1.25-.07.06-.16.1-.25.1Z"/>
          <path class="cls-18" d="m55,54.35c-.1,0-.19-.04-.25-.11-.06-.06-.1-.15-.1-.24,0-.1.04-.19.11-.25.11-.12.35-.13.49,0,.06.06.1.15.1.25,0,.09-.04.18-.1.25-.07.06-.16.1-.25.1Z"/>
          <path class="cls-18" d="m51.25,56.35c-.09,0-.18-.04-.25-.1-.06-.07-.1-.16-.1-.25s.04-.18.1-.25c.13-.13.37-.13.5,0,.07.07.1.16.1.25s-.04.18-.1.25c-.07.06-.15.1-.25.1Z"/>
          <path class="cls-18" d="m51,63.85c-.09,0-.18-.04-.25-.1-.06-.07-.1-.16-.1-.25s.03-.18.1-.24c.15-.15.36-.14.49,0,.07.07.11.16.11.25s-.04.18-.1.25c-.07.06-.15.1-.25.1Z"/>
          <path class="cls-18" d="m53.25,63.85c-.09,0-.18-.04-.25-.1-.06-.07-.1-.16-.1-.25,0-.1.04-.19.11-.25.11-.12.36-.13.49,0,.06.05.1.14.1.24,0,.09-.04.18-.1.25-.07.06-.16.1-.25.1Z"/>
          <path class="cls-18" d="m56,63.1c-.09,0-.18-.04-.25-.1-.06-.07-.1-.16-.1-.25s.04-.18.1-.25c.13-.13.35-.13.49,0,.07.07.11.16.11.25s-.04.18-.1.25c-.07.06-.16.1-.25.1Z"/>
          <path class="cls-18" d="m58.25,61.6c-.09,0-.18-.04-.25-.11-.06-.06-.1-.15-.1-.24s.04-.18.1-.25c.13-.13.36-.13.5,0,.06.07.1.15.1.25,0,.09-.04.18-.1.25-.07.06-.16.1-.25.1Z"/>
          <path class="cls-18" d="m21,27.1c-.09,0-.18-.04-.25-.1-.06-.07-.1-.16-.1-.25s.04-.18.1-.25c.14-.13.36-.13.49,0,.07.07.11.16.11.25s-.04.18-.1.25c-.07.06-.16.1-.25.1Z"/>
          <path class="cls-18" d="m22.75,24.1c-.09,0-.18-.04-.25-.1-.06-.07-.1-.16-.1-.25s.04-.18.1-.25c.14-.13.36-.13.5,0,.06.07.1.16.1.25s-.04.18-.1.25c-.07.06-.16.1-.25.1Z"/>
          <path class="cls-18" d="m39,24.85c-.09,0-.18-.04-.25-.1-.06-.07-.1-.16-.1-.25s.04-.18.1-.25c.13-.13.37-.13.5,0,.06.07.1.16.1.25s-.04.18-.1.25c-.07.06-.16.1-.25.1Z"/>
          <path class="cls-18" d="m46.25,29.1c-.09,0-.18-.04-.25-.1-.07-.07-.1-.16-.1-.25s.04-.18.1-.24c.15-.15.36-.14.49,0,.07.07.11.16.11.25s-.04.18-.1.25c-.07.06-.16.1-.25.1Z"/>
          <path class="cls-18" d="m55.25,28.1c-.09,0-.18-.04-.25-.1-.06-.07-.1-.16-.1-.25s.04-.18.1-.25c.12-.12.36-.14.5,0,.06.07.1.16.1.25s-.04.18-.1.25c-.07.06-.16.1-.25.1Z"/>
          <path class="cls-18" d="m51.25,25.35c-.09,0-.18-.04-.25-.1-.06-.07-.1-.16-.1-.25s.04-.18.1-.25c.13-.13.37-.13.5,0,.07.07.1.16.1.25s-.04.18-.1.25c-.07.06-.16.1-.25.1Z"/>
          <path class="cls-18" d="m52,29.6c-.1,0-.18-.04-.25-.1-.06-.07-.1-.16-.1-.25s.04-.18.1-.25c.14-.13.36-.13.49,0,.07.07.11.16.11.25s-.04.18-.1.25c-.07.06-.16.1-.25.1Z"/>
          <path class="cls-18" d="m62.5,35.6c-.09,0-.18-.04-.25-.1-.06-.07-.1-.16-.1-.25,0-.1.04-.19.11-.25.11-.12.36-.13.49,0,.06.05.1.14.1.24,0,.09-.04.18-.1.25-.07.06-.16.1-.25.1Z"/>
          <path class="cls-18" d="m56.75,39.1c-.09,0-.18-.04-.25-.1-.06-.07-.1-.16-.1-.25s.04-.18.1-.25c.13-.13.36-.13.49,0,.07.07.11.16.11.25s-.04.18-.1.25c-.07.06-.16.1-.25.1Z"/>
          <path class="cls-18" d="m48.25,37.35c-.09,0-.18-.04-.24-.1-.07-.07-.11-.16-.11-.25s.04-.18.1-.25c.12-.13.37-.13.5,0,.06.06.1.14.1.24,0,.09-.04.18-.1.25-.07.06-.16.1-.25.1Z"/>
          <path class="cls-18" d="m48,41.35c-.1,0-.19-.04-.25-.11-.06-.06-.1-.15-.1-.24s.04-.18.1-.25c.12-.12.36-.13.5,0,.06.07.1.16.1.25s-.04.18-.1.25c-.07.06-.16.1-.25.1Z"/>
          <path class="cls-18" d="m53.5,45.1c-.09,0-.19-.04-.25-.11-.06-.05-.1-.14-.1-.24s.04-.18.11-.25c.11-.12.35-.13.49,0,.06.07.1.16.1.25s-.04.18-.1.25c-.07.06-.16.1-.25.1Z"/>
          <path class="cls-18" d="m62.25,48.1c-.09,0-.18-.04-.25-.1-.06-.07-.1-.16-.1-.25,0-.1.04-.19.11-.25.11-.12.36-.13.49,0,.06.05.1.14.1.24,0,.09-.04.18-.1.25-.07.06-.16.1-.25.1Z"/>
          <path class="cls-18" d="m65,51.85c-.09,0-.18-.04-.25-.1-.06-.07-.1-.16-.1-.25,0-.1.04-.19.11-.25.11-.12.35-.13.49,0,.06.06.1.15.1.25,0,.09-.04.18-.1.25-.07.06-.16.1-.25.1Z"/>
          <path class="cls-18" d="m69.5,45.1c-.09,0-.18-.04-.25-.1-.06-.07-.1-.16-.1-.25s.04-.18.1-.25c.12-.13.36-.13.5,0,.06.07.1.16.1.25s-.04.18-.1.25c-.07.06-.16.1-.25.1Z"/>
          <path class="cls-18" d="m60,39.1c-.1,0-.19-.04-.25-.11-.06-.06-.1-.15-.1-.24s.04-.19.11-.25c.12-.13.35-.13.49,0,.06.07.1.16.1.25s-.04.18-.1.25c-.07.06-.15.1-.25.1Z"/>
          <path class="cls-18" d="m32.5,47.1c-.09,0-.18-.04-.25-.1-.06-.07-.1-.16-.1-.25s.04-.18.1-.25c.14-.13.36-.13.49,0,.07.07.11.16.11.25s-.04.18-.1.25c-.07.06-.16.1-.25.1Z"/>
          <path class="cls-18" d="m26.25,37.85c-.09,0-.18-.04-.25-.1-.06-.07-.1-.16-.1-.25s.04-.18.1-.25c.14-.13.36-.13.49,0,.07.07.11.16.11.25s-.04.18-.1.25c-.07.06-.16.1-.25.1Z"/>
          <path class="cls-18" d="m29.75,35.6c-.09,0-.18-.04-.24-.1-.07-.07-.11-.16-.11-.25,0-.1.04-.19.11-.25.12-.12.36-.13.49,0,.06.06.1.15.1.25,0,.09-.04.18-.1.25-.07.06-.16.1-.25.1Z"/>
          <path class="cls-18" d="m10.5,29.6c-.09,0-.18-.04-.25-.1-.06-.07-.1-.16-.1-.25s.04-.18.1-.25c.13-.12.36-.13.49,0,.07.06.11.15.11.25,0,.09-.04.18-.1.25-.07.06-.16.1-.25.1Z"/>
          <path class="cls-18" d="m6,31.6c-.09,0-.18-.04-.25-.1-.06-.07-.1-.16-.1-.25s.04-.18.1-.25c.13-.13.36-.13.49,0,.07.06.11.15.11.25s-.04.18-.1.25c-.07.06-.16.1-.25.1Z"/>
          <path class="cls-18" d="m2.5,35.35c-.09,0-.18-.04-.25-.1-.06-.07-.1-.16-.1-.25s.04-.18.1-.25c.12-.13.37-.13.5,0,.07.07.1.16.1.25s-.03.17-.1.24c-.07.07-.16.11-.25.11Z"/>
          <path class="cls-18" d="m17,42.1c-.09,0-.18-.04-.25-.1-.06-.07-.1-.16-.1-.25,0-.1.04-.19.11-.25.13-.13.36-.13.49,0,.06.06.1.15.1.25,0,.09-.04.18-.1.25-.07.06-.15.1-.25.1Z"/>
          <path class="cls-18" d="m12.75,36.1c-.09,0-.18-.04-.25-.1-.06-.07-.1-.16-.1-.25,0-.1.04-.19.11-.25.11-.12.35-.13.49,0,.06.06.1.15.1.25,0,.09-.04.18-.1.25-.07.06-.15.1-.25.1Z"/>
          <path class="cls-18" d="m26.5,30.35c-.09,0-.18-.04-.25-.1-.06-.07-.1-.16-.1-.25s.04-.18.1-.25c.13-.13.37-.13.5,0,.06.07.1.16.1.25s-.04.18-.1.25c-.07.06-.16.1-.25.1Z"/>
          <path class="cls-18" d="m39.25,30.85c-.09,0-.18-.04-.25-.1-.06-.07-.1-.16-.1-.25s.04-.18.1-.25c.13-.13.36-.13.5,0,.06.07.1.16.1.25s-.04.18-.1.25c-.07.06-.15.1-.25.1Z"/>
          <path class="cls-18" d="m38.25,32.85c-.09,0-.18-.04-.25-.1-.06-.07-.1-.16-.1-.25s.04-.18.1-.25c.13-.13.37-.13.5,0,.06.07.1.16.1.25s-.04.18-.1.25c-.07.06-.16.1-.25.1Z"/>
          <path class="cls-18" d="m28,42.1c-.09,0-.18-.04-.25-.1-.06-.07-.1-.16-.1-.25s.04-.18.1-.25c.13-.13.37-.13.5,0,.06.07.1.16.1.25s-.04.18-.1.25c-.07.06-.16.1-.25.1Z"/>
          <path class="cls-18" d="m6.5,20.6c-.09,0-.18-.04-.25-.1-.06-.07-.1-.16-.1-.25s.04-.18.1-.25c.12-.13.36-.13.5,0,.06.07.1.16.1.25s-.04.18-.1.25c-.07.06-.16.1-.25.1Z"/>
          <path class="cls-18" d="m9.75,18.85c-.09,0-.18-.04-.25-.1-.06-.07-.1-.16-.1-.25s.04-.18.1-.25c.13-.13.36-.13.49,0,.07.07.11.16.11.25s-.04.18-.1.25c-.07.06-.16.1-.25.1Z"/>
          <path class="cls-18" d="m11.75,23.6c-.09,0-.18-.04-.25-.1-.06-.07-.1-.16-.1-.25,0-.1.04-.19.11-.25.11-.12.35-.13.49,0,.06.06.1.15.1.25,0,.09-.04.18-.1.25-.07.06-.15.1-.25.1Z"/>
          <path class="cls-18" d="m3,25.85c-.09,0-.18-.04-.25-.1-.06-.07-.1-.16-.1-.25s.04-.18.1-.25c.12-.12.37-.13.5,0,.06.07.1.16.1.25s-.04.18-.1.25c-.07.06-.16.1-.25.1Z"/>
          <path class="cls-18" d="m64.25,29.6c-.09,0-.18-.04-.24-.1-.07-.07-.11-.16-.11-.25s.04-.18.1-.25c.13-.13.36-.13.49,0,.07.07.11.16.11.25s-.04.18-.1.25c-.07.06-.16.1-.25.1Z"/>
          <path class="cls-18" d="m69.5,29.85c-.09,0-.18-.04-.25-.1-.06-.07-.1-.16-.1-.25s.04-.19.11-.25c.11-.12.35-.13.49,0,.06.06.1.15.1.25,0,.09-.04.18-.1.25-.07.06-.15.1-.25.1Z"/>
          <path class="cls-18" d="m1.5,9.1c-.09,0-.18-.04-.25-.1-.06-.07-.1-.16-.1-.25s.04-.18.1-.25c.12-.12.37-.13.5,0,.06.07.1.16.1.25s-.04.18-.1.25c-.07.06-.16.1-.25.1Z"/>
          <path class="cls-18" d="m16.5,6.1c-.09,0-.18-.04-.25-.1-.06-.07-.1-.16-.1-.25,0-.1.04-.18.1-.25.12-.12.36-.13.5,0,.06.07.1.16.1.25s-.04.18-.1.25c-.07.06-.16.1-.25.1Z"/>
          <path class="cls-18" d="m3.75,6.1c-.09,0-.18-.04-.25-.1-.06-.07-.1-.16-.1-.25s.04-.18.1-.25c.13-.13.36-.13.49,0,.07.07.11.16.11.25s-.04.18-.1.25c-.07.06-.16.1-.25.1Z"/>
          <path class="cls-18" d="m12.75,14.35c-.09,0-.18-.04-.25-.1-.06-.07-.1-.16-.1-.25s.04-.18.1-.25c.13-.13.36-.13.49,0,.07.07.11.16.11.25s-.04.18-.1.25c-.07.06-.16.1-.25.1Z"/>
          <path class="cls-18" d="m18.5,19.35c-.09,0-.18-.04-.25-.1-.06-.07-.1-.16-.1-.25s.04-.19.1-.25c.13-.13.36-.13.49,0,.07.07.11.16.11.25s-.04.18-.1.25c-.07.06-.16.1-.25.1Z"/>
          <path class="cls-18" d="m21.25,37.1c-.09,0-.18-.04-.25-.1-.06-.07-.1-.16-.1-.25s.04-.19.1-.25c.12-.12.36-.13.49,0,.07.07.11.16.11.25s-.04.18-.1.25c-.07.06-.16.1-.25.1Z"/>
          <path class="cls-18" d="m.75,44.35c-.09,0-.18-.04-.25-.1-.06-.07-.1-.16-.1-.25,0-.1.04-.19.11-.25.11-.12.35-.13.49,0,.06.06.1.15.1.25,0,.09-.04.18-.1.25-.07.06-.16.1-.25.1Z"/>
          <path class="cls-18" d="m68,66.1c-.09,0-.18-.04-.25-.1-.06-.07-.1-.16-.1-.25,0-.1.04-.19.11-.25.11-.12.35-.13.49,0,.06.06.1.15.1.25,0,.09-.04.18-.1.25-.07.06-.16.1-.25.1Z"/>
          <path class="cls-18" d="m59.75,69.85c-.09,0-.18-.04-.25-.1-.07-.07-.1-.16-.1-.25s.04-.18.1-.25c.14-.13.36-.13.5,0,.06.06.1.15.1.25s-.04.18-.1.25c-.07.06-.16.1-.25.1Z"/>
          <path class="cls-18" d="m40.5,68.1c-.09,0-.18-.04-.25-.1-.06-.07-.1-.16-.1-.25s.04-.18.1-.25c.13-.13.37-.13.5,0,.06.07.1.16.1.25s-.04.18-.1.25c-.07.06-.15.1-.25.1Z"/>
          <path class="cls-18" d="m4.5,60.1c-.09,0-.18-.04-.25-.1-.06-.07-.1-.16-.1-.25s.04-.18.1-.25c.13-.13.36-.13.49,0,.07.07.11.16.11.25s-.04.18-.1.25c-.07.06-.16.1-.25.1Z"/>
          <path class="cls-18" d="m26.5,59.6c-.09,0-.18-.04-.25-.1-.06-.07-.1-.16-.1-.25s.04-.18.1-.25c.14-.13.36-.13.49,0,.07.07.11.16.11.25s-.04.18-.1.25c-.07.06-.16.1-.25.1Z"/>
          <path class="cls-18" d="m37.25,48.6c-.09,0-.18-.04-.25-.1-.06-.07-.1-.16-.1-.25,0-.1.04-.18.1-.25.14-.13.36-.13.5,0,.06.07.1.16.1.25s-.04.18-.1.25c-.07.06-.15.1-.25.1Z"/>
          <path class="cls-18" d="m8.75,40.35c-.09,0-.18-.04-.25-.1-.06-.07-.1-.16-.1-.25s.04-.18.1-.25c.13-.13.35-.13.49,0,.07.07.11.16.11.25s-.04.18-.1.25c-.07.06-.16.1-.25.1Z"/>
          <path class="cls-18" d="m52.25,38.1c-.09,0-.18-.04-.25-.11-.06-.06-.1-.15-.1-.24,0-.1.04-.19.11-.25.11-.12.35-.13.49,0,.06.06.1.15.1.25,0,.09-.04.18-.1.25-.07.06-.16.1-.25.1Z"/>
          <path class="cls-18" d="m60.75,46.1c-.09,0-.18-.04-.25-.1-.06-.07-.1-.16-.1-.25,0-.1.04-.19.11-.25.11-.12.35-.13.49,0,.06.06.1.15.1.25,0,.09-.04.18-.1.25-.07.06-.16.1-.25.1Z"/>
          <path class="cls-18" d="m51.25,66.35c-.09,0-.18-.04-.25-.1-.06-.07-.1-.16-.1-.25s.04-.18.1-.25c.14-.13.36-.13.5,0,.06.07.1.16.1.25s-.03.18-.1.25c-.07.06-.16.1-.25.1Z"/>
          <path class="cls-18" d="m40,37.85c-.09,0-.18-.04-.25-.1-.06-.07-.1-.16-.1-.25s.04-.18.1-.25c.15-.13.36-.13.49,0,.07.07.11.16.11.25s-.04.18-.1.25c-.07.06-.16.1-.25.1Z"/>
          <path class="cls-18" d="m27.5,13.6c-.09,0-.18-.04-.25-.1-.06-.07-.1-.16-.1-.25s.04-.18.1-.25c.14-.13.36-.13.49,0,.07.07.11.16.11.25s-.04.18-.1.25c-.07.06-.16.1-.25.1Z"/>
          <path class="cls-18" d="m19.75,26.6c-.09,0-.18-.04-.25-.1-.06-.07-.1-.16-.1-.25s.04-.19.1-.25c.12-.12.36-.13.49,0,.07.07.11.16.11.25s-.04.18-.1.25c-.07.06-.16.1-.25.1Z"/>
          <path class="cls-18" d="m11.75,1.85c-.09,0-.18-.04-.25-.1-.06-.07-.1-.16-.1-.25s.04-.18.1-.25c.12-.12.36-.13.5,0,.06.07.1.16.1.25s-.04.18-.1.25c-.07.06-.16.1-.25.1Z"/>
          <path class="cls-18" d="m55.25,3.85c-.09,0-.18-.04-.25-.1-.06-.07-.1-.16-.1-.25,0-.1.04-.19.11-.25.11-.12.35-.13.49,0,.06.06.1.15.1.25,0,.09-.04.18-.1.25-.07.06-.16.1-.25.1Z"/>
          <path class="cls-18" d="m47.25,69.85c-.09,0-.18-.04-.25-.1-.06-.07-.1-.15-.1-.25,0-.09.04-.18.1-.25.14-.13.36-.13.49,0,.07.07.11.16.11.25s-.04.18-.1.25c-.07.06-.16.1-.25.1Z"/>
          <path class="cls-18" d="m4.75,40.35c-.09,0-.18-.04-.25-.1-.06-.07-.1-.16-.1-.25,0-.1.04-.19.11-.25.11-.12.35-.13.49,0,.06.06.1.15.1.25,0,.09-.04.18-.1.25-.07.06-.16.1-.25.1Z"/>
          <path class="cls-18" d="m68.75,13.35c-.09,0-.18-.04-.25-.1-.06-.07-.1-.16-.1-.25s.04-.18.1-.25c.13-.13.36-.13.5,0,.06.07.1.15.1.25s-.04.18-.1.25c-.07.06-.16.1-.25.1Z"/>
          <path class="cls-18" d="m23.25,14.1c-.09,0-.18-.04-.25-.1-.06-.07-.1-.16-.1-.25s.04-.18.1-.25c.14-.13.36-.13.49,0,.07.07.11.16.11.25s-.04.18-.1.25c-.07.06-.16.1-.25.1Z"/>
          <path class="cls-18" d="m20.5,17.35c-.09,0-.18-.04-.25-.1-.06-.07-.1-.16-.1-.25s.04-.18.1-.25c.14-.13.36-.13.5,0,.06.07.1.16.1.25s-.04.18-.1.25c-.07.06-.16.1-.25.1Z"/>
          <path class="cls-18" d="m14.75,17.35c-.09,0-.18-.04-.25-.1-.06-.07-.1-.16-.1-.25,0-.1.04-.19.11-.25.11-.12.35-.13.49,0,.06.06.1.15.1.25,0,.09-.04.18-.1.25-.07.06-.16.1-.25.1Z"/>
          <path class="cls-18" d="m6,11.85c-.09,0-.18-.04-.25-.1-.06-.07-.1-.16-.1-.25s.04-.18.1-.25c.13-.13.36-.13.49,0,.07.06.11.15.11.25,0,.09-.04.18-.1.25-.07.06-.16.1-.25.1Z"/>
          <path class="cls-18" d="m7,2.85c-.09,0-.17-.04-.24-.1-.07-.07-.11-.16-.11-.25s.04-.18.1-.25c.13-.13.36-.13.49,0,.07.07.11.16.11.25s-.04.18-.1.25c-.07.06-.16.1-.25.1Z"/>
          <path class="cls-18" d="m10,8.35c-.09,0-.18-.04-.25-.1-.06-.07-.1-.16-.1-.25s.04-.18.1-.25c.13-.13.36-.13.49,0,.07.07.11.16.11.25s-.04.18-.1.25c-.07.06-.16.1-.25.1Z"/>
          <path class="cls-18" d="m14.25,8.35c-.09,0-.18-.04-.25-.1-.06-.07-.1-.16-.1-.25,0-.1.04-.19.11-.25.11-.12.35-.13.49,0,.06.06.1.15.1.25,0,.09-.04.18-.1.25-.07.06-.16.1-.25.1Z"/>
          <path class="cls-18" d="m25.75,7.1c-.09,0-.18-.04-.25-.1-.06-.07-.1-.16-.1-.25s.04-.18.1-.25c.14-.13.36-.13.49,0,.07.07.11.16.11.25s-.04.18-.1.25c-.07.06-.16.1-.25.1Z"/>
          <path class="cls-18" d="m37,7.6c-.09,0-.18-.04-.25-.1-.06-.07-.1-.16-.1-.25s.04-.18.1-.25c.13-.13.36-.13.5,0,.06.07.1.16.1.25s-.04.18-.1.25c-.07.06-.16.1-.25.1Z"/>
          <path class="cls-18" d="m37.5,4.35c-.09,0-.18-.04-.25-.1-.06-.07-.1-.16-.1-.25,0-.1.04-.19.11-.25.12-.13.36-.13.49,0,.06.06.1.15.1.25,0,.09-.04.18-.1.25-.07.06-.16.1-.25.1Z"/>
          <path class="cls-18" d="m43.25,2.35c-.09,0-.18-.04-.25-.1-.06-.07-.1-.16-.1-.25s.04-.18.1-.25c.13-.13.36-.13.5,0,.06.07.1.16.1.25s-.04.18-.1.25c-.08.06-.16.1-.25.1Z"/>
          <path class="cls-18" d="m49.5,8.35c-.09,0-.18-.04-.25-.1-.07-.07-.1-.16-.1-.25s.03-.18.1-.25c.14-.13.37-.13.5,0,.06.07.1.16.1.25s-.04.18-.1.25c-.07.06-.16.1-.25.1Z"/>
          <path class="cls-18" d="m46,9.35c-.09,0-.18-.04-.25-.1-.06-.07-.1-.16-.1-.25s.04-.18.1-.25c.14-.13.36-.13.5,0,.06.07.1.16.1.25s-.04.18-.1.25c-.07.06-.15.1-.25.1Z"/>
          <path class="cls-18" d="m35.75,11.1c-.09,0-.18-.04-.25-.1-.06-.07-.1-.16-.1-.25,0-.1.04-.18.1-.25.14-.13.36-.13.49,0,.07.07.11.16.11.25s-.04.18-.1.25c-.07.06-.16.1-.25.1Z"/>
          <path class="cls-18" d="m39.25,15.1c-.09,0-.18-.04-.25-.1-.06-.07-.1-.16-.1-.25s.04-.18.1-.25c.14-.13.36-.13.49,0,.07.07.11.16.11.25s-.04.18-.1.25c-.07.06-.16.1-.25.1Z"/>
          <path class="cls-18" d="m24.75,18.1c-.09,0-.18-.04-.25-.1-.06-.07-.1-.16-.1-.25s.04-.18.1-.25c.14-.13.36-.13.49,0,.07.07.11.16.11.25s-.04.18-.1.25c-.07.06-.16.1-.25.1Z"/>
          <path class="cls-18" d="m8.25,27.35c-.09,0-.18-.04-.25-.1-.06-.07-.1-.16-.1-.25s.04-.18.1-.25c.13-.13.36-.13.49,0,.07.07.11.16.11.25s-.04.18-.1.25c-.07.06-.16.1-.25.1Z"/>
          <path class="cls-18" d="m16,31.85c-.09,0-.18-.04-.25-.1-.06-.07-.1-.16-.1-.25s.04-.18.1-.25c.12-.12.36-.13.5,0,.06.07.1.16.1.25s-.04.18-.1.25c-.07.06-.16.1-.25.1Z"/>
          <path class="cls-18" d="m10.5,33.6c-.09,0-.18-.04-.25-.1-.06-.07-.1-.16-.1-.25,0-.1.04-.19.11-.25.11-.12.35-.13.49,0,.06.06.1.15.1.25s-.04.18-.1.25c-.07.06-.16.1-.25.1Z"/>
          <path class="cls-18" d="m5.25,37.1c-.09,0-.18-.04-.25-.1-.06-.07-.1-.16-.1-.25s.04-.18.1-.25c.12-.12.37-.13.5,0,.06.07.1.15.1.25,0,.09-.04.18-.1.25-.07.06-.16.1-.25.1Z"/>
          <path class="cls-18" d="m3.25,20.6c-.09,0-.18-.04-.25-.1-.06-.07-.1-.16-.1-.25s.04-.18.1-.25c.12-.12.36-.13.5,0,.06.07.1.16.1.25s-.04.18-.1.25c-.07.06-.16.1-.25.1Z"/>
          <path class="cls-18" d="m20.5,30.85c-.09,0-.18-.04-.25-.1-.06-.07-.1-.16-.1-.25,0-.1.04-.19.11-.25.13-.13.35-.13.49,0,.06.06.1.15.1.25,0,.09-.04.18-.1.25-.07.06-.16.1-.25.1Z"/>
          <path class="cls-18" d="m17.5,35.6c-.09,0-.18-.04-.25-.1-.06-.07-.1-.16-.1-.25s.04-.18.1-.25c.14-.13.36-.13.5,0,.06.07.1.16.1.25s-.04.18-.1.25c-.07.06-.16.1-.25.1Z"/>
          <path class="cls-18" d="m16,39.1c-.09,0-.18-.04-.25-.1-.06-.07-.1-.16-.1-.25,0-.1.04-.19.11-.25.11-.12.35-.13.49,0,.06.06.1.15.1.25,0,.09-.04.18-.1.25-.07.06-.15.1-.25.1Z"/>
          <path class="cls-18" d="m12.75,41.35c-.09,0-.18-.04-.25-.1-.06-.07-.1-.16-.1-.25,0-.1.04-.19.11-.25.11-.12.35-.13.49,0,.06.06.1.15.1.25,0,.09-.04.18-.1.25-.07.06-.16.1-.25.1Z"/>
          <path class="cls-18" d="m12.75,46.6c-.09,0-.18-.04-.25-.1-.06-.07-.1-.16-.1-.25,0-.1.04-.19.11-.25.11-.12.35-.13.49,0,.06.06.1.15.1.25,0,.09-.04.18-.1.25-.07.06-.16.1-.25.1Z"/>
          <path class="cls-18" d="m5.75,48.6c-.09,0-.18-.04-.25-.1-.06-.07-.1-.16-.1-.25s.04-.18.1-.25c.12-.12.37-.13.5,0,.06.07.1.16.1.25s-.04.18-.1.25c-.07.06-.16.1-.25.1Z"/>
          <path class="cls-18" d="m11,54.6c-.09,0-.18-.04-.25-.1-.06-.07-.1-.16-.1-.25s.04-.18.1-.25c.12-.12.37-.13.5,0,.06.07.1.16.1.25s-.04.18-.1.25c-.07.06-.16.1-.25.1Z"/>
          <path class="cls-18" d="m15.5,58.6c-.09,0-.18-.04-.25-.1-.06-.07-.1-.16-.1-.25s.04-.18.1-.25c.13-.13.37-.13.5,0,.06.07.1.16.1.25s-.04.18-.1.25c-.07.06-.16.1-.25.1Z"/>
          <path class="cls-18" d="m6,63.6c-.09,0-.18-.04-.25-.1-.06-.07-.1-.16-.1-.25s.04-.18.1-.25c.12-.12.36-.13.5,0,.06.06.1.15.1.25,0,.09-.04.18-.1.25-.07.06-.16.1-.25.1Z"/>
          <path class="cls-18" d="m2.25,62.1c-.09,0-.18-.04-.25-.1-.06-.07-.1-.16-.1-.25s.04-.18.1-.25c.13-.12.36-.13.49,0,.07.07.11.15.11.25,0,.09-.04.18-.1.25-.07.06-.16.1-.25.1Z"/>
          <path class="cls-18" d="m9,68.1c-.09,0-.18-.04-.25-.1-.06-.07-.1-.16-.1-.25s.04-.18.1-.25c.13-.13.35-.13.49,0,.07.07.11.16.11.25s-.04.18-.1.25c-.07.06-.15.1-.25.1Z"/>
          <path class="cls-18" d="m13.5,69.6c-.09,0-.18-.04-.25-.1-.06-.07-.1-.16-.1-.25s.04-.18.1-.25c.12-.12.37-.13.5,0,.06.07.1.16.1.25s-.04.18-.1.25c-.07.06-.16.1-.25.1Z"/>
          <path class="cls-18" d="m21.5,68.6c-.09,0-.18-.04-.25-.1-.06-.07-.1-.16-.1-.25,0-.1.04-.19.11-.25.12-.13.36-.13.49,0,.06.06.1.15.1.25,0,.09-.04.18-.1.25-.07.06-.16.1-.25.1Z"/>
          <path class="cls-18" d="m23,65.85c-.09,0-.18-.04-.25-.1-.06-.07-.1-.16-.1-.25s.04-.18.1-.25c.13-.13.36-.13.5,0,.06.07.1.16.1.25s-.04.18-.1.25c-.07.06-.15.1-.25.1Z"/>
          <path class="cls-18" d="m22.25,60.1c-.09,0-.18-.04-.25-.1-.06-.07-.1-.16-.1-.25s.04-.18.1-.25c.12-.12.36-.13.5,0,.06.07.1.16.1.25s-.04.18-.1.25c-.07.06-.15.1-.25.1Z"/>
          <path class="cls-18" d="m24.25,57.6c-.09,0-.18-.04-.25-.1-.06-.07-.1-.16-.1-.25,0-.1.04-.18.1-.25.12-.12.36-.13.5,0,.06.07.1.15.1.25,0,.09-.04.18-.1.25-.07.06-.15.1-.25.1Z"/>
          <path class="cls-18" d="m26.25,47.85c-.09,0-.18-.04-.25-.1-.06-.07-.1-.16-.1-.25s.04-.18.1-.25c.13-.13.36-.13.5,0,.06.07.1.16.1.25s-.04.18-.1.25c-.07.06-.16.1-.25.1Z"/>
          <path class="cls-18" d="m25.75,43.6c-.09,0-.18-.04-.25-.1-.06-.07-.1-.16-.1-.25s.04-.18.1-.25c.13-.13.36-.13.5,0,.06.07.1.16.1.25s-.04.18-.1.25c-.07.06-.16.1-.25.1Z"/>
          <path class="cls-18" d="m32.25,31.1c-.09,0-.18-.04-.25-.1-.06-.07-.1-.16-.1-.25,0-.1.04-.19.11-.25.12-.13.35-.13.49,0,.06.06.1.15.1.25,0,.09-.04.18-.1.25-.07.06-.16.1-.25.1Z"/>
          <path class="cls-18" d="m34.25,27.85c-.09,0-.18-.04-.25-.1-.06-.07-.1-.16-.1-.25s.03-.18.1-.25c.13-.13.36-.13.5,0,.06.07.1.16.1.25s-.04.18-.1.25c-.07.06-.15.1-.25.1Z"/>
          <path class="cls-18" d="m41.75,25.85c-.09,0-.18-.04-.25-.1-.06-.07-.1-.16-.1-.25s.04-.18.1-.25c.13-.13.37-.13.5,0,.06.07.1.16.1.25s-.04.18-.1.25c-.07.06-.16.1-.25.1Z"/>
          <path class="cls-18" d="m43,20.85c-.09,0-.18-.04-.25-.11-.06-.06-.1-.14-.1-.24,0-.09.04-.18.1-.25.13-.13.36-.13.5,0,.06.07.1.16.1.25,0,.1-.04.18-.11.25-.06.06-.15.1-.24.1Z"/>
          <path class="cls-18" d="m36.5,19.35c-.09,0-.18-.04-.25-.1-.07-.08-.1-.16-.1-.25s.03-.18.1-.24c.16-.15.37-.14.5,0,.06.07.1.16.1.25s-.04.18-.1.25c-.07.06-.16.1-.25.1Z"/>
          <path class="cls-18" d="m27.75,22.35c-.09,0-.18-.04-.25-.1-.06-.07-.1-.16-.1-.25s.04-.18.1-.25c.13-.13.37-.13.5,0,.06.07.1.16.1.25s-.04.18-.1.25c-.07.06-.16.1-.25.1Z"/>
          <path class="cls-18" d="m52,22.1c-.1,0-.19-.04-.25-.11-.06-.06-.1-.15-.1-.24s.04-.18.1-.25c.14-.13.36-.13.49,0,.07.07.11.16.11.25s-.04.18-.1.25c-.07.06-.15.1-.25.1Z"/>
          <path class="cls-18" d="m43.25,17.85c-.09,0-.19-.04-.25-.1-.06-.07-.1-.16-.1-.25s.04-.18.1-.25c.12-.12.36-.13.5,0,.06.07.1.16.1.25s-.04.18-.1.25c-.07.06-.16.1-.25.1Z"/>
          <path class="cls-18" d="m50.5,18.1c-.1,0-.18-.04-.25-.1-.06-.07-.1-.16-.1-.25s.04-.18.1-.25c.14-.13.36-.13.49,0,.07.07.11.16.11.25s-.04.18-.1.25c-.07.06-.16.1-.25.1Z"/>
          <path class="cls-18" d="m59.5,17.35c-.09,0-.18-.04-.25-.1-.06-.07-.1-.16-.1-.25,0-.1.04-.19.11-.25.11-.12.35-.13.49,0,.06.06.1.15.1.25,0,.09-.04.18-.1.25-.07.06-.16.1-.25.1Z"/>
          <path class="cls-18" d="m58.25,14.1c-.1,0-.18-.04-.25-.1-.06-.07-.1-.16-.1-.25s.04-.18.1-.25c.14-.13.36-.13.49,0,.07.07.11.16.11.25s-.04.18-.1.25c-.07.06-.16.1-.25.1Z"/>
          <path class="cls-18" d="m61.5,11.1c-.09,0-.18-.04-.25-.1-.06-.07-.1-.16-.1-.25,0-.1.04-.19.11-.25.11-.12.36-.13.49,0,.06.05.1.14.1.24,0,.09-.04.18-.1.25-.07.06-.16.1-.25.1Z"/>
          <path class="cls-18" d="m58.75,7.6c-.09,0-.18-.04-.25-.1-.07-.07-.1-.16-.1-.25s.03-.18.1-.24c.15-.15.36-.14.49,0,.07.07.11.15.11.25,0,.09-.04.18-.1.25-.07.06-.16.1-.25.1Z"/>
          <path class="cls-18" d="m60,4.85c-.09,0-.19-.04-.25-.11-.06-.06-.1-.15-.1-.24,0-.1.04-.19.11-.25.11-.12.35-.13.49,0,.06.06.1.15.1.25,0,.09-.04.18-.1.25-.07.06-.16.1-.25.1Z"/>
          <path class="cls-18" d="m67.5,6.1c-.09,0-.18-.04-.25-.1-.06-.06-.1-.15-.1-.25s.04-.18.1-.25c.13-.12.37-.13.5,0,.06.07.1.16.1.25s-.04.18-.1.25c-.07.06-.16.1-.25.1Z"/>
          <path class="cls-18" d="m70.75,8.6c-.09,0-.18-.04-.25-.1-.06-.06-.1-.15-.1-.25s.04-.18.1-.25c.13-.12.36-.13.49,0,.07.07.11.16.11.25s-.04.18-.1.25c-.07.06-.16.1-.25.1Z"/>
          <path class="cls-18" d="m65.75,9.85c-.09,0-.18-.04-.25-.1-.06-.07-.1-.16-.1-.25,0-.1.04-.18.1-.25.12-.12.37-.13.5,0,.06.07.1.16.1.25s-.04.18-.1.25c-.07.06-.16.1-.25.1Z"/>
          <path class="cls-18" d="m60.25,23.85c-.09,0-.18-.04-.25-.1-.06-.07-.1-.16-.1-.25s.04-.18.1-.25c.12-.13.37-.13.5,0,.06.07.1.16.1.25s-.04.18-.1.25c-.07.06-.16.1-.25.1Z"/>
          <path class="cls-18" d="m55.5,23.85c-.09,0-.18-.04-.25-.1-.06-.07-.1-.16-.1-.25s.04-.18.1-.25c.12-.12.37-.13.5,0,.06.07.1.16.1.25s-.04.18-.1.25c-.07.06-.16.1-.25.1Z"/>
          <path class="cls-18" d="m55.5,18.85c-.09,0-.19-.04-.25-.11-.06-.06-.1-.15-.1-.24,0-.1.04-.19.11-.25.11-.12.35-.13.49,0,.06.06.1.15.1.25,0,.09-.04.18-.1.25-.07.06-.16.1-.25.1Z"/>
          <path class="cls-18" d="m65,25.85c-.09,0-.18-.04-.25-.1-.06-.07-.1-.16-.1-.25,0-.1.04-.19.11-.25.11-.12.35-.13.49,0,.06.06.1.15.1.25,0,.09-.04.18-.1.25-.07.06-.16.1-.25.1Z"/>
          <path class="cls-18" d="m57.75,30.85c-.1,0-.19-.04-.25-.11-.06-.06-.1-.15-.1-.24,0-.1.04-.19.11-.25.11-.12.35-.13.49,0,.06.06.1.15.1.25,0,.09-.04.18-.1.25-.07.06-.16.1-.25.1Z"/>
          <path class="cls-18" d="m52.75,32.85c-.09,0-.18-.04-.25-.11-.06-.06-.1-.15-.1-.24,0-.1.04-.19.11-.25.11-.12.35-.13.49,0,.06.06.1.15.1.25,0,.09-.04.18-.1.25-.07.06-.16.1-.25.1Z"/>
          <path class="cls-18" d="m47.5,33.85c-.09,0-.18-.04-.25-.11-.06-.06-.1-.15-.1-.24,0-.1.04-.19.11-.25.11-.12.35-.13.49,0,.06.06.1.15.1.25,0,.09-.04.18-.1.25-.07.06-.16.1-.25.1Z"/>
          <path class="cls-18" d="m44.25,39.35c-.09,0-.18-.04-.25-.11-.06-.06-.1-.15-.1-.24s.04-.18.1-.25c.14-.13.36-.13.5,0,.06.07.1.15.1.25s-.04.19-.11.25c-.06.06-.15.1-.24.1Z"/>
          <path class="cls-18" d="m34,41.6c-.09,0-.18-.04-.25-.1-.06-.07-.1-.16-.1-.25s.04-.18.1-.25c.14-.13.36-.13.5,0,.06.07.1.16.1.25s-.04.18-.1.25c-.07.06-.16.1-.25.1Z"/>
          <path class="cls-18" d="m40.75,48.1c-.09,0-.18-.04-.25-.1-.06-.07-.1-.16-.1-.25s.04-.18.1-.25c.14-.13.36-.13.49,0,.07.06.11.16.11.25s-.04.18-.1.25c-.07.06-.16.1-.25.1Z"/>
          <path class="cls-18" d="m45.75,52.35c-.09,0-.18-.04-.25-.1-.06-.07-.1-.16-.1-.25,0-.1.04-.19.11-.25.12-.13.36-.13.49,0,.06.06.1.15.1.25,0,.09-.04.18-.1.25-.07.06-.16.1-.25.1Z"/>
          <path class="cls-18" d="m46.5,56.85c-.09,0-.18-.04-.25-.1-.06-.07-.1-.16-.1-.25s.04-.18.1-.25c.15-.14.36-.13.49,0,.07.07.11.16.11.25s-.04.18-.1.25c-.07.06-.16.1-.25.1Z"/>
          <path class="cls-18" d="m42,59.6c-.09,0-.18-.04-.24-.1-.07-.07-.11-.16-.11-.25s.04-.18.1-.25c.14-.13.36-.13.5,0,.06.07.1.16.1.25s-.04.18-.1.25c-.07.06-.16.1-.25.1Z"/>
          <path class="cls-18" d="m40,62.85c-.09,0-.18-.04-.25-.1-.06-.07-.1-.16-.1-.25s.04-.18.1-.25c.13-.13.37-.13.5,0,.06.07.1.16.1.25s-.04.18-.1.25c-.07.06-.15.1-.25.1Z"/>
          <path class="cls-18" d="m36,62.85c-.09,0-.18-.04-.25-.1-.06-.07-.1-.16-.1-.25,0-.1.04-.19.11-.25.12-.13.35-.13.49,0,.06.06.1.15.1.25,0,.09-.04.18-.1.25-.07.06-.16.1-.25.1Z"/>
          <path class="cls-18" d="m36.5,52.85c-.09,0-.18-.04-.25-.1-.07-.07-.1-.16-.1-.25s.04-.18.1-.25c.14-.13.38-.13.5,0,.06.05.1.14.1.24,0,.09-.04.18-.1.25-.07.06-.16.1-.25.1Z"/>
          <path class="cls-18" d="m30,63.6c-.09,0-.18-.04-.24-.1-.07-.07-.11-.16-.11-.25,0-.1.04-.19.11-.25.12-.12.36-.13.49,0,.06.06.1.15.1.25,0,.09-.04.18-.1.25-.07.06-.16.1-.25.1Z"/>
          <path class="cls-18" d="m31.5,68.6c-.09,0-.18-.04-.25-.1-.06-.07-.1-.16-.1-.25s.04-.18.1-.25c.13-.13.36-.13.5,0,.06.07.1.16.1.25s-.04.18-.1.25c-.07.06-.16.1-.25.1Z"/>
          <path class="cls-18" d="m37,71.1c-.09,0-.18-.04-.25-.1-.06-.06-.1-.16-.1-.25,0-.1.04-.19.11-.25.12-.12.36-.13.49,0,.06.06.1.15.1.25,0,.09-.04.19-.1.25-.07.06-.16.1-.25.1Z"/>
          <path class="cls-18" d="m63,57.1c-.09,0-.18-.04-.25-.1-.06-.07-.1-.16-.1-.25,0-.1.04-.19.11-.25.11-.12.35-.13.49,0,.06.06.1.15.1.25,0,.09-.04.18-.1.25-.07.06-.16.1-.25.1Z"/>
          <path class="cls-18" d="m60,50.85c-.1,0-.19-.04-.25-.11-.06-.06-.1-.15-.1-.24s.04-.19.11-.25c.12-.13.35-.13.48,0,.07.07.11.16.11.25s-.04.18-.1.25c-.07.06-.15.1-.25.1Z"/>
          <path class="cls-18" d="m54.5,50.6c-.09,0-.18-.04-.25-.1-.06-.07-.1-.15-.1-.25s.04-.19.1-.25c.14-.13.36-.13.49,0,.07.07.11.16.11.25s-.04.18-.1.24c-.07.07-.15.11-.25.11Z"/>
          <path class="cls-18" d="m54.75,41.85c-.09,0-.18-.04-.25-.11-.06-.05-.1-.15-.1-.24s.04-.18.1-.25c.13-.13.36-.13.5,0,.06.07.1.16.1.25s-.04.19-.11.25c-.06.06-.15.1-.24.1Z"/>
          <path class="cls-18" d="m62.5,42.35c-.09,0-.18-.04-.25-.1-.06-.07-.1-.16-.1-.25s.04-.18.1-.25c.13-.13.36-.13.5,0,.06.07.1.16.1.25s-.04.18-.1.25c-.07.06-.16.1-.25.1Z"/>
          <path class="cls-18" d="m67,47.6c-.09,0-.18-.04-.24-.1-.07-.07-.11-.16-.11-.25s.04-.18.1-.25c.13-.13.36-.13.49,0,.08.07.11.16.11.25s-.04.18-.1.25c-.07.06-.16.1-.25.1Z"/>
          <path class="cls-18" d="m69.5,54.35c-.09,0-.18-.04-.24-.1-.07-.07-.11-.16-.11-.25s.04-.18.1-.25c.13-.13.36-.13.49,0,.07.07.11.16.11.25s-.04.18-.1.25c-.07.06-.16.1-.25.1Z"/>
          <path class="cls-18" d="m63.5,61.85c-.09,0-.18-.04-.24-.1-.07-.07-.11-.16-.11-.25s.04-.18.1-.25c.13-.13.36-.13.49,0,.08.07.11.16.11.25s-.04.18-.1.25c-.07.06-.16.1-.25.1Z"/>
          <path class="cls-18" d="m70.25,61.1c-.09,0-.18-.04-.25-.1-.06-.07-.1-.16-.1-.25,0-.1.04-.19.11-.25.1-.12.35-.13.49,0,.06.06.1.15.1.25,0,.09-.04.18-.1.25-.07.06-.16.1-.25.1Z"/>
          <path class="cls-18" d="m64.75,65.6c-.09,0-.18-.04-.25-.1-.06-.07-.1-.16-.1-.25s.04-.18.1-.25c.12-.13.37-.13.5,0,.06.06.1.15.1.24s-.04.18-.1.25c-.07.06-.16.1-.25.1Z"/>
          <path class="cls-18" d="m65.75,68.35c-.09,0-.18-.04-.25-.1-.06-.07-.1-.16-.1-.25s.04-.18.1-.25c.12-.13.37-.13.5,0,.06.07.1.16.1.25s-.04.18-.1.25c-.07.06-.16.1-.25.1Z"/>
          <path class="cls-18" d="m62.5,70.35c-.09,0-.18-.04-.25-.1-.06-.07-.1-.16-.1-.25s.04-.19.11-.25c.11-.12.36-.13.49,0,.06.05.1.14.1.24,0,.09-.04.18-.1.25-.07.06-.16.1-.25.1Z"/>
          <path class="cls-18" d="m52.75,69.85c-.1,0-.19-.04-.25-.1-.06-.07-.1-.16-.1-.25s.04-.18.1-.25c.14-.13.36-.13.49,0,.07.07.11.16.11.25s-.04.18-.1.25c-.07.06-.15.1-.25.1Z"/>
          <path class="cls-18" d="m44.75,66.6c-.1,0-.18-.04-.25-.11-.06-.06-.1-.15-.1-.24,0-.1.04-.19.11-.25.11-.12.35-.13.49,0,.06.06.1.15.1.25,0,.09-.04.18-.1.25-.07.06-.16.1-.25.1Z"/>
          <path class="cls-18" d="m28.5,71.35c-.09,0-.18-.04-.25-.1-.06-.06-.1-.15-.1-.25s.04-.19.11-.25c.12-.13.35-.13.49,0,.06.06.1.15.1.25s-.04.19-.11.25c-.06.06-.15.1-.24.1Z"/>
          <path class="cls-18" d="m3,29.6c-.09,0-.18-.04-.25-.1-.06-.07-.1-.16-.1-.25s.04-.18.1-.25c.12-.12.36-.13.5,0,.06.07.1.16.1.25s-.04.18-.1.25c-.07.06-.16.1-.25.1Z"/>
          <path class="cls-18" d="m13.25,5.1c-.09,0-.18-.04-.25-.11-.06-.05-.1-.14-.1-.24,0-.09.04-.19.1-.25.13-.13.36-.13.49,0,.07.07.11.16.11.25,0,.1-.04.19-.11.25-.06.06-.15.1-.24.1Z"/>
          <path class="cls-18" d="m70.25,34.6c-.09,0-.18-.04-.25-.1-.06-.07-.1-.16-.1-.25,0-.1.04-.19.11-.25.11-.12.35-.13.49,0,.06.06.1.15.1.25,0,.09-.04.18-.1.25-.07.06-.16.1-.25.1Z"/>
          <path class="cls-18" d="m71.25,41.35c-.09,0-.18-.04-.25-.1-.06-.07-.1-.16-.1-.25s.04-.18.1-.25c.13-.13.36-.13.5,0,.06.07.1.16.1.25s-.04.18-.1.25c-.07.06-.16.1-.25.1Z"/>
          <path class="cls-18" d="m1,51.85c-.09,0-.18-.04-.25-.1-.06-.07-.1-.16-.1-.25,0-.1.04-.19.11-.25.11-.12.35-.13.49,0,.06.06.1.15.1.25,0,.09-.04.18-.1.25-.07.06-.16.1-.25.1Z"/>
          <path class="cls-18" d="m72,23.6c-.09,0-.18-.04-.25-.1-.06-.07-.1-.16-.1-.25s.04-.18.1-.25c.12-.12.36-.13.5,0,.06.07.1.16.1.25s-.04.18-.1.25c-.07.06-.16.1-.25.1Z"/>
          <path class="cls-18" d="m69,26.6c-.09,0-.18-.04-.25-.1-.06-.07-.1-.16-.1-.25s.04-.18.1-.25c.12-.13.36-.13.5,0,.06.07.1.16.1.25s-.03.18-.1.25c-.07.06-.16.1-.25.1Z"/>
          <path class="cls-18" d="m68.5,60.35c-.09,0-.18-.04-.25-.1-.06-.07-.1-.16-.1-.25,0-.1.04-.18.1-.25.12-.12.37-.13.5,0,.06.07.1.16.1.25s-.04.18-.1.25c-.07.06-.16.1-.25.1Z"/>
          <path class="cls-18" d="m71.5,68.35c-.09,0-.18-.04-.25-.1-.06-.07-.1-.16-.1-.25s.04-.18.1-.25c.12-.13.36-.13.5,0,.06.07.1.16.1.25s-.03.18-.1.25c-.07.06-.16.1-.25.1Z"/>
          <path class="cls-18" d="m.5,57.85c-.09,0-.18-.04-.25-.1-.06-.07-.1-.16-.1-.25s.04-.18.1-.25c.12-.12.36-.13.5,0,.06.07.1.16.1.25s-.04.18-.1.25c-.07.06-.16.1-.25.1Z"/>
          <path class="cls-18" d="m2.75,71.35c-.09,0-.18-.04-.25-.1-.06-.07-.1-.16-.1-.25s.04-.18.1-.25c.13-.13.36-.13.49,0,.07.07.11.16.11.25s-.04.18-.1.25c-.07.06-.16.1-.25.1Z"/>
          <path class="cls-18" d="m70.25,24.1c-.09,0-.18-.04-.25-.1-.06-.07-.1-.16-.1-.25,0-.1.04-.19.11-.25.11-.12.35-.13.49,0,.06.06.1.15.1.25,0,.09-.04.18-.1.25-.07.06-.16.1-.25.1Z"/>
          <path class="cls-18" d="m1.25,16.85c-.09,0-.18-.04-.25-.1-.06-.07-.1-.16-.1-.25s.04-.18.1-.25c.12-.12.36-.13.5,0,.06.07.1.16.1.25s-.04.18-.1.25c-.07.06-.16.1-.25.1Z"/>
          <path class="cls-18" d="m18,13.15c-.17,0-.33-.07-.46-.19-.12-.13-.19-.29-.19-.46s.07-.34.19-.46c.24-.24.68-.24.92,0,.12.12.19.29.19.46s-.07.34-.19.46c-.12.12-.29.19-.46.19Z"/>
          <path class="cls-18" d="m29.25,11.15c-.17,0-.34-.07-.46-.19-.12-.13-.19-.29-.19-.46s.07-.34.19-.46c.25-.25.67-.24.92,0,.12.12.19.29.19.46s-.07.33-.19.46c-.13.12-.29.19-.46.19Z"/>
          <path class="cls-18" d="m29.25,3.65c-.17,0-.34-.07-.46-.19-.12-.12-.19-.29-.19-.46,0-.18.07-.34.19-.46.24-.24.68-.24.92,0,.12.12.19.29.19.46s-.07.34-.19.46c-.13.12-.29.19-.46.19Z"/>
          <path class="cls-18" d="m40.25,10.65c-.17,0-.33-.07-.46-.19-.12-.13-.19-.29-.19-.46s.07-.34.19-.46c.24-.24.68-.24.92,0,.12.11.19.28.19.46,0,.17-.07.33-.19.46-.12.12-.29.19-.46.19Z"/>
          <path class="cls-18" d="m45,12.15c-.18,0-.34-.07-.46-.2-.12-.12-.19-.28-.19-.45s.07-.34.19-.46c.24-.24.68-.24.92,0,.12.11.19.28.19.46s-.07.34-.2.46c-.11.12-.27.19-.45.19Z"/>
          <path class="cls-18" d="m47.25,23.15c-.17,0-.34-.07-.46-.19-.12-.12-.19-.29-.19-.46s.07-.34.19-.46c.23-.24.68-.24.92,0,.12.12.19.29.19.46s-.07.34-.19.46c-.12.12-.29.19-.46.19Z"/>
          <path class="cls-18" d="m54.75,7.15c-.18,0-.34-.07-.46-.19-.12-.12-.19-.29-.19-.46s.07-.34.19-.46c.23-.24.69-.24.92,0,.12.12.19.28.19.46,0,.17-.07.34-.19.46-.12.12-.28.19-.46.19Z"/>
          <path class="cls-18" d="m64,6.9c-.17,0-.34-.07-.46-.19-.12-.12-.19-.29-.19-.46s.07-.34.19-.46c.24-.24.68-.24.92,0,.12.12.19.29.19.46s-.07.34-.19.46c-.12.12-.29.19-.46.19Z"/>
          <path class="cls-18" d="m65,2.9c-.17,0-.34-.07-.46-.19-.12-.13-.19-.29-.19-.46s.07-.34.19-.46c.25-.24.67-.24.92,0,.12.13.19.29.19.46s-.06.33-.18.45c-.13.13-.3.2-.47.2Z"/>
          <path class="cls-18" d="m69.5,18.4c-.17,0-.34-.07-.46-.19-.12-.12-.19-.29-.19-.46s.07-.34.19-.46c.24-.24.67-.25.92,0,.12.12.19.29.19.46s-.07.34-.19.46c-.12.12-.29.19-.46.19Z"/>
          <path class="cls-18" d="m8,47.4c-.18,0-.34-.07-.46-.19-.12-.13-.19-.29-.19-.46s.07-.34.19-.46c.24-.24.68-.24.92,0,.12.12.19.29.19.46s-.07.33-.19.46c-.12.12-.28.19-.46.19Z"/>
          <path class="cls-18" d="m5,57.15c-.18,0-.34-.07-.46-.19-.12-.12-.19-.29-.19-.46s.07-.34.19-.46c.25-.25.68-.24.92,0,.12.12.19.29.19.46s-.07.34-.19.46c-.12.12-.28.19-.46.19Z"/>
          <path class="cls-18" d="m2.25,67.4c-.17,0-.34-.07-.46-.19-.12-.13-.19-.29-.19-.46s.07-.34.19-.46c.24-.24.68-.24.92,0,.12.12.19.29.19.46s-.07.33-.19.46c-.12.12-.29.19-.46.19Z"/>
          <path class="cls-18" d="m17.75,70.15c-.17,0-.34-.07-.46-.19-.12-.13-.19-.29-.19-.46s.07-.34.19-.46c.24-.24.68-.24.92,0,.12.12.19.29.19.46s-.07.33-.19.46c-.12.12-.29.19-.46.19Z"/>
          <path class="cls-18" d="m19.25,62.65c-.17,0-.34-.07-.46-.19-.12-.12-.19-.29-.19-.46,0-.18.07-.34.19-.46.23-.24.68-.25.92,0,.12.12.19.29.19.46s-.07.33-.19.46c-.12.12-.29.19-.46.19Z"/>
          <path class="cls-18" d="m21,45.65c-.17,0-.34-.07-.46-.19-.12-.12-.19-.29-.19-.46,0-.18.07-.34.19-.46.23-.24.68-.25.92,0,.12.12.19.29.19.46s-.07.33-.19.46c-.12.12-.28.19-.46.19Z"/>
          <path class="cls-18" d="m28.5,51.4c-.17,0-.34-.07-.46-.19-.12-.12-.19-.29-.19-.46s.07-.34.19-.46c.24-.24.68-.25.92,0,.12.12.19.29.19.46s-.07.33-.19.46c-.12.12-.28.19-.46.19Z"/>
          <path class="cls-18" d="m34,60.65c-.17,0-.34-.07-.46-.19-.12-.12-.19-.29-.19-.46,0-.18.07-.34.19-.46.24-.24.68-.24.92,0,.12.11.19.28.19.46s-.07.34-.19.46c-.12.12-.29.19-.46.19Z"/>
          <path class="cls-18" d="m34.25,67.15c-.18,0-.34-.07-.46-.19-.12-.12-.19-.29-.19-.46s.07-.34.19-.46c.25-.25.68-.24.92,0,.12.12.19.28.19.46s-.07.34-.19.46c-.12.12-.29.19-.46.19Z"/>
          <path class="cls-18" d="m41.75,55.4c-.17,0-.34-.07-.46-.19-.12-.12-.19-.29-.19-.46s.07-.34.19-.46c.24-.24.68-.24.92,0,.12.12.19.29.19.46s-.07.34-.19.46c-.12.12-.29.19-.46.19Z"/>
          <path class="cls-18" d="m52.25,60.15c-.17,0-.34-.07-.46-.19-.12-.12-.19-.29-.19-.46s.07-.34.19-.46c.23-.24.68-.24.92,0,.12.12.19.29.19.46s-.07.34-.19.46c-.12.12-.29.19-.46.19Z"/>
          <path class="cls-18" d="m55,65.65c-.17,0-.34-.07-.46-.19-.12-.13-.19-.29-.19-.46,0-.18.07-.34.19-.46.23-.24.68-.24.92,0,.12.12.19.28.19.46,0,.17-.07.33-.19.46-.12.12-.29.19-.46.19Z"/>
          <path class="cls-18" d="m25.25,24.9c-.17,0-.34-.07-.46-.19-.12-.13-.19-.29-.19-.46s.07-.34.19-.46c.23-.24.68-.24.92,0,.12.12.19.29.19.46s-.07.33-.19.46c-.12.12-.29.19-.46.19Z"/>
          <path class="cls-18" d="m35.25,23.65c-.18,0-.34-.07-.46-.19-.12-.12-.19-.29-.19-.46s.07-.34.19-.46c.24-.24.68-.24.92,0,.12.12.19.28.19.46s-.07.34-.19.46c-.12.12-.28.19-.46.19Z"/>
          <path class="cls-18" d="m45,29.9c-.17,0-.34-.07-.46-.19-.12-.12-.19-.29-.19-.46s.07-.34.19-.46c.23-.24.69-.24.92,0,.12.11.19.28.19.46s-.07.34-.2.46c-.11.12-.28.19-.45.19Z"/>
          <path class="cls-18" d="m52,43.4c-.17,0-.34-.07-.46-.19-.12-.12-.19-.29-.19-.46s.07-.34.19-.46c.23-.24.67-.25.92,0,.12.12.19.28.19.46,0,.17-.07.34-.19.46-.12.12-.29.19-.46.19Z"/>
          <path class="cls-18" d="m67,52.15c-.17,0-.34-.07-.46-.19-.12-.12-.19-.29-.19-.46,0-.18.07-.34.2-.46.22-.23.67-.24.91,0,.12.12.19.29.19.46s-.07.34-.19.46c-.12.12-.29.19-.46.19Z"/>
          <path class="cls-18" d="m47.25,48.15c-.17,0-.34-.07-.46-.19-.12-.12-.19-.29-.19-.46s.07-.34.19-.46c.23-.24.68-.24.92,0,.12.12.19.29.19.46s-.07.34-.19.46c-.12.12-.29.19-.46.19Z"/>
          <path class="cls-18" d="m37,44.9c-.17,0-.34-.07-.46-.19-.12-.13-.19-.29-.19-.46s.07-.34.19-.46c.24-.24.68-.24.92,0,.12.12.19.29.19.46s-.07.33-.19.46c-.12.12-.29.19-.46.19Z"/>
          <path class="cls-18" d="m17,28.9c-.17,0-.34-.07-.46-.19-.12-.12-.19-.29-.19-.46s.07-.34.19-.46c.25-.24.68-.24.92,0,.12.12.19.29.19.46s-.07.34-.19.46c-.12.12-.28.19-.46.19Z"/>
          <path class="cls-18" d="m11.25,37.15c-.17,0-.34-.07-.46-.19-.12-.12-.19-.29-.19-.46,0-.18.07-.34.19-.46.25-.25.69-.24.92,0,.12.12.19.29.19.46s-.07.34-.19.46c-.12.12-.29.19-.46.19Z"/>
          <path class="cls-18" d="m67.5,31.15c-.17,0-.34-.07-.46-.19-.12-.13-.19-.29-.19-.46s.07-.34.19-.46c.24-.24.68-.24.92,0,.12.12.19.28.19.46,0,.17-.07.34-.19.46-.12.12-.29.19-.46.19Z"/>
          <path class="cls-18" d="m7.25,16.15c-.18,0-.34-.07-.46-.2-.12-.11-.19-.28-.19-.45s.07-.34.19-.46c.24-.24.68-.25.92,0,.12.12.19.29.19.46s-.07.34-.19.46c-.12.12-.28.19-.46.19Z"/>
          <path class="cls-18" d="m8.5,5.65c-.17,0-.33-.07-.46-.19-.12-.12-.19-.29-.19-.46,0-.18.07-.34.19-.46.24-.24.68-.25.92,0,.12.12.19.28.19.46,0,.17-.07.34-.19.46-.12.12-.29.19-.46.19Z"/>
          <path class="cls-18" d="m3.5,2.9c-.17,0-.34-.07-.46-.19-.12-.13-.19-.29-.19-.46s.07-.34.19-.46c.24-.24.67-.24.92,0,.12.12.19.29.19.46s-.07.33-.19.46c-.12.12-.29.19-.46.19Z"/>
          <path class="cls-18" d="m66.5,37.65c-.17,0-.34-.07-.46-.19-.12-.12-.19-.29-.19-.46s.07-.34.19-.46c.24-.24.68-.24.92,0,.12.12.19.28.19.46,0,.17-.07.34-.19.46-.12.12-.28.19-.46.19Z"/>
          <path class="cls-18" d="m44,63.4c-.17,0-.34-.07-.46-.19-.12-.13-.19-.29-.19-.46s.07-.34.19-.46c.23-.24.67-.25.92,0,.12.12.19.29.19.46s-.07.33-.19.46c-.12.12-.29.19-.46.19Z"/>
          <path class="cls-18" d="m25.75,70.4c-.17,0-.34-.07-.46-.19-.12-.13-.19-.29-.19-.46s.07-.34.19-.46c.25-.25.68-.24.92,0,.12.12.19.29.19.46s-.07.33-.19.46c-.12.12-.29.19-.46.19Z"/>
          <path class="cls-18" d="m22,42.15c-.17,0-.34-.07-.46-.19-.12-.12-.19-.28-.19-.46s.07-.34.19-.46c.24-.24.67-.24.92,0,.12.12.19.29.19.46s-.07.34-.19.46c-.12.12-.29.19-.46.19Z"/>
          <path class="cls-18" d="m24,29.4c-.17,0-.34-.07-.46-.19-.12-.13-.19-.29-.19-.46s.07-.34.19-.46c.23-.24.68-.25.92,0,.12.12.19.28.19.46,0,.17-.07.34-.19.46-.12.12-.29.19-.46.19Z"/>
          <path class="cls-18" d="m41.5,34.9c-.17,0-.34-.07-.46-.19-.12-.12-.19-.29-.19-.46s.07-.34.19-.46c.24-.24.68-.24.92,0,.12.12.19.29.19.46s-.07.33-.19.46c-.12.12-.29.19-.46.19Z"/>
          <path class="cls-18" d="m67.5,44.15c-.17,0-.34-.07-.46-.19-.12-.13-.19-.29-.19-.46s.07-.34.19-.46c.24-.24.68-.24.92,0,.12.12.19.28.19.46,0,.17-.07.34-.19.46-.12.12-.29.19-.46.19Z"/>
          <path class="cls-18" d="m53.25,15.4c-.17,0-.34-.07-.46-.19-.12-.12-.19-.29-.19-.46s.07-.34.19-.46c.24-.24.68-.24.92,0,.12.12.19.29.19.46s-.07.33-.19.46c-.12.12-.29.19-.46.19Z"/>
          <path class="cls-18" d="m34,16.4c-.17,0-.34-.07-.46-.19-.12-.13-.19-.29-.19-.46,0-.18.07-.34.19-.46.24-.24.69-.24.92,0,.12.12.19.28.19.46,0,.17-.07.34-.19.46-.12.12-.29.19-.46.19Z"/>
          <path class="cls-18" d="m12.75,19.65c-.17,0-.34-.07-.46-.19-.12-.12-.19-.29-.19-.46s.07-.34.19-.46c.25-.25.68-.24.92,0,.12.12.19.29.19.46s-.07.34-.19.46c-.12.12-.29.19-.46.19Z"/>
          <path class="cls-18" d="m49.5,4.9c-.17,0-.34-.07-.46-.19-.12-.12-.19-.29-.19-.46s.07-.34.19-.46c.24-.24.67-.24.92,0,.12.12.19.29.19.46s-.07.34-.19.46c-.12.12-.29.19-.46.19Z"/>
          <path class="cls-18" d="m59,21.15c-.17,0-.34-.07-.46-.19-.12-.12-.19-.29-.19-.46s.07-.34.19-.46c.25-.24.67-.24.92,0,.12.12.19.28.19.46,0,.17-.07.34-.19.46-.12.12-.29.19-.46.19Z"/>
          <path class="cls-18" d="m67.5,57.65c-.17,0-.34-.07-.46-.19-.12-.13-.19-.29-.19-.46s.07-.34.19-.46c.24-.24.68-.24.92,0,.12.12.19.28.19.46,0,.17-.07.34-.19.46-.12.12-.29.19-.46.19Z"/>
          <path class="cls-18" d="m5.25,70.15c-.18,0-.34-.07-.46-.19s-.19-.29-.19-.46.07-.34.19-.46c.25-.25.68-.24.92,0,.12.12.19.29.19.46s-.07.34-.19.46c-.12.12-.28.19-.46.19Z"/>
          <path class="cls-18" d="m2.75,13.65c-.18,0-.34-.07-.46-.2-.12-.11-.19-.28-.19-.45s.07-.34.19-.46c.24-.25.68-.24.92,0,.12.12.19.29.19.46s-.07.34-.19.46c-.12.12-.28.19-.46.19Z"/>
          <path class="cls-18" d="m16.5,3.65c-.17,0-.34-.07-.46-.19-.12-.12-.19-.29-.19-.46s.07-.34.19-.46c.24-.24.68-.24.92,0,.12.12.19.29.19.46s-.07.34-.19.46c-.12.12-.29.19-.46.19Z"/>
          <path class="cls-18" d="m40.5,4.9c-.17,0-.34-.07-.46-.19-.12-.12-.19-.29-.19-.46s.07-.34.19-.46c.25-.24.68-.24.92,0,.12.12.19.28.19.46,0,.17-.07.34-.19.46-.12.12-.29.19-.46.19Z"/>
          <path class="cls-18" d="m2.75,32.4c-.18,0-.34-.07-.46-.19-.12-.12-.19-.29-.19-.46s.07-.34.19-.46c.24-.24.69-.24.92,0,.12.12.19.29.19.46s-.07.34-.19.46c-.12.12-.29.19-.46.19Z"/>
          <path class="cls-18" d="m7.5,25.4c-.18,0-.34-.07-.46-.19-.12-.12-.19-.29-.19-.46s.07-.34.19-.46c.24-.24.68-.24.92,0,.12.12.19.28.19.46,0,.17-.07.34-.19.46-.12.12-.28.19-.46.19Z"/>
          <path class="cls-18" d="m4,47.15c-.17,0-.34-.07-.46-.19-.12-.13-.19-.29-.19-.46s.07-.34.19-.46c.23-.24.67-.25.92,0,.12.12.19.29.19.46s-.07.33-.19.46c-.12.12-.28.19-.46.19Z"/>
          <path class="cls-18" d="m11,50.9c-.17,0-.34-.07-.46-.19-.12-.13-.19-.29-.19-.46,0-.18.07-.34.19-.46.24-.24.68-.24.92,0,.12.12.19.29.19.46s-.07.33-.19.46c-.12.12-.29.19-.46.19Z"/>
          <path class="cls-18" d="m10,60.15c-.18,0-.34-.07-.46-.19-.12-.12-.19-.29-.19-.46s.07-.34.19-.46c.24-.24.68-.24.92,0,.12.12.19.29.19.46s-.07.34-.19.46c-.12.12-.28.19-.46.19Z"/>
          <path class="cls-18" d="m13.5,66.15c-.17,0-.34-.07-.46-.19-.12-.13-.19-.29-.19-.46,0-.18.07-.34.19-.46.24-.24.68-.25.92,0,.12.12.19.29.19.46s-.07.33-.19.46c-.12.12-.29.19-.46.19Z"/>
          <path class="cls-18" d="m22,53.65c-.17,0-.34-.07-.46-.19-.12-.12-.19-.28-.19-.46s.07-.35.2-.46c.22-.24.67-.24.91,0,.12.12.19.29.19.46s-.07.33-.19.46c-.12.12-.29.19-.46.19Z"/>
          <path class="cls-18" d="m31.25,37.9c-.17,0-.34-.07-.46-.19-.12-.13-.19-.29-.19-.46s.07-.34.19-.46c.24-.24.68-.24.92,0,.12.12.19.29.19.46s-.07.33-.19.46c-.12.12-.29.19-.46.19Z"/>
          <path class="cls-18" d="m26,34.4c-.17,0-.34-.07-.46-.19-.12-.12-.19-.29-.19-.46s.07-.34.19-.46c.25-.25.68-.24.92,0,.12.12.19.29.19.46s-.07.34-.19.46c-.12.12-.29.19-.46.19Z"/>
          <path class="cls-18" d="m37.25,28.9c-.17,0-.34-.07-.46-.19-.12-.13-.19-.29-.19-.46s.07-.34.19-.46c.24-.24.67-.24.92,0,.12.12.19.29.19.46s-.07.33-.19.46c-.12.12-.29.19-.46.19Z"/>
          <path class="cls-18" d="m61.75,16.9c-.17,0-.34-.07-.46-.19-.12-.13-.19-.29-.19-.46s.07-.34.19-.46c.24-.24.68-.24.92,0,.12.12.19.28.19.46,0,.17-.07.34-.19.46-.12.12-.29.19-.46.19Z"/>
          <path class="cls-18" d="m61.25,27.4c-.18,0-.34-.07-.46-.19-.12-.13-.19-.29-.19-.46s.07-.34.19-.46c.24-.24.68-.24.92,0,.12.12.19.29.19.46s-.07.34-.19.46c-.12.12-.28.19-.46.19Z"/>
          <path class="cls-18" d="m58.75,57.4c-.17,0-.34-.07-.46-.19-.12-.13-.19-.29-.19-.46s.07-.34.19-.46c.24-.24.68-.24.92,0,.12.12.19.29.19.46s-.07.33-.19.46c-.12.12-.29.19-.46.19Z"/>
          <path class="cls-18" d="m59.25,44.65c-.18,0-.34-.07-.46-.19-.12-.12-.19-.29-.19-.46s.07-.34.19-.46c.24-.24.68-.24.92,0,.12.12.19.29.19.46s-.07.34-.19.46c-.12.12-.28.19-.46.19Z"/>
          <path class="cls-18" d="m55.75,35.9c-.17,0-.34-.07-.46-.19-.12-.13-.19-.29-.19-.46s.07-.34.19-.46c.24-.24.68-.24.92,0,.12.12.19.29.19.46s-.07.33-.19.46c-.12.12-.29.19-.46.19Z"/>
          <path class="cls-18" d="m69.25,70.9c-.17,0-.33-.07-.46-.19-.12-.12-.19-.29-.19-.46s.07-.34.19-.46c.23-.23.68-.24.92,0,.12.12.19.29.19.46s-.07.34-.19.46c-.12.12-.29.19-.46.19Z"/>
          <path class="cls-18" d="m60.75,66.15c-.17,0-.34-.07-.46-.19-.12-.12-.19-.29-.19-.46s.07-.34.19-.46c.24-.24.68-.25.92,0,.12.12.19.28.19.46,0,.17-.07.34-.19.46-.12.12-.29.19-.46.19Z"/>
          <path class="cls-18" d="m44.5,71.65c-.17,0-.34-.07-.46-.19-.12-.12-.19-.29-.19-.46s.07-.34.19-.46c.24-.24.69-.24.92,0,.12.12.19.29.19.46s-.07.34-.19.46c-.12.12-.29.19-.46.19Z"/>
          <path class="cls-18" d="m24.5,1.4c-.17,0-.34-.07-.46-.19-.12-.12-.19-.29-.19-.46,0-.18.07-.34.19-.46.23-.24.68-.25.92,0,.12.12.19.29.19.46s-.07.33-.19.46c-.12.12-.28.19-.46.19Z"/>
        </g>
        <path class="cls-18" d="m0,23.6c-.09,0-.18-.04-.25-.1-.06-.07-.1-.16-.1-.25s.04-.18.1-.25c.12-.12.36-.13.5,0,.06.07.1.16.1.25s-.04.18-.1.25c-.07.06-.16.1-.25.1Z"/>
      </g>
    </pattern>
  </defs>
  <g id="animation">
    <g id="Rectangle_1" data-name="Rectangle 1">
      <rect class="cls-7" y="34.43" width="1015" height="710" rx="53" ry="53"/>
      <rect class="cls-4" x=".5" y="34.93" width="1014" height="709" rx="52.5" ry="52.5"/>
    </g>
    <rect class="cls-21" x="17.13" y="29.88" width="938.7" height="343.33" rx="15.89" ry="15.89" transform="translate(-12.35 32.87) rotate(-3.82)"/>
    <path class="cls-25" d="m950.37,342.61L45.46,403.05c-8.75.58-16.32-6.04-16.91-14.79L7.79,77.39c-.58-8.75,6.04-16.32,14.79-16.91L927.49.04c8.75-.58,16.32,6.04,16.91,14.79l20.77,310.87c.58,8.75-6.04,16.32-14.79,16.91Z"/>
    <rect class="cls-17" x="66.61" y="413.12" width="938.7" height="343.33" rx="15.89" ry="15.89" transform="translate(72.78 -59.18) rotate(6.78)"/>
    <path class="cls-5" d="m194.54,338.86c19.42-6.94,49.37-15.95,86.67-20,124.78-13.56,165.8,46.31,276.67,32.67,50.09-6.16,34.44-17.49,150-48,56.36-14.88,164.55-39.77,169.33-26,1.51,4.35-6.82,14-50.67,37.33"/>
    <path class="cls-24" d="m217.87,382.39c-.48.1-.96.21-1.44.31-.03.01-.05.01-.08.02h-.01c-19.04,3.92-37.75,1.36-73.47-3.81-36.47-5.28-79.46-11.5-81.59-22.55v-.03c-.04-.2-.07-.4-.08-.6-.06-1.24.17-6.53,20.89-15.05,37.71-15.49,69.75-11.81,116.89-9.33,56.32,2.97,76.54,1.2,82.74,4.96t.02,0c.33.26.66.52.99.78.56.54.93,1.2,1.14,1.96,3.22,11.45-30.67,35.42-66,43.33Z"/>
    <path class="cls-20" d="m282.73,337.1c-.33-.26-.66-.52-.99-.78.38.24.71.49.99.78Z"/>
    <path class="cls-23" d="m285.29,355.11c-1.08,5.08-4.4,9.13-17.59,20.16-15.21,12.72-23,19.14-32.27,22.25-3.96,1.33-10.43,3.07-18.45,3.34-14.32.48-25.07-4.03-29.56-5.79-25.52-9.97-68.49-16.75-97.99-17.1-7.23-.09-20.77.14-26.23-8.22-2.94-4.5-2.54-9.94-1.92-13.39,2.13,11.05,45.12,17.27,81.59,22.55,35.72,5.17,54.43,7.73,73.47,3.81h.01s.05-.01.08-.02c.48-.1.96-.21,1.44-.31,35.33-7.91,69.22-31.88,66-43.33-.21-.76-.58-1.42-1.14-1.96.14.11.27.21.41.32.27.49.65,1.22,1.04,2.13,0,0,2.93,6.97,1.11,15.56Z"/>
    <path class="cls-10" d="m233.3,357.41l.35,3.53c.13,1.31-4.67,2.87-10.73,3.47-6.06.61-11.08.03-11.21-1.28l-.35-3.53c.07.7,1.56,1.19,3.86,1.39,1.98.18,4.55.16,7.35-.12s5.33-.76,7.22-1.33c2.22-.65,3.58-1.42,3.51-2.13Z"/>
    <path class="cls-9" d="m233.3,357.41c.25,1.46-5.29,4.13-10.74,4.65-5.31.5-11.15-.99-11.2-2.45-.05-1.54,6.36-3.04,10.74-3.47,4.36-.43,10.95-.24,11.2,1.28Z"/>
    <polygon class="cls-9" points="241.84 349.22 239.21 348.75 248.96 340.54 251.52 340.64 241.84 349.22"/>
    <polygon class="cls-9" points="237.51 344.2 238.98 343.19 254.28 344.29 253.15 345.93 237.51 344.2"/>
    <polygon class="cls-10" points="241.7 351.05 239.08 350.63 239.21 348.71 241.84 349.22 241.7 351.05"/>
    <polygon class="cls-10" points="246.39 346.34 241.7 351.05 241.84 349.22 246.39 345.18 246.39 346.34"/>
    <polygon class="cls-10" points="253.19 347.03 246.39 346.34 246.39 345.18 253.15 345.93 253.19 347.03"/>
    <polygon class="cls-10" points="251.52 341.35 248.6 343.88 247.9 343.83 251.52 340.64 251.52 341.35"/>
    <polygon class="cls-10" points="242.96 345.59 237.51 344.94 237.51 344.2 243.79 344.89 242.96 345.59"/>
    <polygon class="cls-10" points="254.28 345.23 253.19 347.03 253.15 345.93 254.28 344.29 254.28 345.23"/>
    <polygon class="cls-14" points="123.85 365.96 103.82 362.44 106.68 360.68 126.71 364.19 123.85 365.96"/>
    <polygon class="cls-11" points="162.62 370.94 140.96 367.82 143.54 366.54 165.48 369.17 162.62 370.94"/>
    <polygon class="cls-13" points="162.62 372.19 140.96 369.17 140.96 367.82 162.62 370.94 162.62 372.19"/>
    <polygon class="cls-13" points="165.48 370.43 162.62 372.28 162.62 370.94 165.48 369.17 165.48 370.43"/>
    <polygon class="cls-22" points="123.91 367.38 103.89 363.87 103.82 362.44 123.85 365.96 123.91 367.38"/>
    <polygon class="cls-22" points="126.77 365.62 123.91 367.38 123.85 365.96 126.71 364.19 126.77 365.62"/>
    <path class="cls-23" d="m830.2,201.09c-1.09-3.99-4.5-7.02-8.8-7.5-.05,0-.1,0-.15-.02l-87.46-8.42c-2.88-.27-5.76.68-7.91,2.63-2.14,1.94-3.37,4.72-3.37,7.62v127.66c0,5.11,3.82,9.49,8.88,10.2l87.46,12.16c.47.07.94.1,1.42.1,1.17,0,2.31-.2,3.4-.58,1.22-.42,2.36-1.08,3.36-1.95,1.45-1.26,2.5-2.89,3.06-4.68.04-.13.08-.27.11-.4.24-.87.36-1.77.36-2.69v-131.4c0-.95-.13-1.86-.36-2.73Zm-6.36,134.13c0,1.05-.43,2.01-1.23,2.7-.79.69-1.79.99-2.84.84l-87.45-12.16c-1.76-.25-3.09-1.77-3.09-3.54v-127.66c0-1.02.42-1.96,1.17-2.65.76-.68,1.73-1.01,2.75-.91l87.46,8.43c1.84.17,3.23,1.7,3.23,3.55v131.4Z"/>
    <path class="cls-12" d="m823.84,203.82v131.4c0,1.05-.43,2.01-1.23,2.7-.79.69-1.79.99-2.84.84l-87.45-12.16c-1.76-.25-3.09-1.77-3.09-3.54-2.94-11.52-5.77-25.92-7.15-42.64h0c-.57-6.87-.89-14.13-.88-21.73.06-25.64,3.93-47.24,8.03-63.29,0-.29.03-.74.22-1.25.2-.53.52-1,.95-1.4.76-.68,1.73-1.01,2.75-.91l87.46,8.43c.38.03.86.13,1.35.4,1.62.9,1.85,2.89,1.88,3.15Z"/>
    <path class="cls-15" d="m871.31,192.3l-1.76,131.02c-.01.71-.42,1.35-1.05,1.66l-38.88,17.32-4.42,1.96c.65-.35,1.26-.78,1.83-1.27,1.45-1.26,2.5-2.89,3.06-4.68l.11-.06v-137.16c-.9-3.29-3.38-5.93-6.63-7.01l-91.94-8.91,43.8-1.42,88,5.22-.2.03c1.52-.12,4.25-.13,6.56,1.69.65.52,1.15,1.09,1.52,1.61Z"/>
    <path class="cls-15" d="m825.2,344.26c-.49.27-1,.5-1.53.68l1.53-.68Z"/>
    <polygon class="cls-19" points="860.21 225.73 835.87 229.31 835.87 222.16 860.21 218.58 860.21 225.73"/>
    <polygon class="cls-19" points="860.21 238.84 835.87 242.42 835.87 235.27 860.21 231.69 860.21 238.84"/>
    <polygon class="cls-19" points="860.21 251.95 835.87 255.53 835.87 248.38 860.21 244.81 860.21 251.95"/>
    <circle class="cls-6" cx="272.34" cy="133.03" r="42.33" transform="translate(80.3 367.51) rotate(-76.72)"/>
    <path class="cls-6" d="m336.06,79.86c18.48-24.83,45.96-43.49,75.36-52.98,30.48-9.19,63.05-10.27,93.71-1.45,20.14,5.39,38.83,14.58,54.66,26.69,1,.77,1.19,2.2.43,3.2-.6.78-1.6,1.07-2.49.8-18.2-5.51-36.93-8.62-55.68-8.41-18.1.2-35.72,3.84-53.07,8.17-14.95,3.84-35.81,12.02-50.63,17.06-12.4,4.39-26.57,9.84-39.12,14.56-4.55,1.67-9.14,3.41-13.96,4.95-7.49,2.39-13.74-6.22-9.21-12.59h0Z"/>
    <path class="cls-6" d="m361.12,149.07c11.96.22,28.21,2.1,40.14,3.16,3.3.33,11.42,1.15,14.58,1.54,10.98,1.45,22.95,3.14,33.98,3.91,23.47,2.53,46.61,2.48,70.3-.26,1.58-.18,2.41,2.1.82,2.87-14.08,6.77-29.31,11.77-44.72,15.33-12.04,2.88-24.57,4.86-36.98,5.07-10.69.24-21.49.03-32.02-1.97-10.47-1.97-20.87-5.14-30.63-9.41-6.53-2.88-12.88-6.18-18.79-10.38-2.45-1.74-3.02-5.13-1.29-7.58,1.1-1.54,2.84-2.34,4.6-2.29h0Z"/>
    <rect class="cls-12" x="126.18" y="439.3" width="256.21" height="224.01" transform="translate(69.89 -27.14) rotate(7.08)"/>
    <rect class="cls-12" x="423.84" y="472.78" width="256.21" height="224.01" transform="translate(76.29 -63.57) rotate(7.08)"/>
    <rect class="cls-12" x="719.94" y="513.04" width="256.21" height="224.01" transform="translate(83.5 -99.76) rotate(7.08)"/>
    <path class="cls-17" d="m823.84,302.05v33.17c0,.38-.06.75-.17,1.09-.19.62-.55,1.17-1.06,1.61-.79.69-1.79.99-2.84.84l-87.45-12.16c-1.76-.25-3.09-1.77-3.09-3.54-1.91-7.48-3.77-16.17-5.22-25.93-.79-5.27-1.45-10.85-1.93-16.71h0s101.76,21.63,101.76,21.63Z"/>
    <path class="cls-16" d="m823.67,318.45v17.86c-.19.62-.55,1.17-1.06,1.61-.79.69-1.79.99-2.84.84l-87.45-12.16c-1.76-.25-3.09-1.77-3.09-3.54-1.91-7.48-3.77-16.17-5.22-25.93l99.66,21.32Z"/>
    <ellipse class="cls-17" cx="742.88" cy="263.49" rx="3.17" ry="5.07"/>
    <ellipse class="cls-17" cx="781.68" cy="223.94" rx="3.17" ry="5.07"/>
    <ellipse class="cls-17" cx="746.05" cy="223.65" rx="3.17" ry="5.07"/>
    <ellipse class="cls-17" cx="801.47" cy="263.49" rx="3.17" ry="5.07"/>
    <path class="cls-6" d="m148.13,468.76c-3.56,7.91,4.85,15.29,14.8,38.48,5.3,12.36,8.31,22.86,9.96,29.33,5.95-7.52,15.29-18.2,28.52-29.06,14.7-12.07,23.57-15.65,23.95-23.68.46-9.68-11.55-23.31-23.95-20.72-7.18,1.5-13.04,8.14-15.07,16.68.05-1.41.31-12.49-7.53-18.3-10.03-7.42-26.78-1.39-30.67,7.26Z"/>
    <path class="cls-6" d="m278.84,483.5c-3.56,7.91,4.85,15.29,14.8,38.48,5.3,12.36,8.31,22.86,9.96,29.33,5.95-7.52,15.29-18.2,28.52-29.06,14.7-12.07,23.57-15.65,23.95-23.68.46-9.68-11.55-23.31-23.95-20.72-7.18,1.5-13.04,8.14-15.07,16.68.05-1.41.31-12.49-7.53-18.3-10.03-7.42-26.78-1.39-30.67,7.26Z"/>
    <path class="cls-6" d="m216.08,573.26c-3.56,7.91,4.85,15.29,14.8,38.48,5.3,12.36,8.31,22.86,9.96,29.33,5.95-7.52,15.29-18.2,28.52-29.06,14.7-12.07,23.57-15.65,23.95-23.68.46-9.68-11.55-23.31-23.95-20.72-7.18,1.5-13.04,8.14-15.07,16.68.05-1.41.31-12.49-7.53-18.3-10.03-7.42-26.78-1.39-30.67,7.26Z"/>
    <circle class="cls-8" cx="552.51" cy="580.23" r="85.25"/>
    <line class="cls-3" x1="552.51" y1="580.23" x2="560.19" y2="515.45"/>
    <line class="cls-2" x1="552.51" y1="580.72" x2="581.31" y2="605.12"/>
    <path class="cls-8" d="m847.9,574.89c-4.96,23.11,5.84,34.85-2.49,44.86-3.46,4.16-8.4,5.27-18.28,7.48-8.59,1.92-26.11,5.84-42.37-3.32-8.6-4.85-13.2-11.3-19.94-20.77-6.72-9.43-10.08-14.15-10.2-20.75-.17-8.92,6.05-15.49,18.51-28.26,13.94-14.3,21.13-21.67,32.16-22.41,2.82-.19,9.75,2.08,23.5,6.63,20.95,6.93,23.48,8.77,24.92,11.63,3.25,6.44-2.75,10.61-5.82,24.92Z"/>
    <path class="cls-8" d="m854.41,630.18c7.77-22.32-1.5-35.31,8-44.21,3.95-3.7,8.99-4.19,19.06-5.17,8.76-.85,26.64-2.58,41.64,8.52,7.94,5.87,11.7,12.84,17.23,23.07,5.5,10.19,8.26,15.28,7.57,21.85-.93,8.87-7.92,14.62-21.85,25.77-15.59,12.47-23.64,18.9-34.68,18.28-2.82-.16-9.42-3.27-22.5-9.47-19.93-9.46-22.22-11.6-23.3-14.61-2.44-6.79,4.03-10.19,8.84-24.02Z"/>
    <path class="cls-8" d="m836.87,657.42c9.24,13.91,20.51,14.25,21.47,23.41.4,3.81-1.48,6.85-5.24,12.94-3.27,5.29-9.93,16.1-22.6,19.79-6.7,1.96-12.23,1.1-20.35-.17-8.09-1.26-12.13-1.89-15.53-5.08-4.6-4.32-4.85-10.71-5.16-23.32-.35-14.11-.53-21.38,4.54-27.33,1.29-1.52,5.86-3.91,14.95-8.62,13.84-7.18,16.03-7.55,18.19-6.87,4.86,1.53,4.01,6.63,9.74,15.24Z"/>
  </g>
</svg>