<?xml version="1.0" encoding="UTF-8"?>
<svg id="Layer_2" data-name="Layer 2" xmlns="http://www.w3.org/2000/svg" viewBox="0 0 143.25 61.03">
  <defs>
    <style>
      .cls-1 {
        letter-spacing: .02em;
      }

      .cls-2 {
        fill: #fdfaf2;
      }

      .cls-3 {
        fill: #7c3f1b;
      }

      .cls-4 {
        fill: #231f20;
        font-family: MyriadPro-Regular, 'Myriad Pro';
        font-size: 15.73px;
      }

      .cls-5 {
        letter-spacing: -.03em;
      }

      .cls-6 {
        letter-spacing: -.01em;
      }
    </style>
  </defs>
  <g id="Layer_2-2" data-name="Layer 2">
    <path class="cls-2" d="m143.25,29.38v.3c0,11.39-6.48,21.26-15.95,26.14-4.02,2.07-8.59,3.24-13.43,3.24H32.66c-16.23,0-29.38-13.15-29.38-29.38,0-8.09,3.27-15.42,8.57-20.74,1.26-1.27,2.65-2.43,4.13-3.44C20.69,2.25,26.39.33,32.55.3L113.76,0c16.27-.06,29.49,13.11,29.49,29.38Z"/>
    <path class="cls-3" d="m127.3,55.82c-4.75,3.28-10.5,5.21-16.71,5.21H29.38C13.15,61.03,0,47.88,0,31.65c0-8.09,3.27-15.42,8.57-20.74,2.16-2.16,4.66-4,7.41-5.41-1.48,1.02-2.86,2.17-4.13,3.44C6.55,14.26,3.28,21.6,3.28,29.69c0,16.23,13.15,29.38,29.38,29.38h81.21c4.84,0,9.41-1.17,13.43-3.24Z"/>
    <text class="cls-4" transform="translate(43.31 34.36)"><tspan class="cls-5" x="0" y="0">P</tspan><tspan x="7.97" y="0">o</tspan><tspan class="cls-1" x="16.61" y="0">r</tspan><tspan x="22.13" y="0">t</tspan><tspan class="cls-6" x="27.34" y="0">f</tspan><tspan x="31.73" y="0">olio</tspan></text>
  </g>
</svg>