<?xml version="1.0" encoding="UTF-8"?>
<svg id="Layer_2" data-name="Layer 2" xmlns="http://www.w3.org/2000/svg" viewBox="0 0 1015 710">
  <defs>
    <style>
      .cls-1 {
        fill: #f1be5b;
      }

      .cls-2 {
        fill: #fff;
      }

      .cls-3 {
        fill: #da7440;
      }

      .cls-4 {
        fill: #82672e;
      }

      .cls-5 {
        fill: #5769b1;
      }

      .cls-6 {
        fill: none;
        stroke: #707071;
      }
    </style>
  </defs>
  <g id="emnesite">
    <g id="Rectangle_1" data-name="Rectangle 1">
      <rect class="cls-2" width="1015" height="710" rx="53" ry="53"/>
      <rect class="cls-6" x=".5" y=".5" width="1014" height="709" rx="52.5" ry="52.5"/>
    </g>
    <g>
      <rect class="cls-4" x="669.56" y="58.34" width="224.13" height="415.81" rx="14.34" ry="14.34"/>
      <rect class="cls-1" x="679.56" y="53.34" width="224.13" height="415.81" rx="14.34" ry="14.34"/>
    </g>
    <ellipse class="cls-5" cx="799.94" cy="241.09" rx="62.62" ry="31.9"/>
    <rect class="cls-5" x="711.77" y="95.73" width="150.79" height="19.18" rx="3.25" ry="3.25"/>
    <rect class="cls-5" x="755.46" y="66.96" width="75.67" height="19.18" rx="3.25" ry="3.25"/>
    <rect class="cls-5" x="770.63" y="401.6" width="58.61" height="35.17" rx="3.25" ry="3.25"/>
    <g>
      <rect class="cls-4" x="365.72" y="58.34" width="224.13" height="415.81" rx="14.34" ry="14.34"/>
      <rect class="cls-1" x="375.72" y="53.34" width="224.13" height="415.81" rx="14.34" ry="14.34"/>
    </g>
    <g>
      <rect class="cls-4" x="38.53" y="58.34" width="224.13" height="415.81" rx="14.34" ry="14.34"/>
      <rect class="cls-1" x="48.53" y="53.34" width="224.13" height="415.81" rx="14.34" ry="14.34"/>
    </g>
    <rect class="cls-5" x="412.39" y="95.73" width="150.79" height="19.18" rx="3.25" ry="3.25"/>
    <rect class="cls-5" x="456.09" y="66.96" width="75.67" height="19.18" rx="3.25" ry="3.25"/>
    <rect class="cls-5" x="73.82" y="95.73" width="150.79" height="19.18" rx="3.25" ry="3.25"/>
    <rect class="cls-5" x="117.52" y="66.96" width="75.67" height="19.18" rx="3.25" ry="3.25"/>
    <rect class="cls-5" x="459.25" y="401.6" width="58.61" height="35.17" rx="3.25" ry="3.25"/>
    <rect class="cls-5" x="126.04" y="401.6" width="58.61" height="35.17" rx="3.25" ry="3.25"/>
    <path class="cls-5" d="m210.64,222.46c0,27.64-22.41,79.29-50.04,79.29s-50.04-51.65-50.04-79.29,22.41-50.04,50.04-50.04,50.04,22.41,50.04,50.04Z"/>
    <rect class="cls-5" x="138.8" y="314.92" width="44.37" height="22.48" rx="4.72" ry="4.72"/>
    <path class="cls-5" d="m540.9,163.33h0c-7.39-7.39-19.38-7.39-26.77,0l-62.8,62.8-15.73,4.22c-4.95,1.33-6.6,7.51-2.98,11.14,2.69,1.62,6.03,3.96,5.58,5.58-.39,1.43-3.38,1.15-3.75,2.5-.53,1.9,5.02,3.71,10.31,8.71,5.94,5.62,8.08,11.97,10.08,11.34,1.29-.41.98-3.23,2.33-3.58,1.36-.36,3.26,2.11,4.99,4.99,3.46,3.46,9.35,2.13,10.98-2.49l5.82-16.49,61.95-61.95c7.39-7.39,7.39-19.38,0-26.77Z"/>
    <rect class="cls-3" x="59.84" y="548.42" width="191.03" height="64.15" rx="15.98" ry="15.98"/>
    <rect class="cls-3" x="380.94" y="548.42" width="191.03" height="64.15" rx="15.98" ry="15.98"/>
    <rect class="cls-3" x="691.65" y="548.42" width="191.03" height="64.15" rx="15.98" ry="15.98"/>
  </g>
</svg>