<?xml version="1.0" encoding="UTF-8"?>
<svg id="Layer_2" data-name="Layer 2" xmlns="http://www.w3.org/2000/svg" viewBox="0 0 143.25 61.03">
  <defs>
    <style>
      .button_portfolio1 {
        fill: #fdfaf2;
      }

      .button_portfolio1 {
        fill: #7c3f1b;
      }
    </style>
  </defs>
  <g id="Layer_2-2" data-name="Layer 2">
    <path class="button_portfolio1" d="m143.25,29.38v.3c0,11.39-6.48,21.26-15.95,26.14-4.02,2.07-8.59,3.24-13.43,3.24H32.66c-16.23,0-29.38-13.15-29.38-29.38,0-8.09,3.27-15.42,8.57-20.74,1.26-1.27,2.65-2.43,4.13-3.44C20.69,2.25,26.39.33,32.55.3L113.76,0c16.27-.06,29.49,13.11,29.49,29.38Z"/>
    <path class="button_portfolio2" d="m127.3,55.82c-4.75,3.28-10.5,5.21-16.71,5.21H29.38C13.15,61.03,0,47.88,0,31.65c0-8.09,3.27-15.42,8.57-20.74,2.16-2.16,4.66-4,7.41-5.41-1.48,1.02-2.86,2.17-4.13,3.44C6.55,14.26,3.28,21.6,3.28,29.69c0,16.23,13.15,29.38,29.38,29.38h81.21c4.84,0,9.41-1.17,13.43-3.24Z"/>
  </g>
</svg>