<?xml version="1.0" encoding="UTF-8"?>
<svg id="Layer_2" data-name="Layer 2" xmlns="http://www.w3.org/2000/svg" viewBox="0 0 504.98 517.2">
  <defs>
    <style>
      .cls-1 {
        fill: #f29697;
      }

      .cls-2 {
        fill: #e3d5b3;
      }

      .cls-3 {
        fill: #fff;
      }

      .cls-4 {
        fill: #fbb03c;
      }

      .cls-5 {
        fill: #37423e;
      }

      .cls-6 {
        fill: #2b74b4;
      }
    </style>
  </defs>
  <g id="ommig">
    <g>
      <rect class="cls-2" x="0" width="504.98" height="517.2"/>
      <circle class="cls-4" cx="252.49" cy="178.86" r="143.72"/>
      <path class="cls-1" d="m504.98,233.17v284.03H0V158.28c1.69.26,3.5.54,5.4.84,45.55,6.21,81.17,28.49,113.6,52.64,5.79,4.31,12.18,8.39,19.02,11.93,6.84,3.54,14.13,6.53,21.73,8.67,19.82,5.41,40.84,6.2,62.22,8.59,32.07,3.18,59.14,14.59,86.94,27.59,17.81,8.49,37.77,9.82,55.94.53,29.8-15.69,59.78-34.13,93.57-38.66,13.07-1.75,26.72-1.42,41.14,1.96,1.92.28,3.73.55,5.43.8Z"/>
      <path class="cls-6" d="m504.98,220.41v296.79H0v-156.77c3.68-.69,7.89-1.52,12.58-2.48,49.05-11.15,77.2-42.85,115.33-66.25,7.84-4.65,15.94-9.06,24.63-12.5,19.55-7.88,42.35-3.85,60.52,5.46,30.64,15.93,55.9,39.7,87.91,51.98,8,3.07,16.43,5.42,25.46,6.69,24.16,2.97,45.54-8.1,60.86-20.68,27.79-22.65,42.76-47.81,66.98-73.22,1.33-1.42,2.71-2.83,4.14-4.2,12.13-11.74,27.66-21.64,46.57-24.82Z"/>
      <path class="cls-3" d="m376.76,171.15s0,.06.01.09c0-.01,0-.03,0-.05"/>
      <path class="cls-3" d="m398.33,488.75c.09,0,.18,0,.26,0-.02-.55-.04-1.1-.05-1.65"/>
      <path class="cls-5" d="m504.98,472.71v44.5H0v-98.97c11.8-2.34,23.87-4.23,36.42-4.62,6.49-.2,13.1,0,19.87.74,13.54,1.29,25.65,4.81,36.7,9.26,28.86,12.41,47.74,29.64,81.95,37.6,6.77,1.57,13.65,2.74,20.61,3.6,6.96.86,14.01,1.42,21.11,1.77,8.87.36,17.78.73,26.68.18,23.52-1.39,47.13-2.91,70.6-3.58,7.86-.22,15.7-.35,23.57-.35,55.84.76,113.49,1.71,167.46,9.86Z"/>
    </g>
  </g>
</svg>