<?xml version="1.0" encoding="UTF-8"?>
<svg id="Layer_2" data-name="Layer 2" xmlns="http://www.w3.org/2000/svg" xmlns:xlink="http://www.w3.org/1999/xlink" viewBox="0 0 1015 710">
  <defs>
    <style>
      .cls-1 {
        stroke: #f1f2d6;
        stroke-width: 3px;
      }

      .cls-1, .cls-2, .cls-3, .cls-4 {
        fill: none;
      }

      .cls-1, .cls-2, .cls-4 {
        stroke-miterlimit: 10;
      }

      .cls-5, .cls-6, .cls-7, .cls-8, .cls-9 {
        fill: #f1be5b;
      }

      .cls-10 {
        fill: #fff;
      }

      .cls-11 {
        fill: #2b74b4;
      }

      .cls-12, .cls-13, .cls-14 {
        fill: #5769b1;
      }

      .cls-2 {
        stroke: #5769b1;
        stroke-width: 4px;
      }

      .cls-13 {
        filter: url(#drop-shadow-4);
      }

      .cls-14 {
        filter: url(#drop-shadow-3);
      }

      .cls-6 {
        filter: url(#drop-shadow-2);
      }

      .cls-7 {
        filter: url(#drop-shadow-6);
      }

      .cls-8 {
        filter: url(#drop-shadow-1);
      }

      .cls-9 {
        filter: url(#drop-shadow-7);
      }

      .cls-15 {
        fill: #f29058;
        filter: url(#drop-shadow-5);
      }

      .cls-3 {
        stroke: #707071;
      }

      .cls-4 {
        stroke: #f1be5b;
        stroke-width: 7px;
      }
    </style>
    <filter id="drop-shadow-1" filterUnits="userSpaceOnUse">
      <feOffset dx="2" dy="2"/>
      <feGaussianBlur result="blur" stdDeviation="0"/>
      <feFlood flood-color="#000" flood-opacity=".7"/>
      <feComposite in2="blur" operator="in"/>
      <feComposite in="SourceGraphic"/>
    </filter>
    <filter id="drop-shadow-2" filterUnits="userSpaceOnUse">
      <feOffset dx="2" dy="2"/>
      <feGaussianBlur result="blur-2" stdDeviation="0"/>
      <feFlood flood-color="#000" flood-opacity=".7"/>
      <feComposite in2="blur-2" operator="in"/>
      <feComposite in="SourceGraphic"/>
    </filter>
    <filter id="drop-shadow-3" filterUnits="userSpaceOnUse">
      <feOffset dx="3" dy=".82"/>
      <feGaussianBlur result="blur-3" stdDeviation="0"/>
      <feFlood flood-color="#000" flood-opacity="1"/>
      <feComposite in2="blur-3" operator="in"/>
      <feComposite in="SourceGraphic"/>
    </filter>
    <filter id="drop-shadow-4" filterUnits="userSpaceOnUse">
      <feOffset dx="3" dy=".82"/>
      <feGaussianBlur result="blur-4" stdDeviation="0"/>
      <feFlood flood-color="#000" flood-opacity="1"/>
      <feComposite in2="blur-4" operator="in"/>
      <feComposite in="SourceGraphic"/>
    </filter>
    <filter id="drop-shadow-5" filterUnits="userSpaceOnUse">
      <feOffset dx="2" dy="1.51"/>
      <feGaussianBlur result="blur-5" stdDeviation="0"/>
      <feFlood flood-color="#000" flood-opacity="1"/>
      <feComposite in2="blur-5" operator="in"/>
      <feComposite in="SourceGraphic"/>
    </filter>
    <filter id="drop-shadow-6" filterUnits="userSpaceOnUse">
      <feOffset dx="3" dy="1.51"/>
      <feGaussianBlur result="blur-6" stdDeviation="0"/>
      <feFlood flood-color="#000" flood-opacity="1"/>
      <feComposite in2="blur-6" operator="in"/>
      <feComposite in="SourceGraphic"/>
    </filter>
    <filter id="drop-shadow-7" filterUnits="userSpaceOnUse">
      <feOffset dx="2" dy="2"/>
      <feGaussianBlur result="blur-7" stdDeviation="0"/>
      <feFlood flood-color="#000" flood-opacity=".7"/>
      <feComposite in2="blur-7" operator="in"/>
      <feComposite in="SourceGraphic"/>
    </filter>
  </defs>
  <g id="pitch">
    <g id="Rectangle_1" data-name="Rectangle 1">
      <rect class="cls-10" width="1015" height="710" rx="53" ry="53"/>
      <rect class="cls-3" x=".5" y=".5" width="1014" height="709" rx="52.5" ry="52.5"/>
    </g>
    <rect class="cls-5" x="85.7" y="62.72" width="294.48" height="16.35" rx="3.07" ry="3.07"/>
    <line class="cls-1" x1="94.21" y1="71.18" x2="369.76" y2="71.18"/>
    <circle class="cls-5" cx="152.77" cy="71.18" r="28.58"/>
    <rect class="cls-8" x="486.54" y="87.13" width="176.72" height="358.54" rx="14.61" ry="14.61"/>
    <path class="cls-6" d="m197.93,327.43H50.44c-8.07,0-14.61,6.54-14.61,14.61v134.92c8.23-34.85,39.52-60.8,76.89-60.8,43.64,0,79.02,35.38,79.02,79.02s-35.38,79.02-79.02,79.02c-37.37,0-68.65-25.94-76.89-60.8v157.94c0,8.07,6.54,14.61,14.61,14.61h147.49c8.07,0,14.61-6.54,14.61-14.61v-329.32c0-8.07-6.54-14.61-14.61-14.61Z"/>
    <g>
      <rect class="cls-12" x="535.69" y="122.65" width="104.43" height="34.02" rx="3.73" ry="3.73"/>
      <rect class="cls-12" x="501.95" y="195.71" width="88.04" height="20.57" rx="3.73" ry="3.73" transform="translate(339.97 751.97) rotate(-90)"/>
      <rect class="cls-12" x="542.54" y="208.65" width="62.16" height="20.57" rx="3.73" ry="3.73" transform="translate(354.68 792.55) rotate(-90)"/>
      <rect class="cls-12" x="588.46" y="161.98" width="51.65" height="20.57" rx="3.73" ry="3.73"/>
      <rect class="cls-12" x="588.46" y="202.06" width="51.65" height="20.57" rx="3.73" ry="3.73"/>
      <rect class="cls-12" x="563.33" y="161.98" width="20.57" height="20.57" rx="3.73" ry="3.73" transform="translate(1147.23 344.52) rotate(-180)"/>
      <rect class="cls-12" x="619.54" y="229.45" width="20.57" height="20.57" rx="3.73" ry="3.73" transform="translate(1259.66 479.46) rotate(-180)"/>
      <rect class="cls-12" x="588.46" y="229.45" width="26.89" height="20.57" rx="3.73" ry="3.73" transform="translate(1203.82 479.46) rotate(-180)"/>
    </g>
    <line class="cls-2" x1="341.99" y1="228.63" x2="341.99" y2="669.25"/>
    <line class="cls-2" x1="571.38" y1="222.09" x2="571.38" y2="662.71"/>
    <line class="cls-2" x1="663.26" y1="362.17" x2="222.64" y2="362.17"/>
    <line class="cls-2" x1="663.26" y1="540.04" x2="222.64" y2="540.04"/>
    <rect class="cls-14" x="742.27" y="112.68" width="27.26" height="27.26" transform="translate(-10.47 123.24) rotate(-9.26)"/>
    <rect class="cls-13" x="737.93" y="86.02" width="27.26" height="27.26" transform="translate(-6.24 122.2) rotate(-9.26)"/>
    <circle class="cls-15" cx="907.41" cy="86.07" r="28.99"/>
    <line class="cls-4" x1="730.41" y1="148.4" x2="931.19" y2="115.06"/>
    <rect class="cls-11" x="767.1" y="231.17" width="130" height="30.58" rx=".38" ry=".38"/>
    <rect class="cls-11" x="767.1" y="276.54" width="130" height="17.16" rx=".38" ry=".38"/>
    <rect class="cls-11" x="767.1" y="305.88" width="130" height="7.47" rx=".38" ry=".38"/>
    <rect class="cls-11" x="767.1" y="323.96" width="130" height="5.08" rx=".38" ry=".38"/>
    <rect class="cls-11" x="767.1" y="336.19" width="130" height="3.3" rx=".38" ry=".38"/>
    <path class="cls-7" d="m829,136.03c.57-.98,1.98-.98,2.55,0l16.81,29.12,16.81,29.12c.57.98-.14,2.21-1.27,2.21h-67.25c-1.13,0-1.84-1.23-1.27-2.21l16.81-29.12,16.81-29.12Z"/>
    <rect class="cls-9" x="735.43" y="196.48" width="176.72" height="358.54" rx="14.61" ry="14.61"/>
    <rect class="cls-12" x="755.9" y="231.17" width="139.34" height="30.76" rx="5.73" ry="5.73"/>
    <rect class="cls-12" x="755.9" y="274.9" width="139.34" height="20.45" rx="5.73" ry="5.73"/>
    <rect class="cls-12" x="755.9" y="305.42" width="139.34" height="15.86" rx="5.73" ry="5.73"/>
    <rect class="cls-12" x="755.9" y="326.72" width="139.34" height="8.77" rx="2.94" ry="2.94"/>
    <rect class="cls-12" x="755.9" y="340.94" width="139.34" height="5.87" rx="2.94" ry="2.94"/>
    <g>
      <rect class="cls-12" x="765.65" y="387.1" width="36.11" height="36.11" rx="6.09" ry="6.09"/>
      <rect class="cls-12" x="765.65" y="427.62" width="36.11" height="36.11" rx="6.09" ry="6.09"/>
      <rect class="cls-12" x="805.74" y="387.1" width="36.11" height="36.11" rx="6.09" ry="6.09"/>
      <rect class="cls-12" x="805.74" y="427.62" width="36.11" height="36.11" rx="6.09" ry="6.09"/>
      <rect class="cls-12" x="845.83" y="387.1" width="36.11" height="36.11" rx="6.09" ry="6.09"/>
      <rect class="cls-12" x="845.83" y="427.62" width="36.11" height="36.11" rx="6.09" ry="6.09"/>
    </g>
    <rect class="cls-12" x="85.7" y="139.66" width="51.31" height="14.92" rx="3.38" ry="3.38"/>
    <rect class="cls-12" x="85.7" y="162.59" width="51.31" height="14.92" rx="3.38" ry="3.38"/>
    <rect class="cls-12" x="85.7" y="185.53" width="51.31" height="14.92" rx="3.38" ry="3.38"/>
  </g>
</svg>