<?xml version="1.0" encoding="UTF-8"?>
<svg id="Layer_2" data-name="Layer 2" xmlns="http://www.w3.org/2000/svg" viewBox="0 0 180.67 221.52">
  <defs>
    <style>
      .cls-1 {
        fill: #231f20;
      }
    </style>
  </defs>
  <g id="Layer_2-2" data-name="Layer 2">
    <g>
      <path class="cls-1" d="m3.45,11.65l-1.3,3.95H.47L4.73,3.04h1.96l4.29,12.56h-1.73l-1.34-3.95H3.45Zm4.12-1.27l-1.23-3.61c-.28-.82-.47-1.56-.65-2.29h-.04c-.19.75-.39,1.51-.63,2.27l-1.23,3.63h3.78Z"/>
      <path class="cls-1" d="m12.71,9.39c0-1.06-.02-1.98-.08-2.81h1.43l.06,1.77h.07c.41-1.21,1.4-1.97,2.5-1.97.19,0,.32.02.47.06v1.55c-.17-.04-.33-.06-.56-.06-1.16,0-1.97.88-2.2,2.1-.04.22-.07.48-.07.76v4.81h-1.62v-6.2Z"/>
      <path class="cls-1" d="m18.8,15.6c.04-.61.08-1.53.08-2.33V2.37h1.62v5.66h.04c.58-1.01,1.62-1.66,3.07-1.66,2.24,0,3.82,1.86,3.8,4.6,0,3.22-2.03,4.83-4.04,4.83-1.3,0-2.35-.5-3.02-1.7h-.06l-.08,1.49h-1.42Zm1.7-3.61c0,.2.04.41.07.6.32,1.14,1.27,1.92,2.46,1.92,1.71,0,2.74-1.4,2.74-3.47,0-1.81-.93-3.35-2.68-3.35-1.12,0-2.16.76-2.5,2.01-.04.19-.09.41-.09.67v1.62Z"/>
      <path class="cls-1" d="m30.39,11.39c.04,2.22,1.45,3.13,3.09,3.13,1.17,0,1.88-.21,2.5-.47l.28,1.17c-.58.26-1.56.56-3,.56-2.78,0-4.43-1.83-4.43-4.55s1.6-4.86,4.23-4.86c2.94,0,3.73,2.59,3.73,4.25,0,.34-.04.6-.06.76h-6.33Zm4.81-1.17c.02-1.04-.43-2.66-2.27-2.66-1.66,0-2.38,1.53-2.51,2.66h4.79Z"/>
      <path class="cls-1" d="m36.62,18.21c.75-.06,1.4-.26,1.79-.69.45-.52.62-1.23.62-3.39v-7.55h1.64v8.18c0,1.75-.28,2.89-1.08,3.71-.73.73-1.92,1.02-2.79,1.02l-.17-1.29Zm4.23-14.16c.02.54-.37,1.01-1.02,1.01-.62,0-1.01-.47-1.01-1.01,0-.58.43-1.02,1.04-1.02s.99.45.99,1.02Z"/>
      <path class="cls-1" d="m51.13,2.37v10.9c0,.8.02,1.71.08,2.33h-1.47l-.07-1.56h-.04c-.5,1.01-1.6,1.77-3.07,1.77-2.18,0-3.86-1.84-3.86-4.58-.02-3,1.84-4.84,4.04-4.84,1.38,0,2.31.65,2.72,1.38h.04V2.37h1.64Zm-1.64,7.88c0-.21-.02-.48-.07-.69-.24-1.04-1.14-1.9-2.37-1.9-1.7,0-2.7,1.49-2.7,3.48,0,1.83.89,3.33,2.66,3.33,1.1,0,2.11-.73,2.4-1.96.06-.22.07-.45.07-.71v-1.56Z"/>
      <path class="cls-1" d="m53.63,13.92c.48.32,1.34.65,2.16.65,1.19,0,1.75-.6,1.75-1.34,0-.78-.47-1.21-1.68-1.66-1.62-.58-2.38-1.47-2.38-2.55,0-1.45,1.17-2.65,3.11-2.65.91,0,1.71.26,2.22.56l-.41,1.19c-.35-.22-1.01-.52-1.84-.52-.97,0-1.51.56-1.51,1.23,0,.75.54,1.08,1.71,1.53,1.56.6,2.37,1.38,2.37,2.72,0,1.58-1.23,2.7-3.37,2.7-.99,0-1.9-.24-2.53-.62l.41-1.25Z"/>
      <path class="cls-1" d="m62.15,11.39c.04,2.22,1.45,3.13,3.09,3.13,1.17,0,1.88-.21,2.5-.47l.28,1.17c-.58.26-1.56.56-3,.56-2.78,0-4.43-1.83-4.43-4.55s1.6-4.86,4.23-4.86c2.94,0,3.73,2.59,3.73,4.25,0,.34-.04.6-.06.76h-6.33Zm4.81-1.17c.02-1.04-.43-2.66-2.27-2.66-1.66,0-2.38,1.53-2.51,2.66h4.79Z"/>
      <path class="cls-1" d="m70.57,9.39c0-1.06-.02-1.98-.08-2.81h1.43l.06,1.77h.07c.41-1.21,1.4-1.97,2.5-1.97.19,0,.32.02.47.06v1.55c-.17-.04-.33-.06-.56-.06-1.16,0-1.97.88-2.2,2.1-.04.22-.07.48-.07.76v4.81h-1.62v-6.2Z"/>
      <path class="cls-1" d="m77.39,15.6v-7.77h-1.27v-1.25h1.27v-.43c0-1.27.28-2.42,1.04-3.15.61-.6,1.43-.84,2.2-.84.58,0,1.08.13,1.4.26l-.22,1.27c-.24-.11-.58-.21-1.04-.21-1.4,0-1.75,1.23-1.75,2.61v.48h2.18v1.25h-2.18v7.77h-1.62Z"/>
      <path class="cls-1" d="m87.66,15.6l-.13-1.14h-.06c-.5.71-1.47,1.34-2.76,1.34-1.83,0-2.76-1.29-2.76-2.59,0-2.18,1.94-3.37,5.42-3.35v-.19c0-.75-.2-2.09-2.05-2.09-.84,0-1.71.26-2.35.67l-.37-1.08c.75-.48,1.83-.8,2.96-.8,2.76,0,3.43,1.88,3.43,3.69v3.37c0,.78.04,1.55.15,2.16h-1.49Zm-.24-4.6c-1.79-.04-3.82.28-3.82,2.03,0,1.06.71,1.57,1.55,1.57,1.17,0,1.92-.75,2.18-1.51.06-.17.09-.35.09-.52v-1.57Z"/>
      <path class="cls-1" d="m91.65,9.39c0-1.06-.02-1.98-.08-2.81h1.43l.06,1.77h.07c.41-1.21,1.4-1.97,2.5-1.97.19,0,.32.02.47.06v1.55c-.17-.04-.33-.06-.56-.06-1.16,0-1.97.88-2.2,2.1-.04.22-.07.48-.07.76v4.81h-1.62v-6.2Z"/>
      <path class="cls-1" d="m99.64,4.05c.02.56-.39,1.01-1.04,1.01-.58,0-.99-.45-.99-1.01s.43-1.02,1.02-1.02,1.01.45,1.01,1.02Zm-1.83,11.55V6.58h1.64v9.02h-1.64Z"/>
      <path class="cls-1" d="m102.17,9.02c0-.93-.02-1.7-.08-2.44h1.45l.09,1.49h.04c.45-.86,1.49-1.7,2.98-1.7,1.25,0,3.19.75,3.19,3.84v5.38h-1.64v-5.2c0-1.45-.54-2.66-2.09-2.66-1.08,0-1.92.76-2.2,1.68-.07.21-.11.48-.11.76v5.42h-1.64v-6.58Z"/>
      <path class="cls-1" d="m120.29,6.58c-.04.65-.07,1.38-.07,2.48v5.24c0,2.07-.41,3.33-1.29,4.12-.88.82-2.14,1.08-3.28,1.08s-2.27-.26-3-.75l.41-1.25c.6.37,1.53.71,2.65.71,1.68,0,2.91-.88,2.91-3.15v-1.01h-.04c-.5.84-1.47,1.51-2.87,1.51-2.24,0-3.84-1.9-3.84-4.4,0-3.06,1.99-4.79,4.06-4.79,1.57,0,2.42.82,2.81,1.56h.04l.07-1.36h1.43Zm-1.7,3.56c0-.28-.02-.52-.09-.75-.3-.95-1.1-1.73-2.29-1.73-1.56,0-2.68,1.32-2.68,3.41,0,1.77.89,3.24,2.66,3.24,1.01,0,1.92-.63,2.27-1.68.09-.28.13-.6.13-.88v-1.62Z"/>
      <path class="cls-1" d="m123.85,11.39c.04,2.22,1.45,3.13,3.09,3.13,1.17,0,1.88-.21,2.5-.47l.28,1.17c-.58.26-1.56.56-3,.56-2.78,0-4.43-1.83-4.43-4.55s1.6-4.86,4.23-4.86c2.94,0,3.73,2.59,3.73,4.25,0,.34-.04.6-.06.76h-6.33Zm4.81-1.17c.02-1.04-.43-2.66-2.27-2.66-1.66,0-2.38,1.53-2.51,2.66h4.79Z"/>
      <path class="cls-1" d="m132.27,9.39c0-1.06-.02-1.98-.08-2.81h1.43l.06,1.77h.07c.41-1.21,1.4-1.97,2.5-1.97.19,0,.32.02.47.06v1.55c-.17-.04-.33-.06-.56-.06-1.16,0-1.97.88-2.2,2.1-.04.22-.08.48-.08.76v4.81h-1.62v-6.2Z"/>
      <path class="cls-1" d="m138.14,8.07c0-.69.47-1.17,1.12-1.17s1.08.48,1.1,1.17c0,.65-.43,1.16-1.12,1.16-.65,0-1.1-.5-1.1-1.16Zm0,6.58c0-.69.47-1.17,1.12-1.17s1.08.48,1.1,1.17c0,.65-.43,1.16-1.12,1.16-.65,0-1.1-.5-1.1-1.16Z"/>
      <path class="cls-1" d="m5.16,54.68v1.21H.56v-1.21h4.6Z"/>
      <path class="cls-1" d="m21.8,49.14h-3.82v-1.38h9.3v1.38h-3.84v11.18h-1.64v-11.18Z"/>
      <path class="cls-1" d="m28.21,56.11c.04,2.22,1.45,3.13,3.09,3.13,1.17,0,1.88-.21,2.5-.47l.28,1.17c-.58.26-1.56.56-3,.56-2.78,0-4.43-1.83-4.43-4.55s1.6-4.86,4.23-4.86c2.94,0,3.73,2.59,3.73,4.25,0,.34-.04.6-.06.76h-6.33Zm4.81-1.17c.02-1.04-.43-2.66-2.27-2.66-1.66,0-2.38,1.53-2.51,2.66h4.79Z"/>
      <path class="cls-1" d="m43.06,59.99c-.43.22-1.38.52-2.59.52-2.72,0-4.49-1.84-4.49-4.6s1.9-4.79,4.84-4.79c.97,0,1.83.24,2.27.47l-.37,1.27c-.39-.22-1.01-.43-1.9-.43-2.07,0-3.19,1.53-3.19,3.41,0,2.09,1.34,3.37,3.13,3.37.93,0,1.55-.24,2.01-.45l.28,1.23Z"/>
      <path class="cls-1" d="m44.98,47.09h1.64v5.63h.04c.26-.47.67-.88,1.17-1.15.48-.28,1.06-.47,1.68-.47,1.21,0,3.15.75,3.15,3.86v5.37h-1.64v-5.18c0-1.45-.54-2.68-2.09-2.68-1.06,0-1.9.75-2.2,1.64-.09.22-.11.47-.11.78v5.44h-1.64v-13.23Z"/>
      <path class="cls-1" d="m65.7,59.99c-.43.22-1.38.52-2.59.52-2.72,0-4.49-1.84-4.49-4.6s1.9-4.79,4.84-4.79c.97,0,1.83.24,2.27.47l-.37,1.27c-.39-.22-1.01-.43-1.9-.43-2.07,0-3.19,1.53-3.19,3.41,0,2.09,1.34,3.37,3.13,3.37.93,0,1.55-.24,2.01-.45l.28,1.23Z"/>
      <path class="cls-1" d="m67.62,47.09h1.64v5.63h.04c.26-.47.67-.88,1.17-1.15.48-.28,1.06-.47,1.68-.47,1.21,0,3.15.75,3.15,3.86v5.37h-1.64v-5.18c0-1.45-.54-2.68-2.09-2.68-1.06,0-1.9.75-2.2,1.64-.09.22-.11.47-.11.78v5.44h-1.64v-13.23Z"/>
      <path class="cls-1" d="m82.96,60.32l-.13-1.14h-.06c-.5.71-1.47,1.34-2.76,1.34-1.83,0-2.76-1.29-2.76-2.59,0-2.18,1.94-3.37,5.42-3.35v-.19c0-.75-.2-2.09-2.05-2.09-.84,0-1.71.26-2.35.67l-.37-1.08c.75-.48,1.83-.8,2.96-.8,2.76,0,3.43,1.88,3.43,3.69v3.37c0,.78.04,1.55.15,2.16h-1.49Zm-.24-4.6c-1.79-.04-3.82.28-3.82,2.03,0,1.06.71,1.57,1.55,1.57,1.17,0,1.92-.75,2.18-1.51.06-.17.09-.35.09-.52v-1.57Z"/>
      <path class="cls-1" d="m86.95,54.25c0-1.16-.04-2.09-.08-2.94h1.47l.07,1.55h.04c.67-1.1,1.73-1.75,3.2-1.75,2.18,0,3.82,1.84,3.82,4.58,0,3.24-1.97,4.84-4.1,4.84-1.19,0-2.24-.52-2.78-1.42h-.04v4.9h-1.62v-9.76Zm1.62,2.4c0,.24.04.47.08.67.3,1.14,1.29,1.92,2.46,1.92,1.73,0,2.74-1.42,2.74-3.48,0-1.81-.95-3.35-2.68-3.35-1.12,0-2.16.8-2.48,2.03-.06.2-.11.45-.11.67v1.55Z"/>
      <path class="cls-1" d="m99.53,48.72v2.59h2.35v1.25h-2.35v4.86c0,1.12.32,1.75,1.23,1.75.43,0,.75-.06.95-.11l.07,1.23c-.32.13-.82.22-1.45.22-.76,0-1.38-.24-1.77-.69-.47-.48-.63-1.29-.63-2.35v-4.92h-1.4v-1.25h1.4v-2.16l1.6-.43Z"/>
      <path class="cls-1" d="m104.52,56.11c.04,2.22,1.45,3.13,3.09,3.13,1.17,0,1.88-.21,2.5-.47l.28,1.17c-.58.26-1.56.56-3,.56-2.78,0-4.43-1.83-4.43-4.55s1.6-4.86,4.23-4.86c2.94,0,3.73,2.59,3.73,4.25,0,.34-.04.6-.06.76h-6.33Zm4.81-1.17c.02-1.04-.43-2.66-2.27-2.66-1.66,0-2.38,1.53-2.51,2.66h4.79Z"/>
      <path class="cls-1" d="m112.95,54.12c0-1.06-.02-1.98-.08-2.81h1.43l.06,1.77h.07c.41-1.21,1.4-1.97,2.5-1.97.19,0,.32.02.47.06v1.55c-.17-.04-.33-.06-.56-.06-1.16,0-1.97.88-2.2,2.1-.04.22-.08.48-.08.76v4.81h-1.62v-6.2Z"/>
      <path class="cls-1" d="m144,60.32l.19-1.02,1.81-1.51c3.24-2.74,5.14-4.62,5.14-6.61,0-.88-.48-1.84-1.88-1.84-1.08,0-1.94.48-2.5.88l-.41-1.12c.86-.63,2.11-1.08,3.22-1.08,2.29,0,3.17,1.51,3.17,2.96,0,2.57-2.35,4.81-5.24,7.19l-1.03.8v.04h5.09l-.26,1.32h-7.3Z"/>
      <path class="cls-1" d="m162.26,51.81c0,3.95-1.88,8.72-5.25,8.72-2.24,0-3.04-1.84-3.04-4.15,0-4.02,2.11-8.37,5.29-8.37,2.31,0,3,1.94,3,3.8Zm-6.74,4.64c0,1.27.24,2.83,1.7,2.83,2.27,0,3.5-4.94,3.5-7.38,0-.95-.15-2.65-1.62-2.65-2.11,0-3.58,4.25-3.58,7.19Z"/>
      <path class="cls-1" d="m162.34,60.32l.19-1.02,1.81-1.51c3.24-2.74,5.14-4.62,5.14-6.61,0-.88-.48-1.84-1.88-1.84-1.08,0-1.94.48-2.5.88l-.41-1.12c.86-.63,2.11-1.08,3.22-1.08,2.29,0,3.17,1.51,3.17,2.96,0,2.57-2.35,4.81-5.24,7.19l-1.03.8v.04h5.09l-.26,1.32h-7.3Z"/>
      <path class="cls-1" d="m172.33,58.53c.47.28,1.23.67,2.33.67,2.07,0,3.02-1.42,3.02-2.66,0-1.51-1.17-2.14-2.59-2.14h-.62l.24-1.21h.62c1.14,0,3-.75,3-2.35,0-.93-.56-1.51-1.71-1.51-.91,0-1.75.28-2.29.67l-.34-1.17c.76-.47,1.83-.82,2.89-.82,2.03,0,3.09,1.21,3.09,2.61,0,1.58-1.29,2.74-2.68,3.13v.04c1.32.32,2.03,1.47,2.03,2.74,0,2.29-2.09,4.01-4.71,4.01-1.3,0-2.38-.39-2.79-.76l.52-1.23Z"/>
      <path class="cls-1" d="m23.41,74.41v4.22h-4.21v-4.21h4.21Z"/>
      <path class="cls-1" d="m46.97,82.13c-.73.26-2.16.69-3.86.69-1.9,0-3.47-.48-4.7-1.66-1.08-1.04-1.75-2.72-1.75-4.68.02-3.74,2.59-6.48,6.8-6.48,1.45,0,2.59.32,3.13.58l-.39,1.32c-.67-.3-1.51-.54-2.78-.54-3.06,0-5.05,1.9-5.05,5.05s1.92,5.07,4.84,5.07c1.06,0,1.79-.15,2.16-.34v-3.74h-2.55v-1.3h4.14v6.04Z"/>
      <path class="cls-1" d="m49.4,76.48c0-1.06-.02-1.98-.08-2.81h1.43l.06,1.77h.07c.41-1.21,1.4-1.97,2.5-1.97.19,0,.32.02.47.06v1.55c-.17-.04-.33-.06-.56-.06-1.16,0-1.97.88-2.2,2.1-.04.22-.07.48-.07.76v4.81h-1.62v-6.2Z"/>
      <path class="cls-1" d="m60.39,82.68l-.13-1.14h-.06c-.5.71-1.47,1.34-2.76,1.34-1.83,0-2.76-1.29-2.76-2.59,0-2.18,1.94-3.37,5.42-3.35v-.19c0-.75-.2-2.09-2.05-2.09-.84,0-1.71.26-2.35.67l-.37-1.08c.75-.48,1.83-.8,2.96-.8,2.76,0,3.43,1.88,3.43,3.69v3.37c0,.78.04,1.55.15,2.16h-1.49Zm-.24-4.6c-1.79-.04-3.82.28-3.82,2.03,0,1.06.71,1.57,1.55,1.57,1.17,0,1.92-.75,2.18-1.51.06-.17.09-.35.09-.52v-1.57Z"/>
      <path class="cls-1" d="m64.55,82.68v-7.77h-1.27v-1.25h1.27v-.48c0-2.38,1.4-3.93,3.93-3.93.84,0,1.83.26,2.29.6l-.47,1.25c-.39-.28-1.1-.52-1.9-.52-1.73,0-2.24,1.21-2.24,2.65v.45h5.24v9.02h-1.62v-7.77h-3.61v7.77h-1.62Z"/>
      <path class="cls-1" d="m73.9,81.01c.48.32,1.34.65,2.16.65,1.19,0,1.75-.6,1.75-1.34,0-.78-.47-1.21-1.68-1.66-1.62-.58-2.38-1.47-2.38-2.55,0-1.45,1.17-2.65,3.11-2.65.91,0,1.71.26,2.22.56l-.41,1.19c-.35-.22-1.01-.52-1.84-.52-.97,0-1.51.56-1.51,1.23,0,.75.54,1.08,1.71,1.53,1.56.6,2.37,1.38,2.37,2.72,0,1.58-1.23,2.7-3.37,2.7-.99,0-1.9-.24-2.53-.62l.41-1.25Z"/>
      <path class="cls-1" d="m83.13,77.8h.04c.22-.32.54-.71.8-1.02l2.65-3.11h1.97l-3.48,3.71,3.97,5.31h-1.99l-3.11-4.32-.84.93v3.39h-1.62v-13.23h1.62v8.35Z"/>
      <path class="cls-1" d="m101.98,69.46v10.9c0,.8.02,1.71.08,2.33h-1.47l-.08-1.56h-.04c-.5,1.01-1.6,1.77-3.07,1.77-2.18,0-3.86-1.84-3.86-4.58-.02-3,1.84-4.84,4.04-4.84,1.38,0,2.31.65,2.72,1.38h.04v-5.38h1.64Zm-1.64,7.88c0-.21-.02-.48-.07-.69-.24-1.04-1.14-1.9-2.37-1.9-1.7,0-2.7,1.49-2.7,3.48,0,1.83.89,3.33,2.66,3.33,1.1,0,2.11-.73,2.4-1.96.06-.22.07-.45.07-.71v-1.56Z"/>
      <path class="cls-1" d="m105.62,78.47c.04,2.22,1.45,3.13,3.09,3.13,1.17,0,1.88-.21,2.5-.47l.28,1.17c-.58.26-1.56.56-3,.56-2.78,0-4.43-1.83-4.43-4.55s1.6-4.86,4.23-4.86c2.94,0,3.73,2.59,3.73,4.25,0,.34-.04.6-.06.76h-6.33Zm4.81-1.17c.02-1.04-.43-2.66-2.27-2.66-1.66,0-2.38,1.53-2.51,2.66h4.79Z"/>
      <path class="cls-1" d="m115.87,71.13c.02.56-.39,1.01-1.04,1.01-.58,0-.99-.45-.99-1.01s.43-1.02,1.02-1.02,1.01.45,1.01,1.02Zm-1.83,11.55v-9.02h1.64v9.02h-1.64Z"/>
      <path class="cls-1" d="m118.18,81.01c.48.32,1.34.65,2.16.65,1.19,0,1.75-.6,1.75-1.34,0-.78-.47-1.21-1.68-1.66-1.62-.58-2.38-1.47-2.38-2.55,0-1.45,1.17-2.65,3.11-2.65.91,0,1.71.26,2.22.56l-.41,1.19c-.35-.22-1.01-.52-1.84-.52-.97,0-1.51.56-1.51,1.23,0,.75.54,1.08,1.71,1.53,1.56.6,2.37,1.38,2.37,2.72,0,1.58-1.23,2.7-3.37,2.7-.99,0-1.9-.24-2.53-.62l.41-1.25Z"/>
      <path class="cls-1" d="m133.55,73.67c-.04.65-.07,1.38-.07,2.48v5.24c0,2.07-.41,3.33-1.29,4.12-.88.82-2.14,1.08-3.28,1.08s-2.27-.26-3-.75l.41-1.25c.6.37,1.53.71,2.65.71,1.68,0,2.91-.88,2.91-3.15v-1.01h-.04c-.5.84-1.47,1.51-2.87,1.51-2.24,0-3.84-1.9-3.84-4.4,0-3.06,1.99-4.79,4.06-4.79,1.57,0,2.42.82,2.81,1.56h.04l.07-1.36h1.43Zm-1.7,3.56c0-.28-.02-.52-.09-.75-.3-.95-1.1-1.73-2.29-1.73-1.56,0-2.68,1.32-2.68,3.41,0,1.77.89,3.24,2.66,3.24,1.01,0,1.92-.63,2.27-1.68.09-.28.13-.6.13-.88v-1.62Z"/>
      <path class="cls-1" d="m136.09,76.11c0-.93-.02-1.7-.08-2.44h1.45l.09,1.49h.04c.45-.86,1.49-1.7,2.98-1.7,1.25,0,3.19.75,3.19,3.84v5.38h-1.64v-5.2c0-1.45-.54-2.66-2.09-2.66-1.08,0-1.92.76-2.2,1.68-.07.21-.11.48-.11.76v5.42h-1.64v-6.58Z"/>
      <path class="cls-1" d="m147.34,78.47c.04,2.22,1.45,3.13,3.09,3.13,1.17,0,1.88-.21,2.5-.47l.28,1.17c-.58.26-1.56.56-3,.56-2.78,0-4.43-1.83-4.43-4.55s1.6-4.86,4.23-4.86c2.94,0,3.73,2.59,3.73,4.25,0,.34-.04.6-.06.76h-6.33Zm4.81-1.17c.02-1.04-.43-2.66-2.27-2.66-1.66,0-2.38,1.53-2.51,2.66h4.79Z"/>
      <path class="cls-1" d="m155.77,76.48c0-1.06-.02-1.98-.08-2.81h1.43l.06,1.77h.07c.41-1.21,1.4-1.97,2.5-1.97.19,0,.32.02.47.06v1.55c-.17-.04-.33-.06-.56-.06-1.16,0-1.97.88-2.2,2.1-.04.22-.08.48-.08.76v4.81h-1.62v-6.2Z"/>
      <path class="cls-1" d="m5.16,121.76v1.21H.56v-1.21h4.6Z"/>
      <path class="cls-1" d="m19.42,115.02c.82-.17,1.99-.26,3.11-.26,1.73,0,2.85.32,3.63,1.02.63.56.99,1.42.99,2.38,0,1.66-1.04,2.76-2.37,3.2v.06c.97.34,1.55,1.23,1.84,2.53.41,1.75.71,2.96.97,3.45h-1.68c-.21-.35-.48-1.43-.84-3-.37-1.73-1.04-2.38-2.52-2.44h-1.53v5.44h-1.62v-12.39Zm1.62,5.72h1.66c1.73,0,2.83-.95,2.83-2.38,0-1.62-1.17-2.33-2.89-2.35-.78,0-1.34.07-1.6.15v4.58Z"/>
      <path class="cls-1" d="m34.6,127.41l-.13-1.14h-.06c-.5.71-1.47,1.34-2.76,1.34-1.83,0-2.76-1.29-2.76-2.59,0-2.18,1.94-3.37,5.42-3.35v-.19c0-.75-.2-2.09-2.05-2.09-.84,0-1.71.26-2.35.67l-.37-1.08c.75-.48,1.83-.8,2.96-.8,2.76,0,3.43,1.88,3.43,3.69v3.37c0,.78.04,1.55.15,2.16h-1.49Zm-.24-4.6c-1.79-.04-3.82.28-3.82,2.03,0,1.06.71,1.57,1.55,1.57,1.17,0,1.92-.75,2.18-1.51.06-.17.09-.35.09-.52v-1.57Z"/>
      <path class="cls-1" d="m46.38,114.18v10.9c0,.8.02,1.71.08,2.33h-1.47l-.08-1.56h-.04c-.5,1.01-1.6,1.77-3.07,1.77-2.18,0-3.86-1.84-3.86-4.58-.02-3,1.84-4.84,4.04-4.84,1.38,0,2.31.65,2.72,1.38h.04v-5.38h1.64Zm-1.64,7.88c0-.21-.02-.48-.07-.69-.24-1.04-1.14-1.9-2.37-1.9-1.7,0-2.7,1.49-2.7,3.48,0,1.83.89,3.33,2.66,3.33,1.1,0,2.11-.73,2.4-1.96.06-.22.07-.45.07-.71v-1.56Z"/>
      <path class="cls-1" d="m50.93,115.86c.02.56-.39,1.01-1.04,1.01-.58,0-.99-.45-.99-1.01s.43-1.02,1.02-1.02,1.01.45,1.01,1.02Zm-1.83,11.55v-9.02h1.64v9.02h-1.64Z"/>
      <path class="cls-1" d="m61.62,122.83c0,3.33-2.31,4.79-4.49,4.79-2.44,0-4.32-1.79-4.32-4.64,0-3.02,1.97-4.79,4.47-4.79s4.34,1.88,4.34,4.64Zm-7.15.09c0,1.98,1.14,3.47,2.74,3.47s2.74-1.47,2.74-3.5c0-1.53-.76-3.47-2.7-3.47s-2.78,1.79-2.78,3.5Z"/>
      <path class="cls-1" d="m67.7,114.85h1.62v11.2h5.37v1.36h-6.99v-12.56Z"/>
      <path class="cls-1" d="m84.34,122.83c0,3.33-2.31,4.79-4.49,4.79-2.44,0-4.32-1.79-4.32-4.64,0-3.02,1.97-4.79,4.47-4.79s4.34,1.88,4.34,4.64Zm-7.15.09c0,1.98,1.14,3.47,2.74,3.47s2.74-1.47,2.74-3.5c0-1.53-.76-3.47-2.7-3.47s-2.78,1.79-2.78,3.5Z"/>
      <path class="cls-1" d="m93.95,124.95c0,.93.02,1.75.08,2.46h-1.45l-.09-1.47h-.04c-.43.73-1.38,1.68-2.98,1.68-1.42,0-3.11-.78-3.11-3.95v-5.27h1.64v4.99c0,1.71.52,2.87,2.01,2.87,1.1,0,1.86-.76,2.16-1.49.09-.24.15-.54.15-.84v-5.53h1.64v6.56Z"/>
      <path class="cls-1" d="m104.46,114.18v10.9c0,.8.02,1.71.08,2.33h-1.47l-.08-1.56h-.04c-.5,1.01-1.6,1.77-3.07,1.77-2.18,0-3.86-1.84-3.86-4.58-.02-3,1.84-4.84,4.04-4.84,1.38,0,2.31.65,2.72,1.38h.04v-5.38h1.64Zm-1.64,7.88c0-.21-.02-.48-.07-.69-.24-1.04-1.14-1.9-2.37-1.9-1.7,0-2.7,1.49-2.7,3.48,0,1.83.89,3.33,2.66,3.33,1.1,0,2.11-.73,2.4-1.96.06-.22.07-.45.07-.71v-1.56Z"/>
      <path class="cls-1" d="m144,127.41l.19-1.02,1.81-1.51c3.24-2.74,5.14-4.62,5.14-6.61,0-.88-.48-1.84-1.88-1.84-1.08,0-1.94.48-2.5.88l-.41-1.12c.86-.63,2.11-1.08,3.22-1.08,2.29,0,3.17,1.51,3.17,2.96,0,2.57-2.35,4.81-5.24,7.19l-1.03.8v.04h5.09l-.26,1.32h-7.3Z"/>
      <path class="cls-1" d="m162.26,118.9c0,3.95-1.88,8.72-5.25,8.72-2.24,0-3.04-1.84-3.04-4.15,0-4.02,2.11-8.37,5.29-8.37,2.31,0,3,1.94,3,3.8Zm-6.74,4.64c0,1.27.24,2.83,1.7,2.83,2.27,0,3.5-4.94,3.5-7.38,0-.95-.15-2.65-1.62-2.65-2.11,0-3.58,4.25-3.58,7.19Z"/>
      <path class="cls-1" d="m162.33,127.41l.19-1.02,1.81-1.51c3.24-2.74,5.14-4.62,5.14-6.61,0-.88-.48-1.84-1.88-1.84-1.08,0-1.94.48-2.5.88l-.41-1.12c.86-.63,2.11-1.08,3.22-1.08,2.29,0,3.17,1.51,3.17,2.96,0,2.57-2.35,4.81-5.24,7.19l-1.03.8v.04h5.09l-.26,1.32h-7.3Z"/>
      <path class="cls-1" d="m171.5,127.41l.19-1.02,1.81-1.51c3.24-2.74,5.14-4.62,5.14-6.61,0-.88-.48-1.84-1.88-1.84-1.08,0-1.94.48-2.5.88l-.41-1.12c.86-.63,2.11-1.08,3.22-1.08,2.29,0,3.17,1.51,3.17,2.96,0,2.57-2.35,4.81-5.24,7.19l-1.03.8v.04h5.09l-.26,1.32h-7.3Z"/>
      <path class="cls-1" d="m23.41,141.5v4.22h-4.21v-4.21h4.21Z"/>
      <path class="cls-1" d="m40.17,149.77l-4.1-12.56h1.75l1.96,6.19c.54,1.7,1.01,3.22,1.34,4.69h.04c.35-1.45.88-3.04,1.43-4.68l2.12-6.2h1.73l-4.49,12.56h-1.79Z"/>
      <path class="cls-1" d="m49.29,138.22c.02.56-.39,1.01-1.04,1.01-.58,0-.99-.45-.99-1.01s.43-1.02,1.02-1.02,1.01.45,1.01,1.02Zm-1.83,11.55v-9.02h1.64v9.02h-1.64Z"/>
      <path class="cls-1" d="m59.61,136.54v10.9c0,.8.02,1.71.08,2.33h-1.47l-.07-1.56h-.04c-.5,1.01-1.6,1.77-3.07,1.77-2.18,0-3.86-1.84-3.86-4.58-.02-3,1.84-4.84,4.04-4.84,1.38,0,2.31.65,2.72,1.38h.04v-5.38h1.64Zm-1.64,7.88c0-.21-.02-.48-.07-.69-.24-1.04-1.14-1.9-2.37-1.9-1.7,0-2.7,1.49-2.7,3.48,0,1.83.89,3.33,2.66,3.33,1.1,0,2.11-.73,2.4-1.96.06-.22.07-.45.07-.71v-1.56Z"/>
      <path class="cls-1" d="m63.24,145.56c.04,2.22,1.45,3.13,3.09,3.13,1.17,0,1.88-.21,2.5-.47l.28,1.17c-.58.26-1.56.56-3,.56-2.78,0-4.43-1.83-4.43-4.55s1.6-4.86,4.23-4.86c2.94,0,3.73,2.59,3.73,4.25,0,.34-.04.6-.06.76h-6.33Zm4.81-1.17c.02-1.04-.43-2.66-2.27-2.66-1.66,0-2.38,1.53-2.51,2.66h4.79Z"/>
      <path class="cls-1" d="m79.83,145.19c0,3.33-2.31,4.79-4.49,4.79-2.44,0-4.32-1.79-4.32-4.64,0-3.02,1.97-4.79,4.47-4.79s4.34,1.88,4.34,4.64Zm-7.15.09c0,1.98,1.14,3.47,2.74,3.47s2.74-1.47,2.74-3.5c0-1.53-.76-3.47-2.7-3.47s-2.78,1.79-2.78,3.5Z"/>
      <path class="cls-1" d="m85.85,143.7c0-1.16-.04-2.09-.08-2.94h1.47l.07,1.55h.04c.67-1.1,1.73-1.75,3.2-1.75,2.18,0,3.82,1.84,3.82,4.58,0,3.24-1.97,4.84-4.1,4.84-1.19,0-2.24-.52-2.78-1.42h-.04v4.9h-1.62v-9.76Zm1.62,2.4c0,.24.04.47.08.67.3,1.14,1.29,1.92,2.46,1.92,1.73,0,2.74-1.42,2.74-3.48,0-1.81-.95-3.35-2.68-3.35-1.12,0-2.16.8-2.48,2.03-.06.2-.11.45-.11.67v1.55Z"/>
      <path class="cls-1" d="m96.45,143.57c0-1.06-.02-1.98-.08-2.81h1.43l.06,1.77h.07c.41-1.21,1.4-1.97,2.5-1.97.19,0,.32.02.47.06v1.55c-.17-.04-.33-.06-.56-.06-1.16,0-1.97.88-2.2,2.1-.04.22-.07.48-.07.76v4.81h-1.62v-6.2Z"/>
      <path class="cls-1" d="m110.52,145.19c0,3.33-2.31,4.79-4.49,4.79-2.44,0-4.32-1.79-4.32-4.64,0-3.02,1.97-4.79,4.47-4.79s4.34,1.88,4.34,4.64Zm-7.15.09c0,1.98,1.14,3.47,2.74,3.47s2.74-1.47,2.74-3.5c0-1.53-.76-3.47-2.7-3.47s-2.78,1.79-2.78,3.5Z"/>
      <path class="cls-1" d="m120.38,136.54v10.9c0,.8.02,1.71.08,2.33h-1.47l-.08-1.56h-.04c-.5,1.01-1.6,1.77-3.07,1.77-2.18,0-3.86-1.84-3.86-4.58-.02-3,1.84-4.84,4.04-4.84,1.38,0,2.31.65,2.72,1.38h.04v-5.38h1.64Zm-1.64,7.88c0-.21-.02-.48-.07-.69-.24-1.04-1.14-1.9-2.37-1.9-1.7,0-2.7,1.49-2.7,3.48,0,1.83.89,3.33,2.66,3.33,1.1,0,2.11-.73,2.4-1.96.06-.22.07-.45.07-.71v-1.56Z"/>
      <path class="cls-1" d="m130.64,147.31c0,.93.02,1.75.08,2.46h-1.45l-.09-1.47h-.04c-.43.73-1.38,1.68-2.98,1.68-1.42,0-3.11-.78-3.11-3.95v-5.27h1.64v4.99c0,1.71.52,2.87,2.01,2.87,1.1,0,1.86-.76,2.16-1.49.09-.24.15-.54.15-.84v-5.53h1.64v6.56Z"/>
      <path class="cls-1" d="m139.79,149.44c-.43.22-1.38.52-2.59.52-2.72,0-4.49-1.84-4.49-4.6s1.9-4.79,4.84-4.79c.97,0,1.83.24,2.27.47l-.37,1.27c-.39-.22-1.01-.43-1.9-.43-2.07,0-3.19,1.53-3.19,3.41,0,2.09,1.34,3.37,3.13,3.37.93,0,1.55-.24,2.01-.45l.28,1.23Z"/>
      <path class="cls-1" d="m142.52,145.56c.04,2.22,1.45,3.13,3.09,3.13,1.17,0,1.88-.21,2.5-.47l.28,1.17c-.58.26-1.56.56-3,.56-2.78,0-4.43-1.83-4.43-4.55s1.6-4.86,4.23-4.86c2.94,0,3.73,2.59,3.73,4.25,0,.34-.04.6-.06.76h-6.33Zm4.81-1.17c.02-1.04-.43-2.66-2.27-2.66-1.66,0-2.38,1.53-2.51,2.66h4.79Z"/>
      <path class="cls-1" d="m150.94,143.57c0-1.06-.02-1.98-.08-2.81h1.43l.06,1.77h.07c.41-1.21,1.4-1.97,2.5-1.97.19,0,.32.02.47.06v1.55c-.17-.04-.33-.06-.56-.06-1.16,0-1.97.88-2.2,2.1-.04.22-.08.48-.08.76v4.81h-1.62v-6.2Z"/>
      <path class="cls-1" d="m5.16,188.85v1.21H.56v-1.21h4.6Z"/>
      <path class="cls-1" d="m19.42,181.94h6.76v1.36h-5.14v4.17h4.75v1.34h-4.75v5.68h-1.62v-12.56Z"/>
      <path class="cls-1" d="m28.3,192.61c.47.3,1.55.76,2.68.76,2.11,0,2.76-1.34,2.74-2.35-.02-1.7-1.55-2.42-3.13-2.42h-.91v-1.23h.91c1.19,0,2.7-.61,2.7-2.05,0-.97-.61-1.83-2.12-1.83-.97,0-1.9.43-2.42.8l-.43-1.19c.63-.47,1.86-.93,3.17-.93,2.38,0,3.46,1.42,3.46,2.89,0,1.25-.75,2.31-2.24,2.85v.04c1.49.3,2.7,1.42,2.7,3.11,0,1.94-1.51,3.63-4.42,3.63-1.36,0-2.55-.43-3.15-.82l.45-1.27Z"/>
      <path class="cls-1" d="m41.95,187.92c0-.93-.02-1.7-.08-2.44h1.43l.08,1.45h.06c.5-.86,1.34-1.66,2.83-1.66,1.23,0,2.16.75,2.55,1.81h.04c.28-.5.63-.89,1.01-1.17.54-.41,1.14-.63,1.99-.63,1.19,0,2.96.78,2.96,3.91v5.31h-1.6v-5.1c0-1.73-.63-2.78-1.96-2.78-.93,0-1.66.69-1.94,1.49-.08.22-.13.52-.13.82v5.57h-1.6v-5.4c0-1.43-.63-2.48-1.88-2.48-1.02,0-1.77.82-2.03,1.64-.09.24-.13.52-.13.8v5.44h-1.6v-6.58Z"/>
      <path class="cls-1" d="m58.4,190.29c.04,2.22,1.45,3.13,3.09,3.13,1.17,0,1.88-.2,2.5-.46l.28,1.17c-.58.26-1.56.56-3,.56-2.78,0-4.43-1.83-4.43-4.55s1.6-4.86,4.23-4.86c2.94,0,3.73,2.59,3.73,4.25,0,.34-.04.6-.06.76h-6.33Zm4.81-1.17c.02-1.04-.43-2.66-2.27-2.66-1.66,0-2.38,1.53-2.51,2.66h4.79Z"/>
      <path class="cls-1" d="m74.61,181.27v10.9c0,.8.02,1.71.08,2.33h-1.47l-.07-1.57h-.04c-.5,1.01-1.6,1.77-3.07,1.77-2.18,0-3.86-1.84-3.86-4.58-.02-3,1.84-4.84,4.04-4.84,1.38,0,2.31.65,2.72,1.38h.04v-5.38h1.64Zm-1.64,7.88c0-.21-.02-.48-.07-.69-.24-1.04-1.14-1.9-2.37-1.9-1.7,0-2.7,1.49-2.7,3.48,0,1.83.89,3.33,2.66,3.33,1.1,0,2.11-.73,2.4-1.96.06-.22.07-.45.07-.71v-1.56Z"/>
      <path class="cls-1" d="m79.16,182.95c.02.56-.39,1.01-1.04,1.01-.58,0-.99-.45-.99-1.01s.43-1.03,1.02-1.03,1.01.45,1.01,1.03Zm-1.83,11.55v-9.02h1.64v9.02h-1.64Z"/>
      <path class="cls-1" d="m86.69,194.5l-.13-1.14h-.06c-.5.71-1.47,1.34-2.76,1.34-1.83,0-2.76-1.29-2.76-2.59,0-2.18,1.94-3.37,5.42-3.35v-.19c0-.75-.2-2.09-2.05-2.09-.84,0-1.71.26-2.35.67l-.37-1.08c.75-.48,1.83-.8,2.96-.8,2.76,0,3.43,1.88,3.43,3.69v3.37c0,.78.04,1.55.15,2.16h-1.49Zm-.24-4.6c-1.79-.04-3.82.28-3.82,2.03,0,1.06.71,1.57,1.55,1.57,1.17,0,1.92-.75,2.18-1.51.06-.17.09-.35.09-.52v-1.56Z"/>
      <path class="cls-1" d="m144,194.5l.19-1.02,1.81-1.51c3.24-2.74,5.14-4.62,5.14-6.61,0-.88-.48-1.84-1.88-1.84-1.08,0-1.94.48-2.5.88l-.41-1.12c.86-.63,2.11-1.08,3.22-1.08,2.29,0,3.17,1.51,3.17,2.96,0,2.57-2.35,4.81-5.24,7.19l-1.03.8v.04h5.09l-.26,1.32h-7.3Z"/>
      <path class="cls-1" d="m162.26,185.98c0,3.95-1.88,8.72-5.25,8.72-2.24,0-3.04-1.84-3.04-4.16,0-4.02,2.11-8.37,5.29-8.37,2.31,0,3,1.94,3,3.8Zm-6.74,4.64c0,1.27.24,2.83,1.7,2.83,2.27,0,3.5-4.94,3.5-7.38,0-.95-.15-2.65-1.62-2.65-2.11,0-3.58,4.25-3.58,7.19Z"/>
      <path class="cls-1" d="m162.34,194.5l.19-1.02,1.81-1.51c3.24-2.74,5.14-4.62,5.14-6.61,0-.88-.48-1.84-1.88-1.84-1.08,0-1.94.48-2.5.88l-.41-1.12c.86-.63,2.11-1.08,3.22-1.08,2.29,0,3.17,1.51,3.17,2.96,0,2.57-2.35,4.81-5.24,7.19l-1.03.8v.04h5.09l-.26,1.32h-7.3Z"/>
      <path class="cls-1" d="m180.6,185.98c0,3.95-1.88,8.72-5.25,8.72-2.24,0-3.04-1.84-3.04-4.16,0-4.02,2.11-8.37,5.29-8.37,2.31,0,3,1.94,3,3.8Zm-6.74,4.64c0,1.27.24,2.83,1.7,2.83,2.27,0,3.5-4.94,3.5-7.38,0-.95-.15-2.65-1.62-2.65-2.11,0-3.58,4.25-3.58,7.19Z"/>
      <path class="cls-1" d="m23.41,208.59v4.22h-4.21v-4.21h4.21Z"/>
      <path class="cls-1" d="m39.8,205.68h-3.82v-1.38h9.3v1.38h-3.84v11.18h-1.64v-11.18Z"/>
      <path class="cls-1" d="m50.18,216.86l-4.1-12.56h1.75l1.96,6.19c.54,1.7,1.01,3.22,1.34,4.7h.04c.35-1.45.88-3.04,1.43-4.68l2.12-6.2h1.73l-4.49,12.56h-1.79Z"/>
      <path class="cls-1" d="m61.72,210.79c0-1.16-.04-2.09-.08-2.94h1.47l.07,1.55h.04c.67-1.1,1.73-1.75,3.2-1.75,2.18,0,3.82,1.84,3.82,4.58,0,3.24-1.97,4.84-4.1,4.84-1.19,0-2.24-.52-2.78-1.42h-.04v4.9h-1.62v-9.76Zm1.62,2.4c0,.24.04.47.08.67.3,1.14,1.29,1.92,2.46,1.92,1.73,0,2.74-1.42,2.74-3.48,0-1.81-.95-3.35-2.68-3.35-1.12,0-2.16.8-2.48,2.03-.06.21-.11.45-.11.67v1.55Z"/>
      <path class="cls-1" d="m72.32,210.65c0-1.06-.02-1.97-.08-2.81h1.43l.06,1.77h.07c.41-1.21,1.4-1.98,2.5-1.98.19,0,.32.02.47.06v1.55c-.17-.04-.33-.06-.56-.06-1.16,0-1.97.88-2.2,2.11-.04.22-.08.48-.08.76v4.81h-1.62v-6.2Z"/>
      <path class="cls-1" d="m86.39,212.28c0,3.33-2.31,4.79-4.49,4.79-2.44,0-4.32-1.79-4.32-4.64,0-3.02,1.97-4.79,4.47-4.79s4.34,1.88,4.34,4.64Zm-7.15.09c0,1.97,1.14,3.47,2.74,3.47s2.74-1.47,2.74-3.5c0-1.53-.76-3.47-2.7-3.47s-2.78,1.79-2.78,3.5Z"/>
      <path class="cls-1" d="m96.24,203.63v10.9c0,.8.02,1.71.08,2.33h-1.47l-.08-1.57h-.04c-.5,1.01-1.6,1.77-3.07,1.77-2.18,0-3.86-1.84-3.86-4.58-.02-3,1.84-4.84,4.04-4.84,1.38,0,2.31.65,2.72,1.38h.04v-5.38h1.64Zm-1.64,7.88c0-.21-.02-.48-.07-.69-.24-1.04-1.14-1.9-2.37-1.9-1.7,0-2.7,1.49-2.7,3.48,0,1.83.89,3.33,2.66,3.33,1.1,0,2.11-.73,2.4-1.96.06-.22.07-.45.07-.71v-1.56Z"/>
      <path class="cls-1" d="m106.51,214.4c0,.93.02,1.75.08,2.46h-1.45l-.09-1.47h-.04c-.43.73-1.38,1.68-2.98,1.68-1.42,0-3.11-.78-3.11-3.95v-5.27h1.64v4.99c0,1.71.52,2.87,2.01,2.87,1.1,0,1.86-.76,2.16-1.49.09-.24.15-.54.15-.84v-5.53h1.64v6.56Z"/>
      <path class="cls-1" d="m115.66,216.52c-.43.22-1.38.52-2.59.52-2.72,0-4.49-1.84-4.49-4.6s1.9-4.79,4.84-4.79c.97,0,1.83.24,2.27.47l-.37,1.27c-.39-.22-1.01-.43-1.9-.43-2.07,0-3.19,1.53-3.19,3.41,0,2.09,1.34,3.37,3.13,3.37.93,0,1.55-.24,2.01-.45l.28,1.23Z"/>
      <path class="cls-1" d="m118.38,212.65c.04,2.22,1.45,3.13,3.09,3.13,1.17,0,1.88-.2,2.5-.46l.28,1.17c-.58.26-1.56.56-3,.56-2.78,0-4.43-1.83-4.43-4.55s1.6-4.86,4.23-4.86c2.94,0,3.73,2.59,3.73,4.25,0,.34-.04.6-.06.76h-6.33Zm4.81-1.17c.02-1.04-.43-2.66-2.27-2.66-1.66,0-2.38,1.53-2.51,2.66h4.79Z"/>
      <path class="cls-1" d="m126.81,210.65c0-1.06-.02-1.97-.08-2.81h1.43l.06,1.77h.07c.41-1.21,1.4-1.98,2.5-1.98.19,0,.32.02.47.06v1.55c-.17-.04-.33-.06-.56-.06-1.16,0-1.97.88-2.2,2.11-.04.22-.08.48-.08.76v4.81h-1.62v-6.2Z"/>
    </g>
  </g>
</svg>