<?xml version="1.0" encoding="UTF-8"?>
<svg xmlns="http://www.w3.org/2000/svg" xmlns:xlink="http://www.w3.org/1999/xlink" viewBox="0 0 1092.21 752.66">
  <defs>
    <style>
      .cls-1, .cls-2, .cls-3, .cls-4, .cls-5, .cls-6, .cls-7, .cls-8, .cls-9 {
        fill: none;
      }

      .cls-2 {
        stroke: #ef6a22;
        stroke-width: 3.03px;
      }

      .cls-2, .cls-3, .cls-4, .cls-5, .cls-6, .cls-7 {
        stroke-linecap: round;
        stroke-miterlimit: 10;
      }

      .cls-3 {
        stroke-width: 3.03px;
      }

      .cls-3, .cls-4, .cls-5, .cls-6 {
        stroke: #ffdc65;
      }

      .cls-10 {
        fill: #fff;
      }

      .cls-11 {
        fill: #ffdc65;
      }

      .cls-12 {
        fill: #f1f2d6;
      }

      .cls-13 {
        fill: #b19b47;
      }

      .cls-14 {
        fill: #5769b1;
      }

      .cls-15 {
        fill: #838578;
      }

      .cls-16 {
        mix-blend-mode: multiply;
      }

      .cls-4 {
        stroke-width: 2.44px;
      }

      .cls-5 {
        stroke-width: 2px;
      }

      .cls-6 {
        stroke-width: 10px;
      }

      .cls-7 {
        stroke: #fefbda;
        stroke-width: 4.87px;
      }

      .cls-17 {
        isolation: isolate;
      }

      .cls-8 {
        stroke: #707071;
      }

      .cls-9 {
        stroke: #231f20;
        stroke-width: .75px;
      }

      .cls-18 {
        fill: url(#Ripple);
      }
    </style>
    <pattern id="Ripple" x="0" y="0" width="72" height="72" patternTransform="translate(-2091.13 -4778.4)" patternUnits="userSpaceOnUse" viewBox="0 0 72 72">
      <g>
        <rect class="cls-1" width="72" height="72"/>
        <path class="cls-9" d="m80.4,64.14s.96,4.06-2.92,4c-3.88-.06-3.94,1.87-3.13,4.29s-.18,4.62-3.34,4.57"/>
        <g>
          <path class="cls-9" d="m13.35,15.53s3.79-1.74,4.5,2.08c.71,3.82,2.61,3.5,4.82,2.23,2.21-1.28,4.56-.74,5.14,2.37"/>
          <path class="cls-9" d="m66.04,28.74s-2.6,3.26-4.95.18c-2.36-3.08-3.91-1.94-5.3.19-1.4,2.14-3.74,2.72-5.66.2"/>
          <path class="cls-9" d="m39.03,29.05s-3.82-1.67-1.45-4.74c2.38-3.07.87-4.28-1.55-5.08-2.42-.8-3.59-2.91-1.65-5.41"/>
          <path class="cls-9" d="m41.14,24.82s4.08-.88,2.36-4.36c-1.72-3.48-.01-4.36,2.52-4.67,2.54-.3,4.1-2.14,2.69-4.98"/>
          <path class="cls-9" d="m55.12,14.87s4.08-.88,2.36-4.36c-1.72-3.48-.01-4.36,2.52-4.67,2.54-.3,4.1-2.14,2.69-4.98"/>
          <path class="cls-9" d="m27.39,34.19s3.68-1.96,1.07-4.84c-2.61-2.87-1.21-4.19,1.15-5.18,2.36-.99,3.35-3.18,1.23-5.53"/>
          <path class="cls-9" d="m10.39,22.94s1.29,3.96-2.58,4.23c-3.87.27-3.77,2.19-2.76,4.53,1.01,2.35.21,4.62-2.94,4.84"/>
          <path class="cls-9" d="m7.56,41.16s-2.02-3.65,1.72-4.64c3.75-1,3.29-2.87,1.85-4.97-1.44-2.11-1.09-4.5,1.97-5.31"/>
          <path class="cls-9" d="m20.44,17s1.35-3.95,4.6-1.83c3.25,2.12,4.33.52,4.93-1.96.6-2.48,2.61-3.82,5.26-2.09"/>
          <path class="cls-9" d="m12.33,44.48s-1.77-3.78,2.04-4.51c3.81-.73,3.48-2.63,2.19-4.83-1.29-2.2-.77-4.56,2.34-5.16"/>
          <path class="cls-9" d="m24.03,38.67s-3.43-2.37-.51-4.93c2.92-2.56,1.68-4.03-.55-5.28-2.23-1.25-2.96-3.55-.58-5.63"/>
          <path class="cls-9" d="m11.01,59.64s.3-4.16,3.99-2.94c3.69,1.22,4.32-.6,4.27-3.15-.05-2.55,1.55-4.36,4.56-3.36"/>
          <path class="cls-9" d="m29.5,52.86s-.38,4.15-4.04,2.87c-3.66-1.29-4.33.52-4.33,3.07,0,2.55-1.63,4.33-4.62,3.28"/>
          <path class="cls-9" d="m19.67,27.31s-4.17.18-3.38-3.62c.79-3.8-1.09-4.22-3.62-3.88-2.53.34-4.5-1.04-3.86-4.14"/>
          <path class="cls-9" d="m32.71,27.97s-1.49,3.89,2.37,4.35c3.85.46,3.66,2.38,2.53,4.66-1.13,2.29-.44,4.6,2.7,4.98"/>
          <path class="cls-9" d="m3.32,45.67s1.92,3.7,4.82,1.13c2.91-2.57,4.21-1.15,5.17,1.21.96,2.37,3.14,3.39,5.51,1.29"/>
          <path class="cls-9" d="m51.02,83.38s-1.86-3.73,1.93-4.56c3.79-.83,3.41-2.72,2.07-4.89-1.34-2.17-.88-4.54,2.21-5.21"/>
          <path class="cls-9" d="m64.56,9.98s2.47,3.36-1.13,4.83c-3.59,1.46-2.9,3.26-1.2,5.17,1.7,1.91,1.64,4.32-1.29,5.51"/>
          <path class="cls-9" d="m59.95,14.27s-4.09.84-2.4,4.33c1.68,3.5-.04,4.36-2.58,4.64-2.54.28-4.12,2.1-2.75,4.95"/>
          <path class="cls-9" d="m17.08.72s4.17.2,3.04,3.91c-1.13,3.71.71,4.31,3.26,4.19,2.55-.11,4.39,1.44,3.47,4.47"/>
          <path class="cls-9" d="m39.44,15.71s-4.05-.99-2.23-4.42c1.82-3.43.13-4.36-2.39-4.74-2.53-.38-4.04-2.26-2.55-5.05"/>
          <path class="cls-9" d="m18.03,7.9s-3.97-1.27-4.22,2.6c-.25,3.87-2.17,3.78-4.52,2.78-2.35-1-4.62-.19-4.82,2.97"/>
          <path class="cls-9" d="m8.4,64.14s.96,4.06-2.92,4c-3.88-.06-3.94,1.87-3.13,4.29s-.18,4.62-3.34,4.57"/>
          <path class="cls-9" d="m70.32,33.48s-2.27,3.5-4.91.65c-2.64-2.84-4.08-1.56-5.26.7-1.19,2.26-3.46,3.07-5.61.75"/>
          <path class="cls-9" d="m50.38,1.6s.96,4.06-2.92,4c-3.88-.06-3.95,1.87-3.13,4.28.81,2.42-.18,4.62-3.34,4.57"/>
          <path class="cls-9" d="m43.88,31.8s-1.63-3.83,2.2-4.44c3.83-.6,3.57-2.51,2.35-4.76-1.21-2.25-.61-4.58,2.51-5.07"/>
          <path class="cls-9" d="m74.88,33.61s-4.15-.44-2.81-4.08c1.34-3.64-.46-4.34-3.01-4.38-2.55-.03-4.3-1.7-3.21-4.67"/>
          <path class="cls-9" d="m62.12,38.22s3.47-2.32,4.77,1.34c1.3,3.65,3.13,3.04,5.11,1.43,1.98-1.61,4.39-1.45,5.45,1.53"/>
          <path class="cls-9" d="m71.68,62.73s-.76,4.1-4.29,2.48c-3.53-1.62-4.36.12-4.59,2.66-.23,2.54-2.02,4.16-4.9,2.84"/>
          <path class="cls-9" d="m28.78,43.96s4.13.55,2.7,4.16c-1.44,3.61.34,4.35,2.89,4.45,2.55.1,4.25,1.81,3.08,4.75"/>
          <path class="cls-9" d="m14.79,43.43s1.2,3.99,4.53,2.01c3.33-1.99,4.35-.36,4.85,2.15.5,2.5,2.46,3.91,5.18,2.29"/>
          <path class="cls-9" d="m1.79,60.01s1.2,3.99,4.53,2.01c3.33-1.99,4.35-.36,4.85,2.15.5,2.5,2.46,3.91,5.18,2.29"/>
          <path class="cls-9" d="m37.88,69.01s4.15-.36,2.89-4.03c-1.27-3.67.54-4.33,3.09-4.31,2.55.02,4.33-1.61,3.3-4.6"/>
          <path class="cls-9" d="m34.49,60.09s3.21,2.66.08,4.95c-3.13,2.29-2.02,3.87.09,5.31,2.11,1.44,2.65,3.79.1,5.66"/>
          <path class="cls-9" d="m50.83,63.59s-3.37-2.46-.39-4.94c2.98-2.48,1.78-3.99-.42-5.29-2.19-1.31-2.88-3.62-.44-5.64"/>
          <path class="cls-9" d="m55.94,59.43s2.82-3.07,4.95.17c2.13,3.24,3.76,2.21,5.3.18,1.54-2.03,3.92-2.45,5.66.2"/>
          <path class="cls-9" d="m40.17,32.48s4.16.24,3,3.94c-1.16,3.7.66,4.31,3.22,4.22,2.55-.09,4.38,1.49,3.43,4.5"/>
          <path class="cls-9" d="m31.67,40.41s-.39,4.15,3.45,3.56c3.83-.59,4.16,1.3,3.69,3.81-.47,2.51.81,4.55,3.94,4.07"/>
          <path class="cls-9" d="m19.47,42.71s1.06-4.03,4.46-2.16c3.4,1.88,4.36.21,4.78-2.31.42-2.52,2.33-3.99,5.1-2.46"/>
          <path class="cls-9" d="m1.21,13.18s4.16-.21,3.03-3.92c-1.14-3.71.69-4.31,3.24-4.2,2.55.11,4.39-1.46,3.46-4.48"/>
          <path class="cls-9" d="m35.69,57.65s-3.82-1.68-4.46,2.15c-.64,3.83-2.55,3.54-4.78,2.3s-4.57-.66-5.1,2.46"/>
          <path class="cls-9" d="m83.79,52.82s-1.59-3.86-4.71-1.55c-3.12,2.31-4.29.78-5.04-1.66-.75-2.44-2.83-3.65-5.38-1.77"/>
          <path class="cls-9" d="m67.72,48.84s-1.02,4.04-4.44,2.21c-3.42-1.84-4.36-.16-4.75,2.36-.39,2.52-2.28,4.02-5.07,2.52"/>
          <path class="cls-9" d="m59.64,60.81s-.12,4.17-3.86,3.11c-3.73-1.06-4.29.78-4.13,3.33.16,2.55-1.37,4.42-4.41,3.55"/>
          <path class="cls-9" d="m51.35,47.94s2.02-3.65,4.85-1c2.83,2.65,4.17,1.27,5.2-1.07,1.02-2.34,3.24-3.3,5.54-1.14"/>
          <path class="cls-9" d="m41.29,59.08s-1.96-3.68,1.81-4.61c3.77-.93,3.34-2.81,1.93-4.94-1.4-2.13-1.01-4.51,2.06-5.27"/>
          <path class="cls-9" d="m62.01,83.53s-1.29-3.96,2.58-4.23c3.87-.27,3.77-2.19,2.76-4.53-1.01-2.34-.21-4.62,2.95-4.84"/>
          <path class="cls-9" d="m46.41,34.02s4.09-.81,3.89,3.06c-.2,3.88,1.72,4.01,4.17,3.28,2.45-.72,4.61.34,4.45,3.5"/>
          <path class="cls-9" d="m66.59,12.82s4.13-.53,3.67,3.32c-.46,3.85,1.45,4.12,3.94,3.56,2.49-.56,4.58.65,4.2,3.8"/>
          <path class="cls-9" d="m65.07,53.84s2.41,3.4,4.94.45c2.52-2.95,4.01-1.73,5.28.48,1.28,2.21,3.58,2.92,5.64.52"/>
          <path class="cls-9" d="m45.46,62.83s-3.72,1.88-1.18,4.81c2.54,2.93,1.11,4.22-1.26,5.15-2.38.93-3.42,3.11-1.35,5.5"/>
          <path class="cls-9" d="m28.23,80.31s-3.57-2.16-.81-4.89c2.76-2.73,1.43-4.12-.87-5.24-2.3-1.12-3.18-3.36-.92-5.59"/>
          <path class="cls-9" d="m19.97,65.69s1.2,4-2.68,4.17c-3.88.17-3.83,2.09-2.87,4.46.95,2.37.1,4.62-3.06,4.76"/>
        </g>
        <g>
          <path class="cls-9" d="m2.88,33.61s-4.15-.44-2.81-4.08c1.34-3.64-.46-4.34-3.01-4.38-2.55-.03-4.3-1.7-3.21-4.67"/>
          <path class="cls-9" d="m-9.88,38.22s3.47-2.32,4.77,1.34c1.3,3.65,3.13,3.04,5.11,1.43,1.98-1.61,4.39-1.45,5.45,1.53"/>
          <path class="cls-9" d="m-.32,62.73s-.76,4.1-4.29,2.48c-3.53-1.62-4.36.12-4.59,2.66-.23,2.54-2.02,4.16-4.9,2.84"/>
          <path class="cls-9" d="m-16.06,59.43s2.82-3.07,4.95.17c2.13,3.24,3.76,2.21,5.3.18,1.54-2.03,3.92-2.45,5.66.2"/>
          <path class="cls-9" d="m11.79,52.82s-1.59-3.86-4.71-1.55c-3.12,2.31-4.29.78-5.04-1.66-.75-2.44-2.83-3.65-5.38-1.77"/>
          <path class="cls-9" d="m-5.41,12.82s4.13-.53,3.67,3.32c-.46,3.85,1.45,4.12,3.94,3.56,2.49-.56,4.58.65,4.2,3.8"/>
          <path class="cls-9" d="m-6.93,53.84s2.41,3.4,4.94.45c2.52-2.95,4.01-1.73,5.28.48,1.28,2.21,3.58,2.92,5.64.52"/>
        </g>
        <path class="cls-9" d="m80.4-7.86s.96,4.06-2.92,4c-3.88-.06-3.94,1.87-3.13,4.29s-.18,4.62-3.34,4.57"/>
        <g>
          <path class="cls-9" d="m51.02,11.38s-1.86-3.73,1.93-4.56c3.79-.83,3.41-2.72,2.07-4.89-1.34-2.17-.88-4.54,2.21-5.21"/>
          <path class="cls-9" d="m8.4-7.86s.96,4.06-2.92,4c-3.88-.06-3.94,1.87-3.13,4.29s-.18,4.62-3.34,4.57"/>
          <path class="cls-9" d="m34.49-11.91s3.21,2.66.08,4.95c-3.13,2.29-2.02,3.87.09,5.31,2.11,1.44,2.65,3.79.1,5.66"/>
          <path class="cls-9" d="m62.01,11.53s-1.29-3.96,2.58-4.23c3.87-.27,3.77-2.19,2.76-4.53-1.01-2.34-.21-4.62,2.95-4.84"/>
          <path class="cls-9" d="m45.46-9.17s-3.72,1.88-1.18,4.81c2.54,2.93,1.11,4.22-1.26,5.15-2.38.93-3.42,3.11-1.35,5.5"/>
          <path class="cls-9" d="m28.23,8.31s-3.57-2.16-.81-4.89c2.76-2.73,1.43-4.12-.87-5.24-2.3-1.12-3.18-3.36-.92-5.59"/>
          <path class="cls-9" d="m19.97-6.31s1.2,4-2.68,4.17c-3.88.17-3.83,2.09-2.87,4.46.95,2.37.1,4.62-3.06,4.76"/>
        </g>
      </g>
    </pattern>
  </defs>
  <g class="cls-17">
    <g id="Layer_2" data-name="Layer 2">
      <g id="Videosite">
        <g id="Rectangle_1" data-name="Rectangle 1">
          <rect class="cls-10" x="66.02" width="1015" height="710" rx="53" ry="53"/>
          <rect class="cls-8" x="66.52" y=".5" width="1014" height="709" rx="52.5" ry="52.5"/>
        </g>
        <g>
          <path class="cls-11" d="m526.38,41.06c-49.06-8.42-182.27-31.02-216.06,11.29-4.28,5.55-6.47,12.37-7.08,19.29-1.31,18.5,4.84,35.9,8.22,54.31,1.45,7.96,2.63,15.74,1.79,24.28-1.23,15.78-12.28,29.3-28.4,32.1-13.69,2.13-26.22-2.19-38.59-6.28-29.06-10.25-59.48-21.48-86.39-.46-15.86,12.59-23.46,31.12-36.98,47.07-5.91,6.98-13.35,13.54-22.11,17.58-7.52,3.6-15.73,5.26-23.96,5.4-28.64.13-52.39-17.91-71.16-37.03-17.38-19.27,9.08-45.16,27.96-27.34.21.22.42.44.62.66,10.92,12.02,25.55,26.14,41.89,27.58,8.67.82,15.21-3.23,21.04-9.58,8.82-9.63,16.33-22.23,25.72-32.82,16.55-19.57,40.11-32.31,66.12-32.8,16.14-.5,31.81,3.58,46.42,8.89,6.99,2.52,13.62,5.27,19.98,7.76,6.35,2.5,12.49,4.74,17.85,5.87,5.76,1.23,11.36,1.26,14.48-3.75,5.44-9.87-.66-32.06-2.35-43.86-2.74-15.76-4.9-33.21-.36-49.1,6.91-24.4,28.5-37.2,51.77-42.61,16.21-3.86,32.63-4.83,49.11-4.75,19.62.13,39.35,1.98,58.7,4.54,28.1,3.74,55.86,9.2,83.47,15.36,5.19,1.33,4.06,9.17-1.7,8.42h0Z"/>
          <path class="cls-11" d="m1092.2,512.27c-5.92,48.48-18.56,110.04-62.74,138.45-9.27,5.72-19.83,9.92-30.75,10.92-14.46,1.36-28.62-2.33-42.84-3.19-17.49-1.26-35.3.86-52.07,5.74-25.77,7.36-47.2,23.46-66.79,41.46-12.2,10.97-24.84,23.19-39.09,32.14-20.2,13.12-45.56,18.28-69.14,12.6-20.32-4.78-37.77-18.83-52.28-32.56-20.04-19.1-39.16-39.05-60.58-55.95-62.84-50.91-141.69-78.83-221.48-88.41,0,0-6.69-.87-6.69-.87l-6.73-.64-13.45-1.29-.62-.06c-10.75-1.03-18.62-10.58-17.59-21.33,1.03-10.75,10.58-18.62,21.33-17.59,5.79.74,16.58,2.15,22.03,2.87,77.23,11.4,153.34,37.83,216.62,84.36,24.08,17.52,46.41,38.47,66.61,59.87,12.36,12.79,24.57,26.7,38.41,37.06,9.44,7.08,20.11,11.75,31.91,12.5,20.77,1.56,38.45-6.97,55.82-20.92,14.46-11.39,28.32-24.5,43.74-35.32,35.99-26.48,81.96-35.99,125.7-27.81,0,0,6.86,1.13,6.86,1.13l3.33.51c7.88,1.26,15.62,1.62,23.28-.03,11.8-2.78,22.6-9.22,31.39-17.5,17.81-17.12,28-39.9,35.47-63.55,5.42-17.41,9.07-35.48,11.82-53.69.81-5.24,8.91-4.71,8.51,1.14h0Z"/>
          <path class="cls-11" d="m966.98,61.17c-35.69,4.67-68.93,23.23-85.63,55.93-11.2,21.29-15.35,45.37-18.77,69.19-5.44,36.99-8.11,84.16-45.19,104.27-13.76,7.82-26.73,6.58-41.45,3.77-17.53-3.34-34.99-3.9-52.58-1.29-14.27,1.93-28.41,6.02-41.34,12.35-24.8,11.81-43.23,30.79-63.96,48.84-10.03,8.61-20.74,16.82-33.06,22.53-19.34,9.17-42.34,11.15-62.85,4.46-8.26-2.72-15.68-6.8-22.71-11.53-20.06-14.07-35.58-34.93-51.25-52.77-12.94-14.65-25.83-27.76-43.29-35.54-23.22-10.12-48.64-5.65-71.46,4.34-26.53,11.7-50.51,29.86-72.37,49.03-22.58,19.91-43.43,41.7-63.39,64.48-32.06,36.54-61.65,75.59-90.13,115.42-6.28,8.78-18.49,10.81-27.27,4.53-8.78-6.28-10.81-18.49-4.53-27.27,45.37-59.94,93.26-118.98,149.48-169.65,37.66-33.33,84.65-68.87,136.13-75.21,29.23-3.42,57.17,5.23,79.58,24.15,20.12,16.67,34.57,37.88,50.89,56.87,7.48,8.64,15.13,16.66,24.5,23.02,15.16,10.69,34.21,12.9,51.79,7.58,13.42-4.11,24.89-12.33,35.85-21.26,20.16-16.83,40.94-36.2,65.18-47.86,13.27-6.46,27.64-11.18,42.2-13.58,16.07-2.72,32.49-3.42,48.72-1.63,6.49.71,12.93,1.88,19.01,3.11,6.09,1.21,11.76,2.39,16.66,2.38,10.3.06,19.68-5.94,26.81-13.01,11.92-12.5,16.69-29.23,20.46-46.37,7.39-35.59,9.64-75.7,28.29-108.82,12.46-22.76,33.37-40.59,57.53-49.92,11.94-4.74,24.48-7.6,37.06-9.06,2.36-.27,4.48,1.42,4.76,3.77.27,2.32-1.37,4.42-3.67,4.74h0Z"/>
        </g>
        <g>
          <path class="cls-18" d="m526.38,41.06c-49.06-8.42-182.27-31.02-216.06,11.29-4.28,5.55-6.47,12.37-7.08,19.29-1.31,18.5,4.84,35.9,8.22,54.31,1.45,7.96,2.63,15.74,1.79,24.28-1.23,15.78-12.28,29.3-28.4,32.1-13.69,2.13-26.22-2.19-38.59-6.28-29.06-10.25-59.48-21.48-86.39-.46-15.86,12.59-23.46,31.12-36.98,47.07-5.91,6.98-13.35,13.54-22.11,17.58-7.52,3.6-15.73,5.26-23.96,5.4-28.64.13-52.39-17.91-71.16-37.03-17.38-19.27,9.08-45.16,27.96-27.34.21.22.42.44.62.66,10.92,12.02,25.55,26.14,41.89,27.58,8.67.82,15.21-3.23,21.04-9.58,8.82-9.63,16.33-22.23,25.72-32.82,16.55-19.57,40.11-32.31,66.12-32.8,16.14-.5,31.81,3.58,46.42,8.89,6.99,2.52,13.62,5.27,19.98,7.76,6.35,2.5,12.49,4.74,17.85,5.87,5.76,1.23,11.36,1.26,14.48-3.75,5.44-9.87-.66-32.06-2.35-43.86-2.74-15.76-4.9-33.21-.36-49.1,6.91-24.4,28.5-37.2,51.77-42.61,16.21-3.86,32.63-4.83,49.11-4.75,19.62.13,39.35,1.98,58.7,4.54,28.1,3.74,55.86,9.2,83.47,15.36,5.19,1.33,4.06,9.17-1.7,8.42h0Z"/>
          <path class="cls-18" d="m1092.2,512.27c-5.92,48.48-18.56,110.04-62.74,138.45-9.27,5.72-19.83,9.92-30.75,10.92-14.46,1.36-28.62-2.33-42.84-3.19-17.49-1.26-35.3.86-52.07,5.74-25.77,7.36-47.2,23.46-66.79,41.46-12.2,10.97-24.84,23.19-39.09,32.14-20.2,13.12-45.56,18.28-69.14,12.6-20.32-4.78-37.77-18.83-52.28-32.56-20.04-19.1-39.16-39.05-60.58-55.95-62.84-50.91-141.69-78.83-221.48-88.41,0,0-6.69-.87-6.69-.87l-6.73-.64-13.45-1.29-.62-.06c-10.75-1.03-18.62-10.58-17.59-21.33,1.03-10.75,10.58-18.62,21.33-17.59,5.79.74,16.58,2.15,22.03,2.87,77.23,11.4,153.34,37.83,216.62,84.36,24.08,17.52,46.41,38.47,66.61,59.87,12.36,12.79,24.57,26.7,38.41,37.06,9.44,7.08,20.11,11.75,31.91,12.5,20.77,1.56,38.45-6.97,55.82-20.92,14.46-11.39,28.32-24.5,43.74-35.32,35.99-26.48,81.96-35.99,125.7-27.81,0,0,6.86,1.13,6.86,1.13l3.33.51c7.88,1.26,15.62,1.62,23.28-.03,11.8-2.78,22.6-9.22,31.39-17.5,17.81-17.12,28-39.9,35.47-63.55,5.42-17.41,9.07-35.48,11.82-53.69.81-5.24,8.91-4.71,8.51,1.14h0Z"/>
          <path class="cls-18" d="m966.98,61.17c-35.69,4.67-68.93,23.23-85.63,55.93-11.2,21.29-15.35,45.37-18.77,69.19-5.44,36.99-8.11,84.16-45.19,104.27-13.76,7.82-26.73,6.58-41.45,3.77-17.53-3.34-34.99-3.9-52.58-1.29-14.27,1.93-28.41,6.02-41.34,12.35-24.8,11.81-43.23,30.79-63.96,48.84-10.03,8.61-20.74,16.82-33.06,22.53-19.34,9.17-42.34,11.15-62.85,4.46-8.26-2.72-15.68-6.8-22.71-11.53-20.06-14.07-35.58-34.93-51.25-52.77-12.94-14.65-25.83-27.76-43.29-35.54-23.22-10.12-48.64-5.65-71.46,4.34-26.53,11.7-50.51,29.86-72.37,49.03-22.58,19.91-43.43,41.7-63.39,64.48-32.06,36.54-61.65,75.59-90.13,115.42-6.28,8.78-18.49,10.81-27.27,4.53-8.78-6.28-10.81-18.49-4.53-27.27,45.37-59.94,93.26-118.98,149.48-169.65,37.66-33.33,84.65-68.87,136.13-75.21,29.23-3.42,57.17,5.23,79.58,24.15,20.12,16.67,34.57,37.88,50.89,56.87,7.48,8.64,15.13,16.66,24.5,23.02,15.16,10.69,34.21,12.9,51.79,7.58,13.42-4.11,24.89-12.33,35.85-21.26,20.16-16.83,40.94-36.2,65.18-47.86,13.27-6.46,27.64-11.18,42.2-13.58,16.07-2.72,32.49-3.42,48.72-1.63,6.49.71,12.93,1.88,19.01,3.11,6.09,1.21,11.76,2.39,16.66,2.38,10.3.06,19.68-5.94,26.81-13.01,11.92-12.5,16.69-29.23,20.46-46.37,7.39-35.59,9.64-75.7,28.29-108.82,12.46-22.76,33.37-40.59,57.53-49.92,11.94-4.74,24.48-7.6,37.06-9.06,2.36-.27,4.48,1.42,4.76,3.77.27,2.32-1.37,4.42-3.67,4.74h0Z"/>
        </g>
        <rect class="cls-14" x="456.46" y="181.2" width="575.02" height="381.47" rx="17.25" ry="17.25"/>
        <line class="cls-7" x1="546.11" y1="524.1" x2="901.69" y2="524.1"/>
        <g>
          <g class="cls-16">
            <path class="cls-13" d="m523.84,524.25c.62.36.62,1.25,0,1.61l-18.34,10.59-18.34,10.59c-.62.36-1.39-.09-1.39-.8v-42.37c0-.71.77-1.16,1.39-.8l18.34,10.59,18.34,10.59Z"/>
          </g>
          <path class="cls-11" d="m526.7,523.29c.62.36.62,1.25,0,1.61l-18.34,10.59-18.34,10.59c-.62.36-1.39-.09-1.39-.8v-42.37c0-.71.77-1.16,1.39-.8l18.34,10.59,18.34,10.59Z"/>
        </g>
        <line class="cls-2" x1="546.11" y1="524.1" x2="683.33" y2="524.1"/>
        <path class="cls-11" d="m1012.76,533.45l-14.25,5.61c-1.09.43-2.27-.37-2.27-1.55v-26.55c0-1.29,1.41-2.09,2.52-1.42l14.25,8.63c.5.3.8.84.8,1.42v12.31c0,.68-.42,1.3-1.05,1.55Z"/>
        <path class="cls-11" d="m1008.21,515.26h10.12c.6,0,1.09.49,1.09,1.09v17.81c0,.6-.49,1.09-1.09,1.09h-10.12v-19.98h0Z"/>
        <line class="cls-5" x1="992.91" y1="517.16" x2="992.91" y2="531.69"/>
        <line class="cls-4" x1="987.61" y1="513.61" x2="987.61" y2="535.25"/>
        <line class="cls-3" x1="981.52" y1="507.73" x2="981.52" y2="541.12"/>
        <line class="cls-6" x1="1008.21" y1="407.93" x2="1008.21" y2="495.04"/>
        <path class="cls-11" d="m946.62,501.9l1.65,5.58c1.37.45,1.85.6,3.22,1.05l4.61-3.55c1.66,1.2,1.53,1.11,3.19,2.32l-1.95,5.48c.85,1.17,1.14,1.57,1.99,2.74l5.82-.16,1.22,3.75-4.8,3.29v3.39l4.8,3.29c-.63,1.95-.58,1.8-1.22,3.75l-5.82-.16c-.85,1.17-1.14,1.57-1.99,2.74l1.95,5.48c-1.66,1.2-1.53,1.11-3.19,2.32l-4.61-3.55-3.22,1.05-1.65,5.58h-3.94l-1.65-5.58-3.22-1.05-4.61,3.55c-1.66-1.2-1.53-1.11-3.19-2.32l1.95-5.48c-.85-1.17-1.14-1.57-1.99-2.74l-5.82.16c-.63-1.95-.58-1.8-1.22-3.75l4.8-3.29v-3.39l-4.8-3.29,1.22-3.75,5.82.16c.85-1.17,1.14-1.57,1.99-2.74l-1.95-5.48c1.66-1.2,1.53-1.11,3.19-2.32l4.61,3.55c1.37-.45,1.85-.6,3.22-1.05l1.65-5.58h3.94Z"/>
        <g>
          <path class="cls-15" d="m832.42,450.17l-331.68,36.47c-7.78.86-14.58-5.24-14.58-13.06v-245.92c0-8.3,7.59-14.52,15.73-12.88l331.68,66.64c6.14,1.23,10.55,6.62,10.55,12.88v142.81c0,6.7-5.04,12.33-11.7,13.06Z"/>
          <path class="cls-12" d="m873.42,448.17l-331.68,36.47c-7.78.86-14.58-5.24-14.58-13.06v-245.92c0-8.3,7.59-14.52,15.73-12.88l331.68,66.64c6.14,1.23,10.55,6.62,10.55,12.88v142.81c0,6.7-5.04,12.33-11.7,13.06Z"/>
        </g>
      </g>
    </g>
  </g>
</svg>